<svg xmlns="http://www.w3.org/2000/svg" width="54.351" height="71.597" viewBox="0 0 54.351 71.597">
  <g id="archivo_2_" data-name="archivo(2)" transform="translate(-31.098)">
    <g id="Grupo_876185" data-name="Grupo 876185" transform="translate(31.098)">
      <g id="Grupo_876184" data-name="Grupo 876184">
        <path id="Trazado_599838" data-name="Trazado 599838" d="M72.6,0H36.511A5.509,5.509,0,0,0,31.1,5.59V50.555A5.571,5.571,0,0,0,34.707,55.8V18.312a9.411,9.411,0,0,1,2.643-6.587l5.1-5.269a8.823,8.823,0,0,1,6.378-2.729H77.678A5.42,5.42,0,0,0,72.6,0Z" transform="translate(-31.098)" fill="#e3f7f0"/>
      </g>
    </g>
    <g id="Grupo_876187" data-name="Grupo 876187" transform="translate(38.551 7.478)">
      <g id="Grupo_876186" data-name="Grupo 876186">
        <path id="Trazado_599839" data-name="Trazado 599839" d="M132.61,60.2H105.54V73.217a1.856,1.856,0,0,1-1.8,1.888H91.1v43.624a5.509,5.509,0,0,0,5.414,5.59H132.61a5.49,5.49,0,0,0,5.39-5.59V65.764A5.469,5.469,0,0,0,132.61,60.2ZM129,105.139H100.125a1.864,1.864,0,0,1,0-3.726H129a1.864,1.864,0,0,1,0,3.726Zm0-7.453H100.125a1.864,1.864,0,0,1,0-3.726H129a1.864,1.864,0,0,1,0,3.726Zm0-7.453H100.125a1.864,1.864,0,0,1,0-3.726H129a1.864,1.864,0,0,1,0,3.726Zm0-7.453H100.125a1.864,1.864,0,0,1,0-3.726H129a1.864,1.864,0,0,1,0,3.726Z" transform="translate(-91.102 -60.199)" fill="#e3f7f0"/>
      </g>
    </g>
    <g id="Grupo_876189" data-name="Grupo 876189" transform="translate(38.551 7.453)">
      <g id="Grupo_876188" data-name="Grupo 876188">
        <path id="Trazado_599840" data-name="Trazado 599840" d="M101.957,60a5.555,5.555,0,0,0-3.952,1.638l-5.269,5.269A5.6,5.6,0,0,0,91.1,71.179h11.179V60Z" transform="translate(-91.098 -60)" fill="#e3f7f0"/>
      </g>
    </g>
  </g>
</svg>
