<svg xmlns="http://www.w3.org/2000/svg" xmlns:xlink="http://www.w3.org/1999/xlink" width="59" height="59" viewBox="0 0 59 59">
  <defs>
    <linearGradient id="linear-gradient" x1="0.5" y1="0.319" x2="0.5" y2="2.484" gradientUnits="objectBoundingBox">
      <stop offset="0" stop-color="#0273bc"/>
      <stop offset="1" stop-color="#050d13"/>
    </linearGradient>
  </defs>
  <g id="Grupo_878808" data-name="Grupo 878808" transform="translate(-285 -2219)">
    <circle id="Elipse_5221" data-name="Elipse 5221" cx="29.5" cy="29.5" r="29.5" transform="translate(285 2219)" fill="url(#linear-gradient)"/>
    <g id="tubo" transform="translate(278 2231)">
      <path id="Trazado_604658" data-name="Trazado 604658" d="M47.572,0V2.03H43.058A7.266,7.266,0,0,0,35.8,9.287V13.8h-2.03V19.89H35.8V24.9a2.03,2.03,0,0,1-4.059,0V6.089h2.03V0H22V6.089h2.03V24.9a9.742,9.742,0,0,0,19.484,0V19.89h2.03V13.8h-2.03V10.6a.861.861,0,0,1,.86-.86h3.2v2.03h6.089V0ZM24.03,2.03h7.712v2.03H24.03Zm5.683,4.059V23.964l-.045-.017a4.879,4.879,0,0,0-3.564,0l-.045.017V6.089Zm4.059,26.519a7.724,7.724,0,0,1-7.624-6.545,5.144,5.144,0,0,0,.679-.219,2.851,2.851,0,0,1,2.119,0,4.575,4.575,0,0,0,.956.274,4.059,4.059,0,0,0,7.741,0,4.579,4.579,0,0,0,.956-.274,2.851,2.851,0,0,1,2.119,0,5.154,5.154,0,0,0,.679.219A7.724,7.724,0,0,1,33.771,32.608Zm7.712-8.644-.045-.017a4.879,4.879,0,0,0-3.564,0l-.045.017V19.89h3.653Zm2.03-6.1H35.8v-2.03h7.712Zm.86-10.148A2.893,2.893,0,0,0,41.484,10.6v3.2H37.831V9.287a5.234,5.234,0,0,1,5.228-5.228h4.514V7.712Zm7.258,2.03H49.6V2.03h2.03Z" transform="translate(0 2)" fill="#fff"/>
    </g>
  </g>
</svg>
