<svg xmlns="http://www.w3.org/2000/svg" width="85" height="85" viewBox="0 0 85 85">
  <g id="Grupo_878821" data-name="Grupo 878821" transform="translate(-548 -1136)">
    <circle id="Elipse_5233" data-name="Elipse 5233" cx="42.5" cy="42.5" r="42.5" transform="translate(548 1136)" fill="#0273bc"/>
    <g id="boca" transform="translate(559.689 1144.273)">
      <path id="Trazado_607313" data-name="Trazado 607313" d="M41.543,4.109c-2.108-.329-5.83-.426-10.731,2.07-4.9-2.5-8.623-2.4-10.731-2.07C10.029,5.681,1.392,18.056,0,35.163a30.848,30.848,0,0,0,61.623,0C60.231,18.056,51.594,5.681,41.543,4.109Z" transform="translate(0 0)" fill="#ff6d7a"/>
      <path id="Trazado_607314" data-name="Trazado 607314" d="M96.421,263.974a29.179,29.179,0,0,1-2.269,3.092,93.414,93.414,0,0,1-44.5,0,29.056,29.056,0,0,1-2.271-3.1,66.419,66.419,0,0,1,19.166-4.494,6.6,6.6,0,0,1,5.352,2.066,6.6,6.6,0,0,1,5.352-2.066,66.518,66.518,0,0,1,19.171,4.495Z" transform="translate(-41.087 -221.578)" fill="#ff6d7a"/>
      <path id="Trazado_607315" data-name="Trazado 607315" d="M108.981,316.741a29.031,29.031,0,0,1-44.5,0A93.411,93.411,0,0,0,108.981,316.741Z" transform="translate(-55.915 -271.253)" fill="#eef7ff"/>
      <path id="Trazado_607316" data-name="Trazado 607316" d="M80.884,134.061a30.318,30.318,0,0,0-7.136-13.08,68.585,68.585,0,0,1-39.611,0A30.291,30.291,0,0,0,27,134.061a9.28,9.28,0,0,0,.5,6.29,28.726,28.726,0,0,0,1.921,3.54A66.42,66.42,0,0,1,48.586,139.4a6.6,6.6,0,0,1,5.352,2.066A6.6,6.6,0,0,1,59.29,139.4a66.5,66.5,0,0,1,19.171,4.495,28.93,28.93,0,0,0,1.922-3.541A9.272,9.272,0,0,0,80.884,134.061Z" transform="translate(-23.127 -101.496)" fill="#fe4f60"/>
      <path id="Trazado_607317" data-name="Trazado 607317" d="M135.178,181.78c5.2-8.169,15.561,1.876,9.248,8.869a65.527,65.527,0,0,0-8.145-1.177,6.6,6.6,0,0,0-5.352,2.066,6.6,6.6,0,0,0-5.352-2.066,66.428,66.428,0,0,0-8.145,1.177c-6.315-6.995,4.049-17.036,9.248-8.869A4.908,4.908,0,0,0,135.178,181.78Z" transform="translate(-100.118 -151.572)" fill="#e84857"/>
      <path id="Trazado_607318" data-name="Trazado 607318" d="M115.659,77.845A23.15,23.15,0,0,1,122.5,82.8a68.585,68.585,0,0,1-39.611,0,23.145,23.145,0,0,1,6.839-4.951,9.567,9.567,0,0,1,7.749-.157,13.654,13.654,0,0,0,10.4.011A9.633,9.633,0,0,1,115.659,77.845Z" transform="translate(-71.88 -63.311)" fill="#eef7ff"/>
      <path id="Trazado_607319" data-name="Trazado 607319" d="M263.237,261.464a10.9,10.9,0,0,0-2.559,1.274,1.713,1.713,0,0,1-1.974-.01l-.063-.043a1.7,1.7,0,0,1,1.143-3.113q1.645.135,3.288.352A.8.8,0,0,1,263.237,261.464Z" transform="translate(-223.622 -221.672)" fill="#ff8c95"/>
      <path id="Trazado_607320" data-name="Trazado 607320" d="M52.513,267.762q-1.468-.323-2.862-.694a29.05,29.05,0,0,1-2.271-3.1,66.42,66.42,0,0,1,19.166-4.494,6.59,6.59,0,0,1,5.283,2A66.374,66.374,0,0,0,55.1,265.06a1.672,1.672,0,0,0-1.3,1.65,1.065,1.065,0,0,1-1.291,1.053Z" transform="translate(-41.086 -221.578)" fill="#ff8c95"/>
      <path id="Trazado_607321" data-name="Trazado 607321" d="M211.154,268.966a6.588,6.588,0,0,0-1.162,1.714,1.062,1.062,0,1,1-1.922-.9,8.815,8.815,0,0,1,.76-1.311,1.064,1.064,0,0,1,1.517-.229A6.578,6.578,0,0,1,211.154,268.966Z" transform="translate(-180.342 -229)" fill="#fe4f60"/>
      <path id="Trazado_607322" data-name="Trazado 607322" d="M200.1,184.4a1.369,1.369,0,0,1-1.682,2.014,5.311,5.311,0,0,1-2.321-2.043q-.156-.245-.319-.469a1.369,1.369,0,0,1,1.747-2.019A6.983,6.983,0,0,1,200.1,184.4Z" transform="translate(-169.54 -154.165)" fill="#ff6d7a"/>
      <path id="Trazado_607323" data-name="Trazado 607323" d="M121.391,189.959q-1.986.291-3.96.7c-5.487-6.077,1.617-14.454,6.984-11.19a.8.8,0,0,1-.011,1.373A7.213,7.213,0,0,0,121.391,189.959Z" transform="translate(-100.117 -151.583)" fill="#e33949"/>
      <path id="Trazado_607324" data-name="Trazado 607324" d="M218.429,82.826a68.56,68.56,0,0,1-23.915,2.8,1.063,1.063,0,0,1-.486-1.971,13.98,13.98,0,0,0,4.621-4.444,1.06,1.06,0,0,1,.825-.483,13.67,13.67,0,0,0,4.333-1,9.633,9.633,0,0,1,7.78.145A23.15,23.15,0,0,1,218.429,82.826Z" transform="translate(-167.807 -63.341)" fill="#cbe3fa"/>
      <path id="Trazado_607325" data-name="Trazado 607325" d="M238.293,316.741a29.107,29.107,0,0,1-23.68,10.359,1.062,1.062,0,0,1-.5-1.971,8.091,8.091,0,0,0,3.772-4.953,1.072,1.072,0,0,1,1.007-.786A85.921,85.921,0,0,0,238.293,316.741Z" transform="translate(-185.227 -271.253)" fill="#cbe3fa"/>
      <g id="Grupo_878505" data-name="Grupo 878505" transform="translate(0 3.938)">
        <path id="Trazado_607326" data-name="Trazado 607326" d="M265.862,5.888a21.361,21.361,0,0,0-3.463,1.3,1.511,1.511,0,0,1-1.295,0,1.494,1.494,0,0,1,.238-2.833,15.741,15.741,0,0,1,4.32-.4A.983.983,0,0,1,265.862,5.888Z" transform="translate(-225.626 -3.938)" fill="#ff949d"/>
        <path id="Trazado_607327" data-name="Trazado 607327" d="M3.872,33.53a9.28,9.28,0,0,0,.5,6.29,28.387,28.387,0,0,0,1.736,3.244A30.793,30.793,0,0,0,12.43,55.641a1.45,1.45,0,0,1-2.076,2.013A30.794,30.794,0,0,1,0,36.128C1.392,19.021,10.029,6.647,20.08,5.074a1.45,1.45,0,0,1,.9,2.733c-5.909,2.9-10.307,9.426-12.772,16.121a32.255,32.255,0,0,0-4.334,9.6Z" transform="translate(0 -4.903)" fill="#ff949d"/>
      </g>
    </g>
  </g>
</svg>
