<svg xmlns="http://www.w3.org/2000/svg" xmlns:xlink="http://www.w3.org/1999/xlink" width="94" height="94" viewBox="0 0 94 94">
  <defs>
    <clipPath id="clip-path">
      <circle id="Elipse_5236" data-name="Elipse 5236" cx="47" cy="47" r="47" transform="translate(963 1131)" fill="#0273bc"/>
    </clipPath>
  </defs>
  <g id="Grupo_878823" data-name="Grupo 878823" transform="translate(-963 -1131)">
    <circle id="Elipse_5235" data-name="Elipse 5235" cx="47" cy="47" r="47" transform="translate(963 1131)" fill="#0273bc"/>
    <g id="Grupo_878822" data-name="Grupo 878822">
      <g id="Enmascarar_grupo_86" data-name="Enmascarar grupo 86" clip-path="url(#clip-path)">
        <g id="milk_tooth" data-name="milk tooth" transform="translate(970 1144.281)">
          <path id="Trazado_607309" data-name="Trazado 607309" d="M123.741,30.678V68.034H1V30.678a19.345,19.345,0,0,1,11.687-9.846c62.918-1.121,43.68-1.147,99.741.133A19.212,19.212,0,0,1,123.741,30.678Z" transform="translate(-16 16.685)" fill="#db5669"/>
          <path id="Trazado_607310" data-name="Trazado 607310" d="M120.448,30.615V62.635H11.048a8,8,0,0,1-8-8c0-32.019-.507-28.871,1.227-31.432a18.838,18.838,0,0,1,5.123-2.428c7.044,0,95.6-2.375,102.782,1.414a19.292,19.292,0,0,1,8.272,8.432Z" transform="translate(-12.707 16.748)" fill="#f26674"/>
          <path id="Trazado_607311" data-name="Trazado 607311" d="M41.009,66.335a3.6,3.6,0,0,0,6.857-.294c1.574-6.938,1.227-16.277,2.375-20.653,1.788-6.751,7.124-11.794,7.124-20.226,0-3.362,0-15.156-12.461-15.156a27.644,27.644,0,0,0-9.392,1.361c-7.071,2.668-9.339-1.361-19.052-1.361C4,10.007,4,21.8,4,25.163c0,8.432,5.337,13.475,7.124,20.226C12.272,49.765,12,59.1,13.5,66.041a3.6,3.6,0,0,0,6.857.294C26.841,46.029,33.965,44.321,41.009,66.335Z" transform="translate(10.005)" fill="#dad7e5"/>
          <path id="Trazado_607312" data-name="Trazado 607312" d="M54.029,25.156c0,8.432-5.337,13.475-7.124,20.226-1.121,4.3-.8,13.341-2.295,20.226a3.576,3.576,0,0,1-6.938.72c-6.511-20.386-13.555-21.693-20.412-.694A3.282,3.282,0,0,1,15.5,63.366c-1.574-6.938-1.227-16.277-2.375-20.653C11.337,35.962,6,30.919,6,22.488c0-2.295,0-8.458,3.922-12.194a27.964,27.964,0,0,1,12.594,1.067C29.561,14.029,31.8,10,41.568,10,54.029,10,54.029,21.794,54.029,25.156Z" transform="translate(13.341 0.007)" fill="#edebf2"/>
        </g>
      </g>
    </g>
  </g>
</svg>
