<svg xmlns="http://www.w3.org/2000/svg" width="187.981" height="103" viewBox="0 0 187.981 103">
  <g id="Grupo_878810" data-name="Grupo 878810" transform="translate(-180 -476)">
    <g id="Grupo_878571" data-name="Grupo 878571">
      <g id="Grupo_878531" data-name="Grupo 878531" transform="translate(135.895 443.745)">
        <g id="Grupo_156330" data-name="Grupo 156330" transform="translate(44.105 32.255)">
          <path id="Trazado_116529" data-name="Trazado 116529" d="M422.735,121.87a4.265,4.265,0,1,1-4.263-4.076A4.173,4.173,0,0,1,422.735,121.87Z" transform="translate(-375.622 -117.794)" fill="#0273bc"/>
          <path id="Trazado_116530" data-name="Trazado 116530" d="M431.18,121.87a4.264,4.264,0,1,1-4.258-4.076A4.172,4.172,0,0,1,431.18,121.87Z" transform="translate(-364.772 -117.794)" fill="#0273bc"/>
          <path id="Trazado_116534" data-name="Trazado 116534" d="M439.627,121.87a4.264,4.264,0,1,1-4.258-4.076A4.172,4.172,0,0,1,439.627,121.87Z" transform="translate(-353.923 -117.794)" fill="#0273bc"/>
          <path id="Trazado_99277" data-name="Trazado 99277" d="M448.074,121.87a4.264,4.264,0,1,1-4.263-4.076A4.173,4.173,0,0,1,448.074,121.87Z" transform="translate(-439.553 -117.794)" fill="#0273bc"/>
          <path id="Trazado_116535" data-name="Trazado 116535" d="M448.074,121.87a4.264,4.264,0,1,1-4.263-4.076A4.173,4.173,0,0,1,448.074,121.87Z" transform="translate(-343.074 -117.794)" fill="#0273bc"/>
          <path id="Trazado_99278" data-name="Trazado 99278" d="M456.52,121.87a4.264,4.264,0,1,1-4.258-4.076A4.172,4.172,0,0,1,456.52,121.87Z" transform="translate(-428.703 -117.794)" fill="#0273bc"/>
        </g>
        <g id="Grupo_156327" data-name="Grupo 156327" transform="translate(44.105 95.757)">
          <path id="Trazado_116551" data-name="Trazado 116551" d="M422.735,121.87a4.265,4.265,0,1,1-4.263-4.076A4.173,4.173,0,0,1,422.735,121.87Z" transform="translate(-375.622 -117.794)" fill="#0273bc"/>
          <path id="Trazado_116553" data-name="Trazado 116553" d="M431.18,121.87a4.264,4.264,0,1,1-4.258-4.076A4.172,4.172,0,0,1,431.18,121.87Z" transform="translate(-364.772 -117.794)" fill="#0273bc"/>
          <path id="Trazado_116555" data-name="Trazado 116555" d="M439.627,121.87a4.264,4.264,0,1,1-4.258-4.076A4.172,4.172,0,0,1,439.627,121.87Z" transform="translate(-353.923 -117.794)" fill="#0273bc"/>
          <path id="Trazado_116556" data-name="Trazado 116556" d="M448.074,121.87a4.264,4.264,0,1,1-4.263-4.076A4.173,4.173,0,0,1,448.074,121.87Z" transform="translate(-439.553 -117.794)" fill="#0273bc"/>
          <path id="Trazado_116557" data-name="Trazado 116557" d="M448.074,121.87a4.264,4.264,0,1,1-4.263-4.076A4.173,4.173,0,0,1,448.074,121.87Z" transform="translate(-343.074 -117.794)" fill="#0273bc"/>
          <path id="Trazado_116558" data-name="Trazado 116558" d="M456.52,121.87a4.264,4.264,0,1,1-4.258-4.076A4.172,4.172,0,0,1,456.52,121.87Z" transform="translate(-428.703 -117.794)" fill="#0273bc"/>
        </g>
        <g id="Grupo_156329" data-name="Grupo 156329" transform="translate(44.105 53.423)">
          <ellipse id="Elipse_4744" data-name="Elipse 4744" cx="4.26" cy="4.074" rx="4.26" ry="4.074" transform="translate(38.593 0.003)" fill="#0273bc"/>
          <path id="Trazado_116536" data-name="Trazado 116536" d="M431.18,129.378a4.264,4.264,0,1,1-4.258-4.076A4.168,4.168,0,0,1,431.18,129.378Z" transform="translate(-364.772 -125.302)" fill="#0273bc"/>
          <ellipse id="Elipse_4745" data-name="Elipse 4745" cx="4.26" cy="4.074" rx="4.26" ry="4.074" transform="translate(77.184 0.003)" fill="#0273bc"/>
          <path id="Trazado_99286" data-name="Trazado 99286" d="M448.074,129.378a4.264,4.264,0,1,1-4.263-4.076A4.17,4.17,0,0,1,448.074,129.378Z" transform="translate(-439.553 -125.302)" fill="#0273bc"/>
          <path id="Trazado_116537" data-name="Trazado 116537" d="M448.074,129.378a4.264,4.264,0,1,1-4.263-4.076A4.17,4.17,0,0,1,448.074,129.378Z" transform="translate(-343.074 -125.302)" fill="#0273bc"/>
          <path id="Trazado_99287" data-name="Trazado 99287" d="M456.52,129.378a4.264,4.264,0,1,1-4.258-4.076A4.168,4.168,0,0,1,456.52,129.378Z" transform="translate(-428.703 -125.302)" fill="#0273bc"/>
        </g>
        <g id="Grupo_156328" data-name="Grupo 156328" transform="translate(44.105 74.592)">
          <ellipse id="Elipse_4746" data-name="Elipse 4746" cx="4.26" cy="4.074" rx="4.26" ry="4.074" transform="translate(38.593 0.001)" fill="#0273bc"/>
          <path id="Trazado_116538" data-name="Trazado 116538" d="M431.18,136.886a4.264,4.264,0,1,1-4.258-4.076A4.168,4.168,0,0,1,431.18,136.886Z" transform="translate(-364.772 -132.81)" fill="#0273bc"/>
          <ellipse id="Elipse_4747" data-name="Elipse 4747" cx="4.26" cy="4.074" rx="4.26" ry="4.074" transform="translate(77.184 0.001)" fill="#0273bc"/>
          <path id="Trazado_99292" data-name="Trazado 99292" d="M448.074,136.886a4.264,4.264,0,1,1-4.263-4.076A4.17,4.17,0,0,1,448.074,136.886Z" transform="translate(-439.553 -132.81)" fill="#0273bc"/>
          <path id="Trazado_116539" data-name="Trazado 116539" d="M448.074,136.886a4.264,4.264,0,1,1-4.263-4.076A4.17,4.17,0,0,1,448.074,136.886Z" transform="translate(-343.074 -132.81)" fill="#0273bc"/>
          <path id="Trazado_99293" data-name="Trazado 99293" d="M456.52,136.886a4.264,4.264,0,1,1-4.258-4.076A4.168,4.168,0,0,1,456.52,136.886Z" transform="translate(-428.703 -132.81)" fill="#0273bc"/>
        </g>
      </g>
      <g id="_026---Periodic-Table" data-name="026---Periodic-Table" transform="translate(265 475.011)">
        <path id="Rectangle-path" d="M8,44.96H20.429V61.082H8Z" transform="translate(6.204 34.101)" fill="#805333"/>
        <path id="Rectangle-path-2" data-name="Rectangle-path" d="M43,44.96H55.429V61.082H43Z" transform="translate(33.348 34.101)" fill="#805333"/>
        <path id="Shape" d="M5.327,53H97.654a5.327,5.327,0,0,1,5.327,5.327v3.551a1.776,1.776,0,0,1-1.776,1.776H1.776A1.776,1.776,0,0,1,0,61.878V58.327A5.327,5.327,0,0,1,5.327,53Z" transform="translate(0 40.336)" fill="#cb8252"/>
        <path id="Shape-2" data-name="Shape" d="M65.695,8h35.511a1.776,1.776,0,0,1,1.776,1.776V73.695a1.776,1.776,0,0,1-1.776,1.776H1.776A1.776,1.776,0,0,1,0,73.695V9.776A1.776,1.776,0,0,1,1.776,8Z" transform="translate(0 5.437)" fill="#cbb292"/>
        <path id="Shape-3" data-name="Shape" d="M49.409,9.779v8.984a1.776,1.776,0,0,1-1.776,1.776H22.776A1.776,1.776,0,0,1,21,18.764V9.779A1.776,1.776,0,0,1,22.6,8a7.706,7.706,0,0,0,7.1-5.717,1.776,1.776,0,0,1,1.776-1.3h7.706a1.776,1.776,0,0,1,1.776,1.3A7.706,7.706,0,0,0,47.811,8.11,1.776,1.776,0,0,1,49.409,9.779Z" transform="translate(16.286 0)" fill="#805333"/>
        <g id="Grupo_878570" data-name="Grupo 878570" transform="translate(42.613 11.661)">
          <circle id="Oval" cx="1.776" cy="1.776" r="1.776" fill="#a56a43"/>
          <circle id="Oval-2" data-name="Oval" cx="1.776" cy="1.776" r="1.776" transform="translate(7.102)" fill="#a56a43"/>
          <circle id="Oval-3" data-name="Oval" cx="1.776" cy="1.776" r="1.776" transform="translate(14.204)" fill="#a56a43"/>
        </g>
        <path id="Rectangle-path-3" data-name="Rectangle-path" d="M49,26h8.878v8.878H49Z" transform="translate(38.001 19.397)" fill="#7d6599"/>
        <path id="Rectangle-path-4" data-name="Rectangle-path" d="M44,26h8.878v8.878H44Z" transform="translate(34.123 19.397)" fill="#2980ba"/>
        <path id="Rectangle-path-5" data-name="Rectangle-path" d="M34,26h8.878v8.878H34Z" transform="translate(26.368 19.397)" fill="#f0c419"/>
        <path id="Rectangle-path-6" data-name="Rectangle-path" d="M29,26h8.878v8.878H29Z" transform="translate(22.49 19.397)" fill="#f3d55b"/>
        <path id="Rectangle-path-7" data-name="Rectangle-path" d="M24,26h8.878v8.878H24Z" transform="translate(18.613 19.397)" fill="#f0c419"/>
        <path id="Rectangle-path-8" data-name="Rectangle-path" d="M14,26h8.878v8.878H14Z" transform="translate(10.857 19.397)" fill="#e57e25"/>
        <path id="Rectangle-path-9" data-name="Rectangle-path" d="M4,26h8.878v8.878H4Z" transform="translate(3.102 19.397)" fill="#c03a2b"/>
        <path id="Rectangle-path-10" data-name="Rectangle-path" d="M19,26h8.878v8.878H19Z" transform="translate(14.735 19.397)" fill="#f29c1f"/>
        <path id="Rectangle-path-11" data-name="Rectangle-path" d="M49,31h8.878v8.878H49Z" transform="translate(38.001 23.274)" fill="#5d4c72"/>
        <path id="Rectangle-path-12" data-name="Rectangle-path" d="M44,31h8.878v8.878H44Z" transform="translate(34.123 23.274)" fill="#3b97d3"/>
        <path id="Rectangle-path-13" data-name="Rectangle-path" d="M39,31h8.878v8.878H39Z" transform="translate(30.246 23.274)" fill="#14a085"/>
        <path id="Rectangle-path-14" data-name="Rectangle-path" d="M34,31h8.878v8.878H34Z" transform="translate(26.368 23.274)" fill="#f3d55b"/>
        <path id="Rectangle-path-15" data-name="Rectangle-path" d="M29,31h8.878v8.878H29Z" transform="translate(22.49 23.274)" fill="#f0c419"/>
        <path id="Rectangle-path-16" data-name="Rectangle-path" d="M24,31h8.878v8.878H24Z" transform="translate(18.613 23.274)" fill="#f3d55b"/>
        <path id="Rectangle-path-17" data-name="Rectangle-path" d="M19,31h8.878v8.878H19Z" transform="translate(14.735 23.274)" fill="#e57e25"/>
        <path id="Rectangle-path-18" data-name="Rectangle-path" d="M14,31h8.878v8.878H14Z" transform="translate(10.857 23.274)" fill="#f29c1f"/>
        <path id="Rectangle-path-19" data-name="Rectangle-path" d="M4,31h8.878v8.878H4Z" transform="translate(3.102 23.274)" fill="#e64c3c"/>
        <path id="Shape-4" data-name="Shape" d="M57.878,36v7.1A1.776,1.776,0,0,1,56.1,44.878H49V36Z" transform="translate(38.001 27.152)" fill="#7d6599"/>
        <path id="Rectangle-path-20" data-name="Rectangle-path" d="M44,36h8.878v8.878H44Z" transform="translate(34.123 27.152)" fill="#2980ba"/>
        <path id="Rectangle-path-21" data-name="Rectangle-path" d="M39,36h8.878v8.878H39Z" transform="translate(30.246 27.152)" fill="#26b99a"/>
        <path id="Rectangle-path-22" data-name="Rectangle-path" d="M34,36h8.878v8.878H34Z" transform="translate(26.368 27.152)" fill="#f0c419"/>
        <path id="Rectangle-path-23" data-name="Rectangle-path" d="M29,36h8.878v8.878H29Z" transform="translate(22.49 27.152)" fill="#f3d55b"/>
        <path id="Rectangle-path-24" data-name="Rectangle-path" d="M24,36h8.878v8.878H24Z" transform="translate(18.613 27.152)" fill="#f0c419"/>
        <path id="Rectangle-path-25" data-name="Rectangle-path" d="M14,36h8.878v8.878H14Z" transform="translate(10.857 27.152)" fill="#e57e25"/>
        <path id="Rectangle-path-26" data-name="Rectangle-path" d="M9,36h8.878v8.878H9Z" transform="translate(6.98 27.152)" fill="#f29c1f"/>
        <path id="Shape-5" data-name="Shape" d="M12.878,36v8.878h-7.1A1.776,1.776,0,0,1,4,43.1V36Z" transform="translate(3.102 27.152)" fill="#c03a2b"/>
        <path id="Rectangle-path-27" data-name="Rectangle-path" d="M19,36h8.878v8.878H19Z" transform="translate(14.735 27.152)" fill="#f29c1f"/>
        <path id="Shape-6" data-name="Shape" d="M17.878,22.776v7.1H9V21h7.1A1.776,1.776,0,0,1,17.878,22.776Z" transform="translate(6.98 15.519)" fill="#e57e25"/>
        <path id="Rectangle-path-28" data-name="Rectangle-path" d="M4,21h8.878v8.878H4Z" transform="translate(3.102 15.519)" fill="#e64c3c"/>
        <path id="Rectangle-path-29" data-name="Rectangle-path" d="M49,21h8.878v8.878H49Z" transform="translate(38.001 15.519)" fill="#5d4c72"/>
        <path id="Rectangle-path-30" data-name="Rectangle-path" d="M44,21h8.878v8.878H44Z" transform="translate(34.123 15.519)" fill="#3b97d3"/>
        <path id="Shape-7" data-name="Shape" d="M47.878,21v8.878H39v-7.1A1.776,1.776,0,0,1,40.776,21Z" transform="translate(30.246 15.519)" fill="#14a085"/>
        <path id="Shape-8" data-name="Shape" d="M57.878,17.776v7.1H49v-7.1A1.776,1.776,0,0,1,50.776,16H56.1A1.776,1.776,0,0,1,57.878,17.776Z" transform="translate(38.001 11.641)" fill="#7d6599"/>
        <path id="Shape-9" data-name="Shape" d="M12.878,17.776v7.1H4v-7.1A1.776,1.776,0,0,1,5.776,16H11.1A1.776,1.776,0,0,1,12.878,17.776Z" transform="translate(3.102 11.641)" fill="#c03a2b"/>
        <path id="Rectangle-path-31" data-name="Rectangle-path" d="M9,31h8.878v8.878H9Z" transform="translate(6.98 23.274)" fill="#e57e25"/>
        <path id="Rectangle-path-32" data-name="Rectangle-path" d="M9,26h8.878v8.878H9Z" transform="translate(6.98 19.397)" fill="#f29c1f"/>
        <path id="Rectangle-path-33" data-name="Rectangle-path" d="M39,26h8.878v8.878H39Z" transform="translate(30.246 19.397)" fill="#26b99a"/>
        <path id="Shape-10" data-name="Shape" d="M6.551,14.551H4.776a1.776,1.776,0,0,1,0-3.551H6.551a1.776,1.776,0,1,1,0,3.551Z" transform="translate(2.327 7.764)" fill="#f5efca"/>
        <path id="Shape-11" data-name="Shape" d="M23.98,14.551H9.776a1.776,1.776,0,0,1,0-3.551h14.2a1.776,1.776,0,0,1,0,3.551Z" transform="translate(6.204 7.764)" fill="#f5efca"/>
      </g>
    </g>
  </g>
</svg>
