<svg xmlns="http://www.w3.org/2000/svg" width="85" height="85" viewBox="0 0 85 85">
  <g id="Grupo_878807" data-name="Grupo 878807" transform="translate(-600.83 -5464)">
    <circle id="Elipse_5242" data-name="Elipse 5242" cx="42.5" cy="42.5" r="42.5" transform="translate(600.83 5464)" fill="#0273bc"/>
    <g id="elasticidad" transform="translate(616.83 5478.603)">
      <path id="Trazado_607463" data-name="Trazado 607463" d="M50.77,58.555H2.777a1.777,1.777,0,0,1,0-3.555H50.77a1.777,1.777,0,0,1,0,3.555Z" transform="translate(-0.111 -6.262)" fill="#fff" stroke="#fff" stroke-width="1"/>
      <path id="Trazado_607464" data-name="Trazado 607464" d="M26.773,50.109c-18.664,0-24.39-3.459-24.982-3.853a1.778,1.778,0,0,1,1.955-2.971c.134.084,5.571,3.269,23.027,3.269,17.6,0,22.983-3.239,23.035-3.271a1.789,1.789,0,0,1,2.447.533,1.767,1.767,0,0,1-.5,2.436c-.588.4-6.317,3.857-24.986,3.857Z" transform="translate(-0.11 -4.926)" fill="#fff" stroke="#fff" stroke-width="1"/>
      <g id="Grupo_878578" data-name="Grupo 878578" transform="translate(0 3.397)">
        <path id="Trazado_607470" data-name="Trazado 607470" d="M21.021,20.441h3.2a.889.889,0,0,0,.889-.889V8a.889.889,0,0,0-1.777,0V18.664H21.021a3,3,0,0,0-2.812,1.88,2.844,2.844,0,0,0,.691,3.166l7.643,7.428a3.055,3.055,0,0,0,4.246,0l7.636-7.424a2.844,2.844,0,0,0,.7-3.172,3,3,0,0,0-2.815-1.878H34v-16A2.666,2.666,0,0,0,31.331,0H26a2.666,2.666,0,0,0-2.666,2.666V4.444a.889.889,0,0,0,1.777,0V2.666A.889.889,0,0,1,26,1.777h5.332a.889.889,0,0,1,.889.889V19.552a.889.889,0,0,0,.889.889h3.2a1.217,1.217,0,0,1,1.161.763,1.089,1.089,0,0,1-.278,1.23l-7.643,7.432a1.267,1.267,0,0,1-1.763,0l-7.651-7.438A1.085,1.085,0,0,1,19.86,21.2a1.217,1.217,0,0,1,1.161-.763Z" transform="translate(-2.002)" fill="#fff" stroke="#fff" stroke-width="1"/>
      </g>
    </g>
  </g>
</svg>
