<svg xmlns="http://www.w3.org/2000/svg" xmlns:xlink="http://www.w3.org/1999/xlink" width="242" height="160" viewBox="0 0 242 160">
  <defs>
    <clipPath id="clip-path">
      <rect id="Rect치ngulo_48119" data-name="Rect치ngulo 48119" width="242" height="160" transform="translate(1073 4827)" fill="#e5f1f8"/>
    </clipPath>
    <linearGradient id="linear-gradient" x1="0.5" y1="1" x2="0.5" gradientUnits="objectBoundingBox">
      <stop offset="0" stop-color="#f9a992"/>
      <stop offset="0.74" stop-color="#fc9493"/>
    </linearGradient>
  </defs>
  <g id="Enmascarar_grupo_84" data-name="Enmascarar grupo 84" transform="translate(-1073 -4827)" clip-path="url(#clip-path)">
    <g id="Grupo_877834" data-name="Grupo 877834" transform="translate(1067.239 4731.873)">
      <rect id="Rect치ngulo_48143" data-name="Rect치ngulo 48143" width="253.504" height="233.398" transform="translate(0.019 20.939)" fill="#b9dcff"/>
      <g id="Grupo_877767" data-name="Grupo 877767" transform="translate(0.019 18.083)">
        <path id="Trazado_604800" data-name="Trazado 604800" d="M.148,1306.126a9.294,9.294,0,0,0,7.368,5.724l181.977,1.959c24.074,3.984,39.389-33.027,21.367-51.686-.156-.161-23.554-19.333-87.734-34.011-24.122-5.518-77.868-1.627-91.13,6.562-.108.068-3.5-5.561-3.611-5.491-12.642,7.894-23.74,16.367-28.236,35.778Z" transform="translate(-0.148 -1088.27)" fill="#4b83db"/>
        <path id="Trazado_604801" data-name="Trazado 604801" d="M731.31,815.409c4.532-1.387,8.913-3.4,10.542-8.081,3.279-9.417,3.84-28.241,7.215-40.15.9-3.171,3.36-9.868,3.266-10.105.354.168,48.441,23.232,39.706,37.729-.389.648-.763,1.337-1.117,2.06-2.308,4.7-3.854,10.859-4.892,17.153a98.669,98.669,0,0,0-1.144,10.747c3.4,1.033,6.785,4.557,10.364,5.679.165,2.969-2.892,36.256-33.187,31.244-24.848-4.111-38.4-41.737-38.66-45.226A32.989,32.989,0,0,0,731.31,815.409Z" transform="translate(-631.723 -679.188)" fill="#fabba5"/>
        <path id="Trazado_604802" data-name="Trazado 604802" d="M884.367,1002.6c-.075,2.824-3.6,16.5-4.048,19.678,11.536,55.724,51.542,30.729,51.956,31-8.193-6.231-10.569-8.843-8.118-14.484C913.1,1029.732,891.38,1002.7,884.367,1002.6Z" transform="translate(-768.747 -893.592)" fill="#ed938b"/>
        <g id="Grupo_877766" data-name="Grupo 877766" transform="translate(76.793)">
          <g id="Grupo_877760" data-name="Grupo 877760">
            <g id="Grupo_877759" data-name="Grupo 877759" transform="translate(9.898 15.801)">
              <path id="Trazado_604803" data-name="Trazado 604803" d="M1530.479,535.683s-1.728,22.831-5.492,28.738-3.512-27.991-3.512-27.991Z" transform="translate(-1415.316 -501.663)" fill="#752d4b"/>
              <path id="Trazado_604804" data-name="Trazado 604804" d="M843.035,499.732c2.546,7.529,16.958,23.566,26.828,27.142,6.5,2.357,16.364,6.423,23.057,3.683,5.672-2.322,26.425-28.943,26.935-45.1a101.8,101.8,0,0,1,5.513-24c5.377-13.529,1.557-38.931,1.557-38.931-31.773-37.857-75.2-5.621-81.766,9.252S833.18,470.587,843.035,499.732Z" transform="translate(-818.163 -387.356)" fill="#fabba5"/>
              <path id="Trazado_604805" data-name="Trazado 604805" d="M1012.491,726.241c-2.005.56-2.4-1.136-.776-2.481,3.858-3.194,8.719-6.5,21.572-4.133,12.074,2.222,11.87,9.226,5.056,8.882C1032.372,728.207,1025.8,722.525,1012.491,726.241Z" transform="translate(-969.297 -661.588)" fill="#752d4b"/>
              <path id="Trazado_604806" data-name="Trazado 604806" d="M1396.527,792.065c.927.57,2.37-2.852,1.891-4.061-1.137-2.869-3.9-5.729-10.55-4.552-7.3,1.292-8.246,5.523-4.41,5.58C1386.82,789.081,1390.371,788.279,1396.527,792.065Z" transform="translate(-1292.864 -717.787)" fill="#752d4b"/>
              <path id="Trazado_604807" data-name="Trazado 604807" d="M1340.413,874.913c1.945-1.257,5.652-3.332,9.235-2.674a6.731,6.731,0,0,1,2.279.829c1.275.737,2.705,2.612,4.317,4.081.583.536-5.413-12.211-14.722-4.046-.313.277-.641.576-.969.911-.353.364-.723.759-1.093,1.189C1338.564,876.247,1339.077,875.772,1340.413,874.913Z" transform="translate(-1255.986 -793.92)" fill="#752d4b"/>
              <path id="Trazado_604808" data-name="Trazado 604808" d="M1361.563,878.889a9.415,9.415,0,0,0-.273,2.392,4.158,4.158,0,0,0,.941,2.469,5.015,5.015,0,0,0,3.788,1.6,5.469,5.469,0,0,0,3.336-1.275,4.242,4.242,0,0,0,1.035-4.45c-.206-.437-.411-.873-.572-1.184-.132-.287-.221-.475-.221-.475l-3.6-.162-1.88-.333-.71.03-.633.651C1362.484,878.431,1361.863,878.548,1361.563,878.889Z" transform="translate(-1275.437 -800.122)" fill="#752d4b"/>
              <path id="Trazado_604809" data-name="Trazado 604809" d="M1097.6,830.352a4.825,4.825,0,1,0,9.373,2.251,5.177,5.177,0,0,0-.037-2.6,4.913,4.913,0,0,0-1.166-2.1c-1.766-.44-3.513-.816-5.163-1.119a5.047,5.047,0,0,0-2.593,2.428A5.2,5.2,0,0,0,1097.6,830.352Z" transform="translate(-1045.048 -755.868)" fill="#752d4b"/>
              <path id="Trazado_604810" data-name="Trazado 604810" d="M1045.79,819.852c-1.223,1.862,5.159-4.108,15.443.693a18.987,18.987,0,0,1,6.5,5.727c.62.81.913-.152.386-1.032-1.97-3.285-4.068-5.78-8.118-7.21C1053.046,815.577,1046.289,819.092,1045.79,819.852Z" transform="translate(-999.804 -747.471)" fill="#752d4b"/>
              <g id="Grupo_877753" data-name="Grupo 877753" transform="translate(71.294 69.702)">
                <path id="Trazado_604811" data-name="Trazado 604811" d="M1260.332,818.093c-3.7.879-6.16,4.24-7.038,7.958-.976,4.131.189,8.4,1.669,12.181,1.007,2.575,4,6.9,1.851,9.7-.944,1.231-2.63,1.546-4.011,1.83a25.193,25.193,0,0,1-5.889.472c-.583-.018-.606-.967-.02-.949a24.015,24.015,0,0,0,6.6-.644c1.827-.455,3.307-1.305,3.063-3.566a11.375,11.375,0,0,0-1.1-3.3,36.709,36.709,0,0,1-3.314-10.539c-.642-5.75,1.964-12.631,7.928-14.048.571-.136.828.77.254.906Z" transform="translate(-1246.465 -817.173)" fill="#cf8171"/>
              </g>
              <path id="Trazado_604812" data-name="Trazado 604812" d="M684.558,341.014c2.574,29.759,20.994,28.527,20.994,28.527-4.56-24.464,2.863-43.605,4.649-41.231,2.3,3.056,8.509,11.925,8.858,7.152s-2.342-12.546,5.72-21.054,6.1-21.818,6.1-21.818.036.026.115.08a.545.545,0,0,1,.071.052c.92.714-25.471-25.422-25.471-25.422C684.853,273.856,682.72,319.772,684.558,341.014Z" transform="translate(-684.037 -267.301)" fill="#752d4b"/>
              <path id="Trazado_604813" data-name="Trazado 604813" d="M868.241,905.07c.011-.275,21.179,4.773,32.253,4.671s14.667,1.281,18.216,4.375,15.235,8.2,15.235,8.2.569,15.972-5.665,28.443-20.2,20.225-29.892,18.465c-28.441-5.163-42.868-24.212-44.619-42.771C853.77,926.457,867.436,925.2,868.241,905.07Z" transform="translate(-832.254 -824.216)" fill="#5dcbcf"/>
              <g id="Grupo_877754" data-name="Grupo 877754" transform="translate(28.02 63.89)">
                <path id="Trazado_604814" data-name="Trazado 604814" d="M916.728,789.161c-2.458-2.258-3.256-5.593-4.178-8.675-.959-3.2-2.2-6.562-4.879-8.739a1.565,1.565,0,0,0-2.15,0,1.532,1.532,0,0,0,0,2.15c2.544,2.07,3.473,5.269,4.362,8.3.969,3.3,2.092,6.725,4.695,9.117,1.439,1.322,3.6-.823,2.15-2.15Z" transform="translate(-905.079 -771.319)" fill="#5dcbcf"/>
              </g>
              <g id="Grupo_877755" data-name="Grupo 877755" transform="translate(16.922 83.4)">
                <path id="Trazado_604815" data-name="Trazado 604815" d="M817.566,927.154c1.566,7.514,2.9,15.2,5.7,22.382a1.566,1.566,0,0,0,1.87,1.062,1.532,1.532,0,0,0,1.062-1.87c-2.8-7.177-4.137-14.868-5.7-22.382a1.521,1.521,0,1,0-2.932.808Z" transform="translate(-817.528 -925.234)" fill="#5dcbcf"/>
              </g>
              <g id="Grupo_877758" data-name="Grupo 877758" transform="translate(11.486 58.42)">
                <path id="Trazado_604816" data-name="Trazado 604816" d="M794.753,742.784s-4.567-17.018-14.457-12.536-4.228,18.521-2.12,23.891c2.257,5.748,4.24,6.266,10.681,6.133S794.753,742.784,794.753,742.784Z" transform="translate(-774.646 -729.328)" fill="#fabba5"/>
                <g id="Grupo_877756" data-name="Grupo 877756" transform="translate(0.016)">
                  <path id="Trazado_604817" data-name="Trazado 604817" d="M789.661,758.02c-2.848,3.15-7.469,1.783-9.8-1.157a19.263,19.263,0,0,1-2.96-6.4,48.944,48.944,0,0,1-1.954-8.333c-.59-4.753.082-10.89,4.862-13.168,4.707-2.243,9.608.512,11.92,4.847.3.567-.535,1.11-.838.541-2.15-4.031-6.862-6.716-11.179-4.214-4.34,2.515-4.357,8.733-3.615,13.113a37.844,37.844,0,0,0,3.469,11.327c1.741,3.217,6.269,6.2,9.4,2.743.436-.482,1.134.214.7.7Z" transform="translate(-774.77 -728.167)" fill="#ef9f8a"/>
                </g>
                <g id="Grupo_877757" data-name="Grupo 877757" transform="translate(9.891 5.021)">
                  <path id="Trazado_604818" data-name="Trazado 604818" d="M853.365,767.867a7.271,7.271,0,0,1,2.9,3.7c.542,1.868-.107,3.058-.98,4.635-1.649,2.977,1.287,4.359,2.329,6.754a3.534,3.534,0,0,1-.523,3.941c-.44.477-1.139-.218-.7-.7,2.4-2.606-2.842-5.693-2.685-8.591.065-1.2.849-1.841,1.371-2.842,1.246-2.391-.417-4.684-2.2-6.005-.5-.371-.026-1.273.482-.9Z" transform="translate(-852.671 -767.777)" fill="#ef9f8a"/>
                </g>
              </g>
              <path id="Trazado_604819" data-name="Trazado 604819" d="M1002.1,960.226s27.171,5.587,35.178,6.1,24.061,10.5,23.36,10.158-17.011-6.913-26.135-7.854S1002.1,960.226,1002.1,960.226Z" transform="translate(-961.784 -872.39)" fill="#39c6c4"/>
              <path id="Trazado_604820" data-name="Trazado 604820" d="M925.607,1105.913c.485.586,15.417,26.688,32.621,29.412s27.735-1.742,27.735-1.742-15.84,3.454-29.652-1.636S925.607,1105.913,925.607,1105.913Z" transform="translate(-894.985 -999.609)" fill="#39c6c4"/>
              <path id="Trazado_604821" data-name="Trazado 604821" d="M964.506,1068.151s21.441,14.531,35.089,17.6,26.363,1.119,26.235.463-10.116-.133-28.575-5.61S962.582,1066.883,964.506,1068.151Z" transform="translate(-928.817 -966.52)" fill="#39c6c4"/>
              <path id="Trazado_604822" data-name="Trazado 604822" d="M991.364,1024.422s29.247,4.992,35.259,6.748,21.658,6.921,21.658,6.921-19.9-5.906-25.278-6.947S989.377,1024.883,991.364,1024.422Z" transform="translate(-952.319 -928.448)" fill="#39c6c4"/>
            </g>
            <path id="Trazado_604823" data-name="Trazado 604823" d="M616.375,232.166s18.857-36.473,71.1-38.089a58.322,58.322,0,0,1,41.405,15.652s9.148-32.905.114-46.837c-3.178-4.9-60.889-30.43-92.98-15.731S597.782,196.54,616.375,232.166Z" transform="translate(-605.956 -142.651)" fill="#5dcbcf"/>
          </g>
          <g id="Grupo_877761" data-name="Grupo 877761" transform="translate(48.364 102.505)">
            <path id="Trazado_604824" data-name="Trazado 604824" d="M987.563,951.5a162.109,162.109,0,0,0,25.659,5.781q3.077.433,6.168.749a66.949,66.949,0,0,1,6.714.814,61.586,61.586,0,0,1,12.439,4.4c2.131.95,4.244,1.96,6.29,3.082a18.812,18.812,0,0,1,5.3,4.016c.085.1.228-.045.143-.143-2.6-3-6.433-4.715-9.959-6.366a79.971,79.971,0,0,0-11.927-4.632c-4.132-1.174-8.474-1.262-12.715-1.794q-6.839-.857-13.589-2.3-7.318-1.564-14.468-3.8c-.124-.039-.177.156-.054.195Z" transform="translate(-987.493 -951.298)" fill="#00bcb7"/>
          </g>
          <g id="Grupo_877762" data-name="Grupo 877762" transform="translate(41.135 117.344)">
            <path id="Trazado_604825" data-name="Trazado 604825" d="M930.474,1068.513a24.088,24.088,0,0,0,7.172,8.248c.105.076.206-.1.1-.174a23.873,23.873,0,0,1-7.1-8.176c-.061-.115-.235-.013-.174.1Z" transform="translate(-930.461 -1068.361)" fill="#00bcb7"/>
          </g>
          <g id="Grupo_877763" data-name="Grupo 877763" transform="translate(39.969 120.522)">
            <path id="Trazado_604826" data-name="Trazado 604826" d="M921.281,1093.582a80.952,80.952,0,0,0,7.972,10.94c3.177,3.47,7.049,6.13,10.858,8.847,3.756,2.679,7.437,5.557,11.755,7.283a40.037,40.037,0,0,0,12.609,2.565,115,115,0,0,0,15.226-.443c.129-.01.13-.212,0-.2-8.582.65-17.556,1.291-25.871-1.423-4.462-1.457-8.183-4.079-11.966-6.778-3.822-2.726-7.822-5.332-11.172-8.645-3.654-3.613-6.461-7.954-9.237-12.248-.07-.109-.245-.008-.174.1Z" transform="translate(-921.264 -1093.433)" fill="#00bcb7"/>
          </g>
          <g id="Grupo_877764" data-name="Grupo 877764" transform="translate(53.896 129.485)">
            <path id="Trazado_604827" data-name="Trazado 604827" d="M1031.179,1164.328a93.061,93.061,0,0,0,15.993,9.146,28.461,28.461,0,0,0,8.528,2.412,75.289,75.289,0,0,0,9.713.347,89.837,89.837,0,0,0,10.933-.908c.128-.019.074-.213-.053-.195a87.454,87.454,0,0,1-19.29.674,28.693,28.693,0,0,1-9.339-2.334,87.247,87.247,0,0,1-7.907-3.952,95.39,95.39,0,0,1-8.476-5.365c-.106-.075-.208.1-.1.174Z" transform="translate(-1031.134 -1164.135)" fill="#00bcb7"/>
          </g>
          <g id="Grupo_877765" data-name="Grupo 877765" transform="translate(59.705 118.051)">
            <path id="Trazado_604828" data-name="Trazado 604828" d="M1077.027,1074.14a265.846,265.846,0,0,0,27.016,8.666.1.1,0,0,0,.053-.195,265.869,265.869,0,0,1-27.015-8.666c-.122-.046-.174.149-.054.195Z" transform="translate(-1076.959 -1073.939)" fill="#00bcb7"/>
          </g>
        </g>
      </g>
      <g id="Grupo_877769" data-name="Grupo 877769" transform="translate(168.325 134.778)">
        <path id="Trazado_604829" data-name="Trazado 604829" d="M1536.8,1350.23l-1.84,1.153a2.085,2.085,0,0,1-2.866-.658l-36.985-59.038c-.607-.969-.971-6.067-.971-6.067l1.3-.816s4.425,2.553,5.033,3.522l36.985,59.038A2.085,2.085,0,0,1,1536.8,1350.23Z" transform="translate(-1473.067 -1256.719)" fill="#51497a"/>
        <g id="Grupo_877768" data-name="Grupo 877768">
          <path id="Trazado_604830" data-name="Trazado 604830" d="M1355.521,1099.7l-1.322.828-11.725-18.716a5.376,5.376,0,0,1-.8-2.449l-.817-11.036a3.812,3.812,0,0,0-3.794-3.517l-7.677.014a4.57,4.57,0,0,1-1.33-.453.28.28,0,0,1-.038-.486,2.843,2.843,0,0,1,1.218-.62l7.824-.014a5.377,5.377,0,0,1,5.352,4.962l.817,11.036a3.811,3.811,0,0,0,.569,1.736Z" transform="translate(-1327.893 -1063.246)" fill="#51497a"/>
        </g>
      </g>
      <g id="Grupo_877795" data-name="Grupo 877795">
        <path id="Trazado_604831" data-name="Trazado 604831" d="M.019,0h253.5V21.333s-10.758,4.055-27.174,9.062c-11.355,3.407-20.826,6.093-33.025,9.007-.6.18-16.474,4.015-32.88,6.539-15.132,2.293-31.222,3.8-46.485,2.758-27.067-1.851-55.918-9.016-81.815-17.928C12.81,24.122,0,18.221,0,18.221Z" fill="#fc8380"/>
        <g id="Grupo_877770" data-name="Grupo 877770" transform="translate(193.209 16.77)">
          <path id="Trazado_604832" data-name="Trazado 604832" d="M1556.351,161.649c-3.583,6.978-11.648,13.764-14.808,14.443-4.949,1.065-14.038-4.8-16.512-13.25a60.229,60.229,0,0,1-.763-12.8c.4-7.452,2.693-15.279,9.947-16.9,9.618-2.152,16.127.027,20.043,4.225,0,0,.237.261.3.328a17.773,17.773,0,0,1,3.953,8.327v0A24.858,24.858,0,0,1,1556.351,161.649Z" transform="translate(-1524.194 -132.295)" fill="#fff"/>
        </g>
        <g id="Grupo_877771" data-name="Grupo 877771" transform="translate(29.215 20.168)">
          <path id="Trazado_604833" data-name="Trazado 604833" d="M265.166,186.4h0a18.78,18.78,0,0,1-4.335,11.223c-5.042,5.735-12.915,6.215-20.338,4.554-7.643-1.71-9.756-10.268-10-18.087v0a60.773,60.773,0,0,1,.813-11.617,18.3,18.3,0,0,1,2.567-5.281h0s0,0,0,0c3.37-4.838,8.7-8,12.543-8.087a5.944,5.944,0,0,1,1.4.122c3.426.736,12.425,8.512,15.508,15.951A25.321,25.321,0,0,1,265.166,186.4Z" transform="translate(-230.469 -159.1)" fill="#fff"/>
        </g>
        <g id="Grupo_877772" data-name="Grupo 877772" transform="translate(29.236 20.168)">
          <path id="Trazado_604834" data-name="Trazado 604834" d="M265.341,183.676c0,2.968-2.724,8.177-4.344,10.666-5.035,5.728-12.38,6.5-19.926,5.4-8.959-1.314-10.34-14.124-10.36-14.46-.086-1.544-.092-3.056-.05-4.469a62.681,62.681,0,0,1,.813-8.335,18.318,18.318,0,0,1,2.567-5.282c0-.008.206-.285.206-.289,3.369-4.669,8.551-7.708,12.317-7.8a6.029,6.029,0,0,1,1.424.122c2.852.612,10.321,6.6,14.239,13.4a24.3,24.3,0,0,1,3.106,10.493C265.332,183.158,265.351,183.33,265.341,183.676Z" transform="translate(-230.635 -159.099)" fill="#f2eaeb"/>
        </g>
        <g id="Grupo_877773" data-name="Grupo 877773" transform="translate(193.206 16.246)">
          <path id="Trazado_604835" data-name="Trazado 604835" d="M1558.87,145.3h0a24.293,24.293,0,0,1-3.106,10.492c-3.806,6.6-11.238,12.757-14.24,13.4-3.335.717-6.983,3.136-10.781-1.09-.5-.554-2.516-5.974-2.959-6.588,0-.01,0,.013-.2-.289a18.576,18.576,0,0,1-2.567-5.284,62.577,62.577,0,0,1-.814-8.335c-.042-1.413-.035-2.926.051-4.469.019-.335,1.426-12.979,10.359-14.458,21.458-3.554,23.909,12.113,24.012,12.489A31.173,31.173,0,0,1,1558.87,145.3Z" transform="translate(-1524.173 -128.162)" fill="#f2eaeb"/>
        </g>
        <g id="Grupo_877775" data-name="Grupo 877775" transform="translate(226.339 6.131)">
          <g id="Grupo_877774" data-name="Grupo 877774">
            <path id="Trazado_604836" data-name="Trazado 604836" d="M1812.736,52.336V86.707c-8.837,4.324-23.662,2.754-24.116-.6-.371-1.147-1.052-3.651-1.59-6.206-2.772-13.1-.8-19.461-.8-19.785,1.25-5.683,4.35-9.852,10.134-11.086C1802.337,47.759,1808.415,48.03,1812.736,52.336Z" transform="translate(-1785.552 -48.365)" fill="#fff"/>
          </g>
        </g>
        <g id="Grupo_877777" data-name="Grupo 877777" transform="translate(226.332 6.131)">
          <g id="Grupo_877776" data-name="Grupo 877776">
            <path id="Trazado_604837" data-name="Trazado 604837" d="M1812.687,52.336V84.927c-10.847,2.486-24.394.775-24.879-2.349,0,0-.292-.79-.713-2.151-2.721-12.436-3.287-28.728,9.226-31.4C1802.288,47.759,1808.365,48.03,1812.687,52.336Z" transform="translate(-1785.496 -48.365)" fill="#f2eaeb"/>
          </g>
        </g>
        <g id="Grupo_877779" data-name="Grupo 877779" transform="translate(0.019 6.129)">
          <g id="Grupo_877778" data-name="Grupo 877778">
            <path id="Trazado_604838" data-name="Trazado 604838" d="M32.495,61.192c0,9.568-.728,22.855-8.192,28.807C19.737,93.64,13.779,93.687,8.118,92.45a12.69,12.69,0,0,1-7.969-5.2V51.173c2.906-4,25.017-4.82,30.9,4.748h0A9.861,9.861,0,0,1,32.495,61.192Z" transform="translate(-0.149 -48.351)" fill="#fff"/>
          </g>
        </g>
        <g id="Grupo_877781" data-name="Grupo 877781" transform="translate(0 5.404)">
          <g id="Grupo_877780" data-name="Grupo 877780">
            <path id="Trazado_604839" data-name="Trazado 604839" d="M32.346,56.195c0,6.479-.367,14.063-2.514,20.174C24.963,84.443,16.9,85.954,7.577,83.9A14.325,14.325,0,0,1,0,79.708V46.176c.768-2.542,19.926-7.8,29.494,2.952a17.337,17.337,0,0,1,1.405,1.8A9.86,9.86,0,0,1,32.346,56.195Z" transform="translate(0 -42.629)" fill="#f2eaeb"/>
          </g>
        </g>
        <path id="Trazado_604840" data-name="Trazado 604840" d="M533.629,171.341a21.3,21.3,0,0,1,10.5-.881c5.4,1.072,8.589,4.026,9.183,3.018s-4.447-6.558-9.1-6.717S531.22,172.02,533.629,171.341Z" transform="translate(-465.612 -145.619)" fill="#ff4f67" opacity="0.4"/>
        <path id="Trazado_604841" data-name="Trazado 604841" d="M312.969,75.77a21.3,21.3,0,0,1,10.531.452c5.221,1.745,8.012,5.077,8.729,4.152s-3.584-7.066-8.18-7.812S310.494,76.139,312.969,75.77Z" transform="translate(-272.926 -63.288)" fill="#ff4f67" opacity="0.4"/>
        <path id="Trazado_604842" data-name="Trazado 604842" d="M1310.811,121.366a21.294,21.294,0,0,0-10.54-.075c-5.3,1.482-8.255,4.671-8.925,3.711s3.932-6.878,8.56-7.394S1313.264,121.858,1310.811,121.366Z" transform="translate(-1127.596 -102.667)" fill="#ff4f67" opacity="0.4"/>
        <path id="Trazado_604843" data-name="Trazado 604843" d="M1036.017,141.231s-5.941-3.611-11.857-2.074-9.139,6.406-9.923,4.653,4.208-10.953,9.4-10.973S1038.792,142.521,1036.017,141.231Z" transform="translate(-885.599 -115.999)" fill="#ff4f67" opacity="0.4"/>
        <path id="Trazado_604844" data-name="Trazado 604844" d="M815.835,142.006s-5.249-4.559-11.34-4.039-10.087,4.777-10.564,2.918,5.99-10.089,11.108-9.236S818.353,143.744,815.835,142.006Z" transform="translate(-693.27 -114.907)" fill="#ff4f67" opacity="0.4"/>
        <path id="Trazado_604845" data-name="Trazado 604845" d="M1524.684,75.77a21.3,21.3,0,0,0-10.531.452c-5.22,1.745-8.012,5.077-8.729,4.152s3.584-7.066,8.18-7.812S1527.159,76.139,1524.684,75.77Z" transform="translate(-1314.526 -63.288)" fill="#ff4f67" opacity="0.4"/>
        <path id="Trazado_604846" data-name="Trazado 604846" d="M436.028,264.639c-.456,6.746-3.724,12.618-9.893,15.193,7.118-9.611,5.617-26.91,5.422-31.107v-.032a23.3,23.3,0,0,1,3.575,7.364,25.549,25.549,0,0,1,.918,5.3h0c.02.293.009.529.009.567A23.159,23.159,0,0,1,436.028,264.639Z" transform="translate(-372.118 -217.167)" fill="#e4d1d5"/>
        <g id="Grupo_877783" data-name="Grupo 877783" transform="translate(59.909 30.466)">
          <g id="Grupo_877782" data-name="Grupo 877782">
            <path id="Trazado_604847" data-name="Trazado 604847" d="M506.269,252.078c0,8.874-.717,20.915-7.673,26.334-4.28,3.339-9.893,3.365-15.161,2.241a11.916,11.916,0,0,1-8.179-5.86,17.4,17.4,0,0,1-1.955-5.226h0c-1.067-4.827-.736-10.1-.067-14.962a75.341,75.341,0,0,1,2.452-11.028C476.335,238.783,506.269,237.64,506.269,252.078Z" transform="translate(-472.613 -240.34)" fill="#fff"/>
          </g>
        </g>
        <g id="Grupo_877785" data-name="Grupo 877785" transform="translate(59.908 30.467)">
          <g id="Grupo_877784" data-name="Grupo 877784">
            <path id="Trazado_604848" data-name="Trazado 604848" d="M506.26,252.083c0,2.237-.05,4.572-.211,6.905-3.871,15.7-12.33,22.5-27.42,17.415a15.109,15.109,0,0,1-3.381-1.606h0c-3.209-5.534-2.953-13.642-2.052-19.983a76.375,76.375,0,0,1,2.482-11.232C476.326,238.792,506.26,237.643,506.26,252.083Z" transform="translate(-472.603 -240.346)" fill="#f2eaeb"/>
          </g>
        </g>
        <path id="Trazado_604849" data-name="Trazado 604849" d="M667.377,265.75c0,2.237-.05,4.572-.211,6.905-1.752,7.109-4.7,13.6-10.057,16.859,5.674-7.542,2.316-33.518,2.316-33.518C663.973,257.779,667.377,260.883,667.377,265.75Z" transform="translate(-573.812 -223.546)" fill="#e4d1d5"/>
        <g id="Grupo_877786" data-name="Grupo 877786" transform="translate(85.612 28.647)">
          <path id="Trazado_604850" data-name="Trazado 604850" d="M715.813,260.147v-.01c-.328-12.87-3.915-32.771-16.606-34.091-14.695-1.528-21.253,27.672-23.39,42.268,0,.013-.279,1.908-.409,3.076-1.153,7.57,35.276,9.176,38.639,4.019a14.528,14.528,0,0,0,1.279-4.7A66.39,66.39,0,0,0,715.813,260.147Z" transform="translate(-675.381 -225.989)" fill="#fff"/>
        </g>
        <g id="Grupo_877787" data-name="Grupo 877787" transform="translate(85.612 27.716)">
          <path id="Trazado_604851" data-name="Trazado 604851" d="M698.116,218.644c-15.911,0-16.931,14.2-18.755,26.123-.057.374.138-1.254-3.953,15.933-1.151,7.565,35.272,9.182,38.639,4.019a14.685,14.685,0,0,0,1.279-4.7,58.561,58.561,0,0,0,.487-6.294C715.93,249.477,714.752,218.644,698.116,218.644Z" transform="translate(-675.381 -218.644)" fill="#f2eaeb"/>
        </g>
        <path id="Trazado_604852" data-name="Trazado 604852" d="M965,380.04s-6.756,20.11-.925,25.616,3.408-21.539,3.408-21.539Z" transform="translate(-839.796 -331.866)" fill="#e4d1d5"/>
        <path id="Trazado_604853" data-name="Trazado 604853" d="M1530.741,271.322a19.717,19.717,0,0,1-5.73-8.876,60.7,60.7,0,0,1-.814-11.617c0-.146-.082-2.086.051-4.472A227.11,227.11,0,0,0,1530.741,271.322Z" transform="translate(-1330.966 -215.128)" fill="#e4d1d5"/>
        <g id="Grupo_877792" data-name="Grupo 877792" transform="translate(160.399 26.62)">
          <g id="Grupo_877789" data-name="Grupo 877789" transform="translate(0.005)">
            <g id="Grupo_877788" data-name="Grupo 877788">
              <path id="Trazado_604854" data-name="Trazado 604854" d="M1301.335,241.986c0,15.785-31.948,14.545-32.651,9.3-.233-.736-.733-2.52-1.234-4.673-2.214-9.57-4.028-24.387,2.384-31.766,0,0,0,0,0,0a12.74,12.74,0,0,1,7.121-4.117c6.257-1.367,10.924-.731,14.4,1.244C1300.445,217.043,1301.335,231.6,1301.335,241.986Z" transform="translate(-1265.403 -209.999)" fill="#fff"/>
            </g>
          </g>
          <g id="Grupo_877791" data-name="Grupo 877791" transform="translate(0 0)">
            <g id="Grupo_877790" data-name="Grupo 877790">
              <path id="Trazado_604855" data-name="Trazado 604855" d="M1301.3,241.987a10.139,10.139,0,0,1-.724,3.841c-10.1,6.832-31.9,5.075-32.523.9-.656-1.883-1.481-4.987-1.965-7.111-1.639-11.477.015-16.176.015-16.765,1.346-6.245,4.654-10.778,10.819-12.126,5.666-1.238,11.644-1.186,16.186,2.451C1300.317,218.935,1301.3,231.459,1301.3,241.987Z" transform="translate(-1265.363 -210)" fill="#f2eaeb"/>
            </g>
          </g>
          <path id="Trazado_604856" data-name="Trazado 604856" d="M1268.388,259.155a18.432,18.432,0,0,0,.95,4.974,1.857,1.857,0,0,1-.654-1.1c-.233-.736-.733-2.52-1.234-4.673-2.214-9.57-4.028-24.387,2.384-31.765,0,0,0,0,0,0a12.288,12.288,0,0,1,4.176-3.141C1271.806,229.238,1268.683,245.124,1268.388,259.155Z" transform="translate(-1265.398 -221.741)" fill="#e4d1d5"/>
        </g>
        <g id="Grupo_877793" data-name="Grupo 877793" transform="translate(124.45 28.445)">
          <path id="Trazado_604857" data-name="Trazado 604857" d="M1020.868,263.547a80.719,80.719,0,0,0-3.574-15.663c-4.036-12.122-11.251-24.4-21.485-23.435-11.75,1.113-13.757,20.644-14.016,32.419v.024a147.149,147.149,0,0,0,.533,15.817c.046.505.074.777.074.777.511,7.639,36.193,2.071,38.37-3.635C1021.17,268.8,1021.2,266.535,1020.868,263.547Z" transform="translate(-981.765 -224.395)" fill="#fff"/>
        </g>
        <g id="Grupo_877794" data-name="Grupo 877794" transform="translate(124.156 28.47)">
          <path id="Trazado_604858" data-name="Trazado 604858" d="M993.581,224.622c-7.919.379-11.519,9.651-13.087,19.676-.131-.887-1.12,9.018-1.043,12.743,0,2.8.535,11.1.693,11.1,2,6.951,36.464,1.443,38.6-4.111a2.93,2.93,0,0,0,.1-.312C1019.445,261.451,1019.071,223.4,993.581,224.622Z" transform="translate(-979.448 -224.593)" fill="#f2eaeb"/>
        </g>
      </g>
      <g id="Grupo_877797" data-name="Grupo 877797" transform="translate(20.592 149.862)">
        <path id="Trazado_604859" data-name="Trazado 604859" d="M163.679,1316.112l-1.033-2.458a2.56,2.56,0,0,1,1.364-3.342l78.833-33.129c1.294-.544,7.542.024,7.542.024l.731,1.74s-3.968,4.856-5.263,5.4l-78.833,33.129A2.56,2.56,0,0,1,163.679,1316.112Z" transform="translate(-162.448 -1264.943)" fill="#51497a"/>
        <g id="Grupo_877796" data-name="Grupo 877796" transform="translate(73.618)">
          <path id="Trazado_604860" data-name="Trazado 604860" d="M743.948,1202.271l-.742-1.765,40.644-17.08a15.066,15.066,0,0,1,6.049-1.185,12.062,12.062,0,0,1,8.254,3.435l6.788,6.547-1.329,1.378-6.788-6.547a10.154,10.154,0,0,0-6.946-2.9,13.193,13.193,0,0,0-5.286,1.035Z" transform="translate(-743.206 -1182.24)" fill="#51497a"/>
        </g>
      </g>
      <path id="Trazado_604861" data-name="Trazado 604861" d="M34.832,1480.02l-3.862,35.556,49.191.126L72.4,1495.48Z" transform="translate(-27.044 -1292.411)" fill="#7fb9ff"/>
      <g id="Grupo_877800" data-name="Grupo 877800" transform="translate(7.654 137.989)">
        <path id="Trazado_604862" data-name="Trazado 604862" d="M228.865,1320.77a12.7,12.7,0,0,1-3.566,6.633,12.281,12.281,0,0,1-7.818,3.389,12.887,12.887,0,0,1-6.419-1.285c-6.981-3.405-33.984-17.875-35.013-22.629-.622-2.87,4.684-8.536,8.982-12.575,2.818-2.647,5.2-4.594,5.2-4.594S220,1306.093,227.317,1316.3C228.531,1317.994,229.127,1319.519,228.865,1320.77Z" transform="translate(-161.344 -1264.214)" fill="#95c5ff"/>
        <path id="Trazado_604863" data-name="Trazado 604863" d="M291.724,1208.444a12.214,12.214,0,0,1-9.349,9.734,12.85,12.85,0,0,1-8.454-1c-6.981-3.406-33.983-17.875-35.011-22.629s14.184-17.168,14.184-17.168,30.641,16.862,37.389,27.033C291.487,1205.934,291.963,1207.3,291.724,1208.444Z" transform="translate(-216.236 -1166.126)" fill="#95c5ff"/>
        <path id="Trazado_604864" data-name="Trazado 604864" d="M98.567,1390.644s37.875,22.112,38.63,31.06c.388,4.6-9.914,6.909-16.895,3.505s-31-12.337-35.92-17.4C80.993,1404.326,98.567,1390.644,98.567,1390.644Z" transform="translate(-80.961 -1352.353)" fill="#95c5ff"/>
        <path id="Trazado_604865" data-name="Trazado 604865" d="M407.567,1122.68c-4.6,3.242-16.314-2.038-24.274-5.974-3.347-1.654-6.029-3.072-7.241-3.52-2.179-.8-12.11-3.25-20.931-5.364-7.763-1.86-14.663-3.46-14.663-3.46l5.7-15.668s25.51,2.389,39.343,10.636S414.1,1118.076,407.567,1122.68Z" transform="translate(-304.955 -1088.678)" fill="#95c5ff"/>
        <path id="Trazado_604866" data-name="Trazado 604866" d="M101.586,1088.59l-4.037,21.957S69.829,1149.9,63.8,1144.034s-2.865-12.353.157-16.389,2.624-10.137,6.379-11.942c1.214-.585,1.967-1.9,2.6-3.506,1.319-3.349,2.109-7.933,5.479-9.629a9.824,9.824,0,0,0,1.53-.953,0,0,0,0,1,0,0c2.918-2.216,4.088-5.665,6.006-8.384a11.417,11.417,0,0,1,1.625-1.879C91.036,1088.2,101.586,1088.59,101.586,1088.59Z" transform="translate(-60.384 -1088.575)" fill="#95c5ff"/>
        <path id="Trazado_604867" data-name="Trazado 604867" d="M421.974,1185.078c-3.347-1.654-6.029-3.072-7.241-3.52-2.179-.8-12.11-3.25-20.931-5.364-.141-.1-9.177-6.839-9.046-8.927.133-2.1,12.434,8.467,17.937,8.928S421.32,1180.648,421.974,1185.078Z" transform="translate(-343.636 -1157.051)" fill="#7fb9ff"/>
        <path id="Trazado_604868" data-name="Trazado 604868" d="M479.088,1390.87a12.213,12.213,0,0,1-9.349,9.734c-5.94-6.693-16.317-14.3-16.317-14.3,1.771-.306,9.72,6.62,17.62,7.421s6.8-6.879,6.8-6.879h0C478.851,1388.36,479.327,1389.729,479.088,1390.87Z" transform="translate(-403.6 -1348.552)" fill="#7fb9ff"/>
        <g id="Grupo_877798" data-name="Grupo 877798" transform="translate(37.598 28.546)">
          <path id="Trazado_604869" data-name="Trazado 604869" d="M385.713,1337.154a140.534,140.534,0,0,0-22.281-18.359c-2.221-1.474-4.6-2.84-6.248-4.986-.078-.1-.254,0-.175.1a18.753,18.753,0,0,0,4.8,4.064c2.02,1.323,4.02,2.67,5.979,4.082a139.636,139.636,0,0,1,11.7,9.431q3.127,2.812,6.081,5.809c.092.093.235-.05.143-.143Z" transform="translate(-356.989 -1313.767)" fill="#619ae5"/>
        </g>
        <path id="Trazado_604870" data-name="Trazado 604870" d="M294.205,1453.02a13.366,13.366,0,0,1-8.181,3.507,47.731,47.731,0,0,0-10.115-9.63c-2.751-1.853-20.562-13.037-21-13.335a53.84,53.84,0,0,0,13.627,5.6c6.8,1.51,12.625,8.943,14.567,10.783C284.779,1451.537,292.122,1450.966,294.205,1453.02Z" transform="translate(-230.25 -1389.83)" fill="#7fb9ff"/>
        <g id="Grupo_877799" data-name="Grupo 877799" transform="translate(22.804 42.206)">
          <path id="Trazado_604871" data-name="Trazado 604871" d="M240.314,1421.7c4.354,3.714,9.312,6.588,14.234,9.469,4.347,2.544,8.858,5.035,12.7,8.318a34.413,34.413,0,0,1,5.912,6.586c.074.106.249.005.175-.1a37.753,37.753,0,0,0-10.563-10.042c-4.586-3-9.425-5.593-14.081-8.482a67.191,67.191,0,0,1-8.237-5.89c-.1-.084-.242.058-.143.143Z" transform="translate(-240.281 -1421.531)" fill="#619ae5"/>
        </g>
        <path id="Trazado_604872" data-name="Trazado 604872" d="M145.994,1257.511c-1.007,2.185-7.064,2.91-7.064,2.91,1.214-.584,1.967-1.9,2.6-3.506a8.232,8.232,0,0,1,2.96-2.4C146.882,1253.7,147,1255.326,145.994,1257.511Z" transform="translate(-128.973 -1233.294)" fill="#7fb9ff"/>
        <path id="Trazado_604873" data-name="Trazado 604873" d="M214.725,1133.662a0,0,0,0,1,0,0c2.918-2.216,4.088-5.665,6.006-8.384a13.787,13.787,0,0,1,1.356,4.864C222.279,1131.973,214.725,1133.662,214.725,1133.662Z" transform="translate(-195.161 -1120.623)" fill="#7fb9ff"/>
      </g>
      <g id="Grupo_877804" data-name="Grupo 877804" transform="translate(177.782 164.447)">
        <path id="Trazado_604874" data-name="Trazado 604874" d="M1572.969,1488.435a9.523,9.523,0,0,0,1.271,5.5,9.207,9.207,0,0,0,4.987,3.993,9.661,9.661,0,0,0,4.9.336c5.722-1.087,28.108-6.23,29.79-9.466,1.016-1.953-1.705-7.1-4.018-10.867-1.517-2.47-2.859-4.349-2.859-4.349s-24.765,5.982-32.068,11.925A4.562,4.562,0,0,0,1572.969,1488.435Z" transform="translate(-1551.342 -1451.237)" fill="#95c5ff"/>
        <path id="Trazado_604875" data-name="Trazado 604875" d="M1549.652,1394.789a9.158,9.158,0,0,0,4.844,8.885,9.634,9.634,0,0,0,6.312.946c5.721-1.087,28.108-6.231,29.788-9.467s-6.875-15.216-6.875-15.216-25.49,6.157-32.377,12.184A4.2,4.2,0,0,0,1549.652,1394.789Z" transform="translate(-1530.98 -1369.461)" fill="#95c5ff"/>
        <path id="Trazado_604876" data-name="Trazado 604876" d="M1651.538,1564.151s-33.667,8.131-34.069,14.852a9.294,9.294,0,0,0,11.156,9.83c5.721-1.086,25.232-6.776,29.789-9.466C1661.554,1577.514,1651.538,1564.151,1651.538,1564.151Z" transform="translate(-1590.202 -1530.324)" fill="#95c5ff"/>
        <path id="Trazado_604877" data-name="Trazado 604877" d="M1710.782,1615.988s-37.661,9.637-37.992,15.171,6.7,8,11.138,6.188c5.347-2.187,15.284-3.3,22.5-7.226C1716.141,1624.828,1710.782,1615.988,1710.782,1615.988Z" transform="translate(-1638.517 -1575.59)" fill="#95c5ff"/>
        <path id="Trazado_604878" data-name="Trazado 604878" d="M1403.182,1311.26c2.69,3.253,12.2,1.742,18.737.464,2.748-.536,4.967-1.034,5.933-1.119,1.734-.152,9.4.037,16.2.247,5.982.185,11.289.388,11.289.388l-1.033-12.458s-18.925-3.3-30.557-.063S1399.363,1306.642,1403.182,1311.26Z" transform="translate(-1402.492 -1297.297)" fill="#95c5ff"/>
        <path id="Trazado_604879" data-name="Trazado 604879" d="M1801.54,1309.022l-1.409,16.68s12.293,33.932,17.808,30.877,4.508-8.371,3.118-11.887.1-7.85-2.26-9.9a4.559,4.559,0,0,1-1.189-3.048c-.294-2.682.038-6.154-2.065-8.046a7.368,7.368,0,0,1-.919-.991,0,0,0,0,0,0,0c-1.674-2.178-1.841-4.9-2.692-7.249a8.553,8.553,0,0,0-.8-1.68C1809.248,1310.823,1801.54,1309.022,1801.54,1309.022Z" transform="translate(-1749.726 -1307.536)" fill="#95c5ff"/>
        <path id="Trazado_604880" data-name="Trazado 604880" d="M1555.75,1370.927c2.748-.537,4.967-1.033,5.933-1.119,1.734-.152,9.4.037,16.2.247.122-.047,7.987-3.137,8.3-4.674s-10.664,3.673-14.736,2.922S1557.1,1367.851,1555.75,1370.927Z" transform="translate(-1536.323 -1356.499)" fill="#7fb9ff"/>
        <g id="Grupo_877801" data-name="Grupo 877801" transform="translate(34.762 46.75)">
          <path id="Trazado_604881" data-name="Trazado 604881" d="M1705.167,1666.105a131.316,131.316,0,0,0-28.4,11.147c-.086.046-.01.177.077.131a131.142,131.142,0,0,1,28.366-11.131.076.076,0,0,0-.04-.146Z" transform="translate(-1676.727 -1666.103)" fill="#619ae5"/>
        </g>
        <path id="Trazado_604882" data-name="Trazado 604882" d="M1549.652,1478.721a9.158,9.158,0,0,0,4.844,8.885c5.617-3.67,14.624-7.13,14.624-7.13-1.221-.57-8.336,2.872-14.209,1.894s-3.565-6.318-3.565-6.318h0A4.2,4.2,0,0,0,1549.652,1478.721Z" transform="translate(-1530.98 -1453.394)" fill="#7fb9ff"/>
        <g id="Grupo_877802" data-name="Grupo 877802" transform="translate(23.369 22.802)">
          <path id="Trazado_604883" data-name="Trazado 604883" d="M1586.957,1488.6a105.49,105.49,0,0,1,12.858-6.339q3.195-1.311,6.471-2.41c2.038-.683,4.181-1.214,5.927-2.526.077-.058,0-.19-.077-.131-1.842,1.383-4.138,1.914-6.284,2.643q-3.335,1.133-6.589,2.488a106.072,106.072,0,0,0-12.383,6.143.076.076,0,0,0,.077.131Z" transform="translate(-1586.843 -1477.176)" fill="#619ae5"/>
        </g>
        <path id="Trazado_604884" data-name="Trazado 604884" d="M1583.136,1590.556a10.022,10.022,0,0,0,5.227,4.15,35.782,35.782,0,0,1,9.216-4.972c2.356-.8,17.445-5.377,17.821-5.506a40.375,40.375,0,0,1-10.962,1.365c-5.215-.248-10.9,3.98-12.664,4.928C1590.248,1591.342,1585.048,1589.481,1583.136,1590.556Z" transform="translate(-1560.237 -1547.856)" fill="#7fb9ff"/>
        <g id="Grupo_877803" data-name="Grupo 877803" transform="translate(28.047 35.61)">
          <path id="Trazado_604885" data-name="Trazado 604885" d="M1652.372,1578.228c-5.067,2.38-10.584,3.558-15.942,5.085a49.4,49.4,0,0,0-6.415,2.181,26.142,26.142,0,0,0-6.242,3.911c-.075.063.033.17.107.107,8.085-6.765,19.3-6.8,28.568-11.154.088-.042.011-.172-.077-.131Z" transform="translate(-1623.747 -1578.22)" fill="#619ae5"/>
        </g>
        <path id="Trazado_604886" data-name="Trazado 604886" d="M1910.98,1469.059c.3,1.779,4.536,3.5,4.536,3.5a4.559,4.559,0,0,1-1.189-3.048,6.173,6.173,0,0,0-1.669-2.319C1911.089,1466.125,1910.684,1467.28,1910.98,1469.059Z" transform="translate(-1846.445 -1445.297)" fill="#7fb9ff"/>
        <path id="Trazado_604887" data-name="Trazado 604887" d="M1882.317,1367.046a0,0,0,0,0,0,0c-1.674-2.178-1.841-4.9-2.692-7.249a10.337,10.337,0,0,0-1.94,3.251C1877.186,1364.334,1882.317,1367.046,1882.317,1367.046Z" transform="translate(-1817.418 -1351.872)" fill="#7fb9ff"/>
      </g>
      <g id="Grupo_877830" data-name="Grupo 877830" transform="translate(0 192.894)">
        <path id="Trazado_604888" data-name="Trazado 604888" d="M0,1716.326H253.523V1689.94s-82.883-38.643-139.563-33.85S0,1693.788,0,1693.788Z" transform="translate(0 -1638.696)" fill="url(#linear-gradient)"/>
        <g id="Grupo_877805" data-name="Grupo 877805" transform="translate(100.636 0.445)">
          <path id="Trazado_604889" data-name="Trazado 604889" d="M820.636,1537.97c-.208,8.615-2.46,22.861-10.979,23.8-7.385.811-11.416-10.865-13.238-18.068a106.188,106.188,0,0,1-2.5-13.584c-.763-5.288,23.323-6.4,25.545-2.805a10.6,10.6,0,0,1,.845,3.282A52.1,52.1,0,0,1,820.636,1537.97Z" transform="translate(-793.905 -1525.219)" fill="#fff"/>
        </g>
        <g id="Grupo_877806" data-name="Grupo 877806" transform="translate(100.637 3.425)">
          <path id="Trazado_604890" data-name="Trazado 604890" d="M808.938,1582.987c-10.519,0-11.193-9.91-12.4-18.235-.046-.318.085.847-2.614-11.122-.763-5.3,23.77-6.5,25.638-2.635a4.754,4.754,0,0,1,.288.763,15.392,15.392,0,0,1,.465,2.349,43.114,43.114,0,0,1,.322,4.393C820.714,1561.464,819.936,1582.987,808.938,1582.987Z" transform="translate(-793.907 -1548.729)" fill="#f2eaeb"/>
        </g>
        <g id="Grupo_877807" data-name="Grupo 877807" transform="translate(126.102)">
          <path id="Trazado_604891" data-name="Trazado 604891" d="M1004.163,1558.542c-6.163-.611-8.134-9.178-8.864-15.339-.31-2.628-.477-5.933-.477-7.307a108.5,108.5,0,0,1,.4-11.583c.341-5.333,24.123-1.445,25.573,2.538C1022.262,1530.885,1016.442,1559.76,1004.163,1558.542Z" transform="translate(-994.803 -1521.71)" fill="#fff"/>
        </g>
        <g id="Grupo_877808" data-name="Grupo 877808" transform="translate(126.121 4.18)">
          <path id="Trazado_604892" data-name="Trazado 604892" d="M1019.846,1570.7c-.3,1.263,1.3,17.488-15.553,16.637-5.235-.264-7.616-6.737-8.652-13.735a62.4,62.4,0,0,1-.689-8.912c.062-2.994.249-5.877.4-7.4a1.755,1.755,0,0,1,.053-.331h0c1.324-4.847,24.105-1.012,25.519,2.869a2.1,2.1,0,0,1,.065.218C1021.391,1561.632,1021,1565.85,1019.846,1570.7Z" transform="translate(-994.951 -1554.689)" fill="#f2eaeb"/>
        </g>
        <g id="Grupo_877809" data-name="Grupo 877809" transform="translate(77.67 3.809)">
          <path id="Trazado_604893" data-name="Trazado 604893" d="M638.123,1567.872c0,6.654-.961,16.692-7.242,18.777-14.456,4.8-18.152-9.486-18.152-24.734a8.827,8.827,0,0,1,.188-1.846v0c2.233-10.539,23.637-9.437,24.127-5.51A87.545,87.545,0,0,1,638.123,1567.872Z" transform="translate(-612.729 -1551.756)" fill="#fff"/>
        </g>
        <g id="Grupo_877810" data-name="Grupo 877810" transform="translate(77.666 7.057)">
          <path id="Trazado_604894" data-name="Trazado 604894" d="M637.881,1595.3c-.567,6.312-2.4,12.189-7.029,13.726-6.605,2.194-11.825.677-14.957-5.725a2.32,2.32,0,0,1-.754,1.506,38.749,38.749,0,0,1-2.106-9.857,60.11,60.11,0,0,1-.25-8.664c1.541-11.169,23.735-10.108,24.23-6.1a86.358,86.358,0,0,1,1.06,11.6C638.075,1592.8,637.881,1595.285,637.881,1595.3Z" transform="translate(-612.695 -1577.378)" fill="#f2eaeb"/>
        </g>
        <path id="Trazado_604895" data-name="Trazado 604895" d="M478.326,1956.7H306.615c-.186,0,4.521-7.64,15.219-14.6,12.838-8.35,34.305-15.717,66.3-7.718a11.63,11.63,0,0,0,5.14.117c10.507-2.137,50.867-8.9,73.471,7.936A36.418,36.418,0,0,1,478.326,1956.7Z" transform="translate(-267.743 -1879.067)" fill="#ff4f67"/>
        <path id="Trazado_604896" data-name="Trazado 604896" d="M478.326,2033.554H306.615c-.186,0,4.521-7.64,15.219-14.6,7.207,2.326,36.014,10.793,74.539,11.258,37.2.448,62.838-8.062,70.376-10.923A36.418,36.418,0,0,1,478.326,2033.554Z" transform="translate(-267.743 -1955.924)" fill="#e93a5b"/>
        <path id="Trazado_604897" data-name="Trazado 604897" d="M845.394,1823.941a13.933,13.933,0,0,0,8.075,2.243c4.307-.359,7.088-2.871,7.447-1.794s-4.127,5.922-7.761,5.473S843.592,1822.954,845.394,1823.941Z" transform="translate(-737.94 -1785.541)" fill="#ff4f67" opacity="0.4"/>
        <path id="Trazado_604898" data-name="Trazado 604898" d="M1004.5,1823.941a13.932,13.932,0,0,0,8.075,2.243c4.307-.359,7.088-2.871,7.447-1.794s-4.127,5.922-7.761,5.473S1002.695,1822.954,1004.5,1823.941Z" transform="translate(-876.875 -1785.541)" fill="#ff4f67" opacity="0.4"/>
        <path id="Trazado_604899" data-name="Trazado 604899" d="M666.623,1841.359a13.933,13.933,0,0,0,8.287,1.248c4.231-.878,6.688-3.709,7.175-2.684s-3.379,6.378-7.04,6.373S664.714,1840.6,666.623,1841.359Z" transform="translate(-581.827 -1799.393)" fill="#ff4f67" opacity="0.4"/>
        <path id="Trazado_604900" data-name="Trazado 604900" d="M477.479,1868.7a21.3,21.3,0,0,0,10.54.075c5.3-1.482,8.256-4.671,8.925-3.712s-3.932,6.879-8.56,7.394S475.026,1868.2,477.479,1868.7Z" transform="translate(-416.581 -1821.382)" fill="#ff4f67" opacity="0.4"/>
        <path id="Trazado_604901" data-name="Trazado 604901" d="M277.468,1911.2a21.3,21.3,0,0,0,10.531-.452c5.221-1.745,8.012-5.077,8.729-4.152s-3.584,7.066-8.18,7.812S274.993,1910.835,277.468,1911.2Z" transform="translate(-241.925 -1857.672)" fill="#ff4f67" opacity="0.4"/>
        <path id="Trazado_604902" data-name="Trazado 604902" d="M76.252,2001.736a26.057,26.057,0,0,0,12.693-2.3c6.04-2.983,8.87-7.487,9.893-6.484s-3.171,9.162-8.62,10.83S73.19,2001.7,76.252,2001.736Z" transform="translate(-66.143 -1933.095)" fill="#ff4f67" opacity="0.4"/>
        <path id="Trazado_604903" data-name="Trazado 604903" d="M1198.907,1841.359a13.933,13.933,0,0,1-8.288,1.248c-4.231-.878-6.688-3.709-7.174-2.684s3.379,6.378,7.04,6.373S1200.816,1840.6,1198.907,1841.359Z" transform="translate(-1033.394 -1799.393)" fill="#ff4f67" opacity="0.4"/>
        <path id="Trazado_604904" data-name="Trazado 604904" d="M1404.158,1873.153a21.3,21.3,0,0,1-10.54.074c-5.3-1.482-8.255-4.671-8.925-3.711s3.932,6.879,8.56,7.394S1406.612,1872.661,1404.158,1873.153Z" transform="translate(-1209.111 -1825.273)" fill="#ff4f67" opacity="0.4"/>
        <path id="Trazado_604905" data-name="Trazado 604905" d="M1579.539,1929.676a21.3,21.3,0,0,1-10.531-.452c-5.221-1.745-8.012-5.077-8.729-4.153s3.584,7.066,8.18,7.812S1582.014,1929.307,1579.539,1929.676Z" transform="translate(-1362.428 -1873.802)" fill="#ff4f67" opacity="0.4"/>
        <path id="Trazado_604906" data-name="Trazado 604906" d="M1759.152,1997.815a26.061,26.061,0,0,1-12.693-2.3c-6.04-2.983-8.871-7.486-9.893-6.484s3.171,9.162,8.62,10.83S1762.214,1997.778,1759.152,1997.815Z" transform="translate(-1516.302 -1929.671)" fill="#ff4f67" opacity="0.4"/>
        <path id="Trazado_604907" data-name="Trazado 604907" d="M624.116,1694.286a11.453,11.453,0,0,1-5.884-5.975,2.32,2.32,0,0,1-.754,1.506,38.749,38.749,0,0,1-2.106-9.857l2.516-5.229S619.1,1689.648,624.116,1694.286Z" transform="translate(-537.367 -1655.334)" fill="#e4d1d5"/>
        <g id="Grupo_877812" data-name="Grupo 877812" transform="translate(49.498 4.619)">
          <g id="Grupo_877811" data-name="Grupo 877811">
            <path id="Trazado_604908" data-name="Trazado 604908" d="M421.922,1579.861c0,7.574-1.686,16.527-9.069,18.218-6.8,1.558-13.873,1.053-18.4-4.219-4.7-5.537-4.935-14.191-2.26-20.813,2.711-6.729,10.828-14.08,14.03-14.785,4.473-.986,12.694,4.434,14.939,12.282A57.859,57.859,0,0,1,421.922,1579.861Z" transform="translate(-390.481 -1558.146)" fill="#fff"/>
          </g>
        </g>
        <g id="Grupo_877814" data-name="Grupo 877814" transform="translate(49.499 8.611)">
          <g id="Grupo_877813" data-name="Grupo 877813">
            <path id="Trazado_604909" data-name="Trazado 604909" d="M412.964,1625.712c-6.768,1.7-13.977.925-18.5-4.347a19.24,19.24,0,0,1-.852,2.892c-4.29-6.085-4-15.625-.108-22.346,3.486-6.012,10.052-11.562,12.73-12.151,3.42-.754,9,2.224,12.447,7.142.039.052.127.182.168.242h0a17.1,17.1,0,0,1,2.323,4.9C424.059,1617.919,418.215,1624.393,412.964,1625.712Z" transform="translate(-390.489 -1589.643)" fill="#f2eaeb"/>
          </g>
        </g>
        <path id="Trazado_604910" data-name="Trazado 604910" d="M412.362,1757.93a13.858,13.858,0,0,1-6.936-4.347,19.244,19.244,0,0,1-.852,2.892,15.244,15.244,0,0,1-1.242-2.109h0q-.151-.309-.288-.626c.206-.86.416-1.782.622-2.723,1.042-4.745,2-9.962,2-9.962S406.26,1753.915,412.362,1757.93Z" transform="translate(-351.953 -1713.25)" fill="#e4d1d5"/>
        <g id="Grupo_877815" data-name="Grupo 877815" transform="translate(23.648 13.242)">
          <path id="Trazado_604911" data-name="Trazado 604911" d="M207.209,1663.541c-4.559,1-9.391,1.019-13.194-1.686-6.8-4.834-7.463-16.4-7.463-24.8a8.354,8.354,0,0,1,1.226-4.466h0c5.289-8.592,25.929-7.282,26.44-3.414a74.581,74.581,0,0,1,2.244,10.4.145.145,0,0,1,0,.023C217.856,1649.624,217.1,1661.378,207.209,1663.541Z" transform="translate(-186.552 -1626.175)" fill="#fff"/>
        </g>
        <g id="Grupo_877816" data-name="Grupo 877816" transform="translate(21.225 15.905)">
          <path id="Trazado_604912" data-name="Trazado 604912" d="M195.079,1679.8a11.155,11.155,0,0,1-4.558,2.085c-4.289.937-8.9,1.03-12.636-1.314a28.058,28.058,0,0,1-.818,3.5c-8.733-3.785-9.625-16.415-9.625-26.013,0-13.386,27.08-12.319,27.668-7.88a76.7,76.7,0,0,1,2.246,10.421C198.194,1666.648,198.431,1674.7,195.079,1679.8Z" transform="translate(-167.441 -1647.186)" fill="#f2eaeb"/>
        </g>
        <path id="Trazado_604913" data-name="Trazado 604913" d="M241.524,1808.715a12.765,12.765,0,0,1-5.491-1.832v0a26.317,26.317,0,0,1-.777,3.363l-.28.031-.946.106s0-.21.005-.587c.038-3.849.295-25.036,1.37-15.548C236.319,1802.307,239.934,1807,241.524,1808.715Z" transform="translate(-204.365 -1757.589)" fill="#e4d1d5"/>
        <g id="Grupo_877817" data-name="Grupo 877817" transform="translate(0 18.685)">
          <path id="Trazado_604914" data-name="Trazado 604914" d="M31.669,1699.722v0c-1.166,7.045-4.6,12.392-11.493,14.145a35.139,35.139,0,0,1-10.438,1.277h0c-3.775-.2-7.148-1.343-9.734-4.082v-37.846c6.81-4.554,18.738-4.862,24.874-3.136h0c1.344.366,3.218,1.009,3.877,2.622a84.183,84.183,0,0,1,2.432,10.265C33.009,1693.756,31.669,1699.382,31.669,1699.722Z" transform="translate(0 -1669.112)" fill="#fff"/>
        </g>
        <g id="Grupo_877818" data-name="Grupo 877818" transform="translate(0 22.208)">
          <path id="Trazado_604915" data-name="Trazado 604915" d="M31.745,1723.015h0c-.977,7.446-4.391,13.283-11.64,15.126a35.146,35.146,0,0,1-10.438,1.277h0A13.835,13.835,0,0,1,0,1735.41v-34.4c9.184-6.1,26.856-4.653,28.439-.5.306.913.872,2.975,1.1,3.9C31,1710.2,32.086,1717.367,31.745,1723.015Z" transform="translate(0 -1696.909)" fill="#f2eaeb"/>
        </g>
        <path id="Trazado_604916" data-name="Trazado 604916" d="M7.712,1914.845a14.859,14.859,0,0,1-4.036-1.182A12,12,0,0,1,.682,1911.7c-.237-.213-.466-.435-.682-.665v-13.007C.034,1900.285.557,1911.509,7.712,1914.845Z" transform="translate(0 -1850.325)" fill="#e4d1d5"/>
        <g id="Grupo_877829" data-name="Grupo 877829" transform="translate(150.458 3.977)">
          <g id="Grupo_877819" data-name="Grupo 877819">
            <path id="Trazado_604917" data-name="Trazado 604917" d="M1186.939,1569.2c0,.509.005,1.021.019,1.537v.011c.008.369.022.739.038,1.109.034.8.085,1.593.156,2.385v.009c.567,6.312,2.4,12.189,7.029,13.726,7.839,2.6,12.379-.454,14.958-5.725.113-.23.221-.463.326-.7h0c.151-.339.292-.685.428-1.039,1.669-4.37,2.27-9.827,2.408-14.818v0c.005-.182.009-.365.013-.545.014-.643.02-1.278.02-1.9a8.816,8.816,0,0,0-.188-1.846h0v0c-1.957-9.236-18.632-9.531-23.059-6.822a1.963,1.963,0,0,0-1.067,1.312s0,0,0,0c-.005.03-.034.2-.078.491-.16,1.03-.523,3.577-.766,6.809-.039.538-.077,1.093-.109,1.665v.015C1186.987,1566.241,1186.937,1567.7,1186.939,1569.2Z" transform="translate(-1186.939 -1553.083)" fill="#fff"/>
          </g>
          <g id="Grupo_877820" data-name="Grupo 877820" transform="translate(0.019 3.248)">
            <path id="Trazado_604918" data-name="Trazado 604918" d="M1187.282,1596.624c.566,6.312,2.4,12.189,7.029,13.726,6.605,2.194,11.825.677,14.958-5.725a2.319,2.319,0,0,0,.754,1.506,38.738,38.738,0,0,0,2.106-9.857,60.143,60.143,0,0,0,.25-8.664c-1.541-11.169-23.736-10.107-24.23-6.1a86.365,86.365,0,0,0-1.061,11.605C1187.088,1594.131,1187.282,1596.611,1187.282,1596.624Z" transform="translate(-1187.088 -1578.704)" fill="#f2eaeb"/>
          </g>
          <path id="Trazado_604919" data-name="Trazado 604919" d="M1315.649,1695.613a11.452,11.452,0,0,0,5.884-5.975,2.319,2.319,0,0,0,.754,1.506,38.748,38.748,0,0,0,2.106-9.857l-2.515-5.228S1320.662,1690.975,1315.649,1695.613Z" transform="translate(-1299.334 -1660.47)" fill="#e4d1d5"/>
          <g id="Grupo_877822" data-name="Grupo 877822" transform="translate(22.125 0.81)">
            <g id="Grupo_877821" data-name="Grupo 877821">
              <path id="Trazado_604920" data-name="Trazado 604920" d="M1361.483,1581.188c0,7.574,1.686,16.527,9.069,18.219,6.8,1.558,13.873,1.052,18.4-4.219,4.7-5.537,4.935-14.192,2.26-20.813-2.711-6.729-10.828-14.08-14.03-14.785-4.473-.986-12.694,4.434-14.939,12.282A57.835,57.835,0,0,0,1361.483,1581.188Z" transform="translate(-1361.483 -1559.474)" fill="#fff"/>
            </g>
          </g>
          <g id="Grupo_877824" data-name="Grupo 877824" transform="translate(22.125 4.803)">
            <g id="Grupo_877823" data-name="Grupo 877823">
              <path id="Trazado_604921" data-name="Trazado 604921" d="M1361.483,1612.684c0,.863.659,4.593.814,4.191,1.082,4.77,3.449,8.935,8.255,10.036,6.8,1.558,13.873,1.053,18.4-4.219a19.25,19.25,0,0,0,.852,2.892c4.311-6.114,3.976-15.662.108-22.346-3.486-6.012-10.052-11.562-12.73-12.151-3.42-.754-9,2.223-12.448,7.142-.039.052-.127.181-.168.242a17.3,17.3,0,0,0-2.323,4.9A58.424,58.424,0,0,0,1361.483,1612.684Z" transform="translate(-1361.483 -1590.97)" fill="#f2eaeb"/>
            </g>
          </g>
          <path id="Trazado_604922" data-name="Trazado 604922" d="M1523.445,1759.257a13.858,13.858,0,0,0,6.936-4.347,19.226,19.226,0,0,0,.852,2.892,15.236,15.236,0,0,0,1.242-2.109h0q.151-.309.288-.626c-.206-.86-.416-1.782-.622-2.723-1.042-4.745-2-9.962-2-9.962S1529.547,1755.241,1523.445,1759.257Z" transform="translate(-1480.789 -1718.386)" fill="#e4d1d5"/>
          <g id="Grupo_877825" data-name="Grupo 877825" transform="translate(48.97 9.433)">
            <path id="Trazado_604923" data-name="Trazado 604923" d="M1583.043,1664.868c4.559,1,9.391,1.019,13.194-1.686,6.8-4.834,7.463-16.4,7.463-24.8a8.353,8.353,0,0,0-1.226-4.465h0c-5.289-8.592-25.929-7.282-26.44-3.415a76.348,76.348,0,0,0-2.246,10.421C1572.4,1650.952,1573.152,1662.7,1583.043,1664.868Z" transform="translate(-1573.252 -1627.502)" fill="#fff"/>
          </g>
          <g id="Grupo_877826" data-name="Grupo 877826" transform="translate(51.393 12.097)">
            <path id="Trazado_604924" data-name="Trazado 604924" d="M1595.18,1681.131a11.159,11.159,0,0,0,4.558,2.085c4.288.937,8.9,1.03,12.636-1.313a28.063,28.063,0,0,0,.818,3.5c8.739-3.787,9.625-16.436,9.625-26.013,0-13.387-27.08-12.318-27.667-7.88a76.393,76.393,0,0,0-2.246,10.421C1592.065,1667.975,1591.828,1676.029,1595.18,1681.131Z" transform="translate(-1592.371 -1648.513)" fill="#f2eaeb"/>
          </g>
          <path id="Trazado_604925" data-name="Trazado 604925" d="M1706.854,1810.159a12.768,12.768,0,0,0,5.491-1.832,27.1,27.1,0,0,0,.776,3.366l1.226.137c-.054-8.5-.411-24.642-1.375-16.135C1712.06,1803.75,1708.445,1808.446,1706.854,1810.159Z" transform="translate(-1640.949 -1762.841)" fill="#e4d1d5"/>
          <g id="Grupo_877827" data-name="Grupo 877827" transform="translate(70.919 14.876)">
            <path id="Trazado_604926" data-name="Trazado 604926" d="M1746.738,1700.069c0,.058.147.979.147.98v0c1.166,7.045,4.6,12.392,11.493,14.145a35.149,35.149,0,0,0,10.438,1.277h0c3.775-.2,7.148-1.343,9.734-4.082v-37.846c-6.81-4.554-18.738-4.862-24.874-3.136h0c-1.344.366-3.693,1.236-3.877,2.622a84.2,84.2,0,0,0-2.432,10.265A54.04,54.04,0,0,0,1746.738,1700.069Z" transform="translate(-1746.408 -1670.439)" fill="#fff"/>
          </g>
          <g id="Grupo_877828" data-name="Grupo 877828" transform="translate(71.256 18.47)">
            <path id="Trazado_604927" data-name="Trazado 604927" d="M1749.132,1724.825h0c.978,7.446,4.391,13.283,11.64,15.126a35.142,35.142,0,0,0,10.438,1.277h0a13.833,13.833,0,0,0,9.664-4.009v-34.4c-9.184-6.1-27.911-4.456-28.439-.5-.305.911-.872,2.974-1.1,3.9C1749.9,1711.939,1748.788,1719.132,1749.132,1724.825Z" transform="translate(-1749.069 -1698.788)" fill="#f2eaeb"/>
          </g>
          <path id="Trazado_604928" data-name="Trazado 604928" d="M1938.416,1916.879a15.055,15.055,0,0,0,4.061-1.1,11.942,11.942,0,0,0,3.746-2.7v-12.935C1946.189,1902.4,1945.571,1913.543,1938.416,1916.879Z" transform="translate(-1843.158 -1856.154)" fill="#e4d1d5"/>
        </g>
      </g>
      <g id="Grupo_877833" data-name="Grupo 877833" transform="translate(146.795 159.533)">
        <g id="Grupo_877831" data-name="Grupo 877831" transform="translate(0.896 0.897)">
          <path id="Trazado_604929" data-name="Trazado 604929" d="M1167.548,1296.413a59.918,59.918,0,0,1-1.9-8.4v0c-1.008-6.783-.571-12.736,1.137-16.8,1.281-3.049,3.279-5.031,5.917-5.5,7.464-1.322,17.255,10.006,22.007,25.379.052.162.1.326.151.49a56.468,56.468,0,0,1,2.335,12.513c.644,9.863-2.073,17.226-7.493,18.186C1182.162,1323.615,1172.241,1312.033,1167.548,1296.413Z" transform="translate(-1165.116 -1265.609)" fill="#fff" opacity="0.5"/>
          <path id="Trazado_604930" data-name="Trazado 604930" d="M1171.235,1450.736a59.9,59.9,0,0,1-1.9-8.4l31.547,16.085c.644,9.863-2.073,17.226-7.493,18.186C1185.85,1477.939,1175.928,1466.357,1171.235,1450.736Z" transform="translate(-1168.804 -1419.932)" fill="#fff" opacity="0.5"/>
          <path id="Trazado_604931" data-name="Trazado 604931" d="M1206.233,1291.093l-27.925-19.882c1.281-3.049,3.279-5.031,5.917-5.5C1191.689,1264.391,1201.48,1275.719,1206.233,1291.093Z" transform="translate(-1176.636 -1265.609)" fill="#fff" opacity="0.5"/>
        </g>
        <g id="Grupo_877832" data-name="Grupo 877832">
          <path id="Trazado_604932" data-name="Trazado 604932" d="M1182.321,1317.1c-3.644,0-7.714-2.436-11.619-6.995a59,59,0,0,1-12.655-35.635c.057-4.865,1-8.917,2.722-11.716a8.309,8.309,0,0,1,5.6-4.107c3.974-.7,8.584,1.74,12.984,6.876a59,59,0,0,1,12.655,35.635c-.057,4.865-1,8.916-2.722,11.716a8.31,8.31,0,0,1-5.6,4.107h0A7.853,7.853,0,0,1,1182.321,1317.1Zm-14.608-56.775a5.872,5.872,0,0,0-1.028.088,6.489,6.489,0,0,0-4.39,3.281c-3.251,5.279-3.276,15.594-.065,26.277a53.273,53.273,0,0,0,9.833,18.968c3.913,4.568,8.038,6.856,11.31,6.277a6.491,6.491,0,0,0,4.39-3.281c3.251-5.279,3.276-15.594.065-26.277a53.269,53.269,0,0,0-9.833-18.968C1174.483,1262.592,1170.8,1260.328,1167.714,1260.328Z" transform="translate(-1158.044 -1258.533)" fill="#51497a"/>
        </g>
      </g>
    </g>
  </g>
</svg>
