<svg id="Grupo_877651" data-name="Grupo 877651" xmlns="http://www.w3.org/2000/svg" width="24.625" height="22.181" viewBox="0 0 24.625 22.181">
  <path id="Trazado_604632" data-name="Trazado 604632" d="M427.114,119.925a2.229,2.229,0,1,1-2.226-2.131A2.181,2.181,0,0,1,427.114,119.925Z" transform="translate(-422.66 -117.794)" fill="#13c6cc"/>
  <path id="Trazado_604635" data-name="Trazado 604635" d="M427.114,119.925a2.229,2.229,0,1,1-2.226-2.131A2.181,2.181,0,0,1,427.114,119.925Z" transform="translate(-422.66 -108.834)" fill="#13c6cc"/>
  <path id="Trazado_604638" data-name="Trazado 604638" d="M427.114,119.925a2.229,2.229,0,1,1-2.226-2.131A2.181,2.181,0,0,1,427.114,119.925Z" transform="translate(-422.66 -99.874)" fill="#13c6cc"/>
  <path id="Trazado_604633" data-name="Trazado 604633" d="M435.56,119.925a2.229,2.229,0,1,1-2.226-2.131A2.181,2.181,0,0,1,435.56,119.925Z" transform="translate(-421.021 -117.794)" fill="#13c6cc"/>
  <path id="Trazado_604636" data-name="Trazado 604636" d="M435.56,119.925a2.229,2.229,0,1,1-2.226-2.131A2.181,2.181,0,0,1,435.56,119.925Z" transform="translate(-421.021 -108.834)" fill="#13c6cc"/>
  <path id="Trazado_604639" data-name="Trazado 604639" d="M435.56,119.925a2.229,2.229,0,1,1-2.226-2.131A2.181,2.181,0,0,1,435.56,119.925Z" transform="translate(-421.021 -99.874)" fill="#13c6cc"/>
  <path id="Trazado_604634" data-name="Trazado 604634" d="M444.007,119.925a2.229,2.229,0,1,1-2.228-2.131A2.181,2.181,0,0,1,444.007,119.925Z" transform="translate(-419.381 -117.794)" fill="#13c6cc"/>
  <path id="Trazado_604637" data-name="Trazado 604637" d="M444.007,119.925a2.229,2.229,0,1,1-2.228-2.131A2.181,2.181,0,0,1,444.007,119.925Z" transform="translate(-419.381 -108.834)" fill="#13c6cc"/>
  <path id="Trazado_604640" data-name="Trazado 604640" d="M444.007,119.925a2.229,2.229,0,1,1-2.228-2.131A2.181,2.181,0,0,1,444.007,119.925Z" transform="translate(-419.381 -99.874)" fill="#13c6cc"/>
</svg>
