<svg xmlns="http://www.w3.org/2000/svg" width="61.336" height="54.223" viewBox="0 0 61.336 54.223">
  <g id="Grupo_878652" data-name="Grupo 878652" transform="translate(-44.105 -32.255)">
    <g id="Grupo_156330" data-name="Grupo 156330" transform="translate(44.105 32.255)">
      <path id="Trazado_116529" data-name="Trazado 116529" d="M419.191,120.175a2.491,2.491,0,1,1-2.49-2.381A2.438,2.438,0,0,1,419.191,120.175Z" transform="translate(-391.67 -117.794)" fill="#13c6cc"/>
      <path id="Trazado_116530" data-name="Trazado 116530" d="M427.637,120.175a2.491,2.491,0,1,1-2.487-2.381A2.437,2.437,0,0,1,427.637,120.175Z" transform="translate(-388.844 -117.794)" fill="#13c6cc"/>
      <path id="Trazado_116534" data-name="Trazado 116534" d="M436.083,120.175a2.491,2.491,0,1,1-2.487-2.381A2.437,2.437,0,0,1,436.083,120.175Z" transform="translate(-386.019 -117.794)" fill="#13c6cc"/>
      <path id="Trazado_99277" data-name="Trazado 99277" d="M444.53,120.175a2.491,2.491,0,1,1-2.49-2.381A2.438,2.438,0,0,1,444.53,120.175Z" transform="translate(-439.553 -117.794)" fill="#13c6cc"/>
      <path id="Trazado_116535" data-name="Trazado 116535" d="M444.53,120.175a2.491,2.491,0,1,1-2.49-2.381A2.438,2.438,0,0,1,444.53,120.175Z" transform="translate(-383.194 -117.794)" fill="#13c6cc"/>
      <path id="Trazado_99278" data-name="Trazado 99278" d="M452.976,120.175a2.491,2.491,0,1,1-2.487-2.381A2.437,2.437,0,0,1,452.976,120.175Z" transform="translate(-436.727 -117.794)" fill="#13c6cc"/>
    </g>
    <g id="Grupo_156327" data-name="Grupo 156327" transform="translate(44.105 69.35)">
      <path id="Trazado_116551" data-name="Trazado 116551" d="M419.191,120.175a2.491,2.491,0,1,1-2.49-2.381A2.438,2.438,0,0,1,419.191,120.175Z" transform="translate(-391.67 -117.794)" fill="#13c6cc"/>
      <path id="Trazado_116553" data-name="Trazado 116553" d="M427.637,120.175a2.491,2.491,0,1,1-2.487-2.381A2.437,2.437,0,0,1,427.637,120.175Z" transform="translate(-388.844 -117.794)" fill="#13c6cc"/>
      <path id="Trazado_116555" data-name="Trazado 116555" d="M436.083,120.175a2.491,2.491,0,1,1-2.487-2.381A2.437,2.437,0,0,1,436.083,120.175Z" transform="translate(-386.019 -117.794)" fill="#13c6cc"/>
      <path id="Trazado_116556" data-name="Trazado 116556" d="M444.53,120.175a2.491,2.491,0,1,1-2.49-2.381A2.438,2.438,0,0,1,444.53,120.175Z" transform="translate(-439.553 -117.794)" fill="#13c6cc"/>
      <path id="Trazado_116557" data-name="Trazado 116557" d="M444.53,120.175a2.491,2.491,0,1,1-2.49-2.381A2.438,2.438,0,0,1,444.53,120.175Z" transform="translate(-383.194 -117.794)" fill="#13c6cc"/>
      <path id="Trazado_116558" data-name="Trazado 116558" d="M452.976,120.175a2.491,2.491,0,1,1-2.487-2.381A2.437,2.437,0,0,1,452.976,120.175Z" transform="translate(-436.727 -117.794)" fill="#13c6cc"/>
    </g>
    <g id="Grupo_156329" data-name="Grupo 156329" transform="translate(44.105 44.62)">
      <ellipse id="Elipse_4744" data-name="Elipse 4744" cx="2.489" cy="2.38" rx="2.489" ry="2.38" transform="translate(22.544 0.002)" fill="#13c6cc"/>
      <path id="Trazado_116536" data-name="Trazado 116536" d="M427.637,127.683a2.491,2.491,0,1,1-2.487-2.381A2.435,2.435,0,0,1,427.637,127.683Z" transform="translate(-388.844 -125.302)" fill="#13c6cc"/>
      <ellipse id="Elipse_4745" data-name="Elipse 4745" cx="2.489" cy="2.38" rx="2.489" ry="2.38" transform="translate(45.087 0.002)" fill="#13c6cc"/>
      <path id="Trazado_99286" data-name="Trazado 99286" d="M444.53,127.683a2.491,2.491,0,1,1-2.49-2.381A2.436,2.436,0,0,1,444.53,127.683Z" transform="translate(-439.553 -125.302)" fill="#13c6cc"/>
      <path id="Trazado_116537" data-name="Trazado 116537" d="M444.53,127.683a2.491,2.491,0,1,1-2.49-2.381A2.436,2.436,0,0,1,444.53,127.683Z" transform="translate(-383.194 -125.302)" fill="#13c6cc"/>
      <path id="Trazado_99287" data-name="Trazado 99287" d="M452.976,127.683a2.491,2.491,0,1,1-2.487-2.381A2.435,2.435,0,0,1,452.976,127.683Z" transform="translate(-436.727 -125.302)" fill="#13c6cc"/>
    </g>
    <g id="Grupo_156326" data-name="Grupo 156326" transform="translate(44.105 81.717)">
      <ellipse id="Elipse_4750" data-name="Elipse 4750" cx="2.489" cy="2.38" rx="2.489" ry="2.38" transform="translate(22.544 0.001)" fill="#13c6cc"/>
      <path id="Trazado_116542" data-name="Trazado 116542" d="M427.637,127.683a2.491,2.491,0,1,1-2.487-2.381A2.435,2.435,0,0,1,427.637,127.683Z" transform="translate(-388.844 -125.302)" fill="#13c6cc"/>
      <ellipse id="Elipse_4752" data-name="Elipse 4752" cx="2.489" cy="2.38" rx="2.489" ry="2.38" transform="translate(45.087 0.001)" fill="#13c6cc"/>
      <path id="Trazado_116543" data-name="Trazado 116543" d="M444.53,127.683a2.491,2.491,0,1,1-2.49-2.381A2.436,2.436,0,0,1,444.53,127.683Z" transform="translate(-439.553 -125.302)" fill="#13c6cc"/>
      <path id="Trazado_116544" data-name="Trazado 116544" d="M444.53,127.683a2.491,2.491,0,1,1-2.49-2.381A2.436,2.436,0,0,1,444.53,127.683Z" transform="translate(-383.194 -125.302)" fill="#13c6cc"/>
      <path id="Trazado_116545" data-name="Trazado 116545" d="M452.976,127.683a2.491,2.491,0,1,1-2.487-2.381A2.435,2.435,0,0,1,452.976,127.683Z" transform="translate(-436.727 -125.302)" fill="#13c6cc"/>
    </g>
    <g id="Grupo_156328" data-name="Grupo 156328" transform="translate(44.105 56.986)">
      <ellipse id="Elipse_4746" data-name="Elipse 4746" cx="2.489" cy="2.38" rx="2.489" ry="2.38" transform="translate(22.544 0.001)" fill="#13c6cc"/>
      <path id="Trazado_116538" data-name="Trazado 116538" d="M427.637,135.191a2.491,2.491,0,1,1-2.487-2.381A2.435,2.435,0,0,1,427.637,135.191Z" transform="translate(-388.844 -132.81)" fill="#13c6cc"/>
      <ellipse id="Elipse_4747" data-name="Elipse 4747" cx="2.489" cy="2.38" rx="2.489" ry="2.38" transform="translate(45.087 0.001)" fill="#13c6cc"/>
      <path id="Trazado_99292" data-name="Trazado 99292" d="M444.53,135.191a2.491,2.491,0,1,1-2.49-2.381A2.436,2.436,0,0,1,444.53,135.191Z" transform="translate(-439.553 -132.81)" fill="#13c6cc"/>
      <path id="Trazado_116539" data-name="Trazado 116539" d="M444.53,135.191a2.491,2.491,0,1,1-2.49-2.381A2.436,2.436,0,0,1,444.53,135.191Z" transform="translate(-383.194 -132.81)" fill="#13c6cc"/>
      <path id="Trazado_99293" data-name="Trazado 99293" d="M452.976,135.191a2.491,2.491,0,1,1-2.487-2.381A2.435,2.435,0,0,1,452.976,135.191Z" transform="translate(-436.727 -132.81)" fill="#13c6cc"/>
    </g>
  </g>
</svg>
