<svg xmlns="http://www.w3.org/2000/svg" xmlns:xlink="http://www.w3.org/1999/xlink" width="59" height="59" viewBox="0 0 59 59">
  <defs>
    <linearGradient id="linear-gradient" x1="0.5" y1="0.319" x2="0.5" y2="2.484" gradientUnits="objectBoundingBox">
      <stop offset="0" stop-color="#0273bc"/>
      <stop offset="1" stop-color="#050d13"/>
    </linearGradient>
  </defs>
  <g id="Grupo_878810" data-name="Grupo 878810" transform="translate(-285 -2432)">
    <circle id="Elipse_5223" data-name="Elipse 5223" cx="29.5" cy="29.5" r="29.5" transform="translate(285 2432)" fill="url(#linear-gradient)"/>
    <path id="jabon-liquido" d="M106.894,10.334h-2.141V9.617a2.09,2.09,0,0,0-2.088-2.088h-2.11v-.5h2.973A1.233,1.233,0,0,0,104.762,5.8V2.651A2.654,2.654,0,0,0,102.111,0H93.257a3.521,3.521,0,0,0-3.292,2.282H85.148a1.233,1.233,0,0,0-1.02.54L82.484,5.241a1.233,1.233,0,1,0,2.039,1.387L85.8,4.749h3.94V5.8a1.233,1.233,0,0,0,1.233,1.233h2.974v.5h-2.11A2.09,2.09,0,0,0,89.75,9.617v.717H87.609a2.152,2.152,0,0,0-2.092,2.659,52.017,52.017,0,0,1,.456,21.713,3.991,3.991,0,0,0,3.917,4.753h14.721a3.991,3.991,0,0,0,3.918-4.754,52.012,52.012,0,0,1,.456-21.713,2.152,2.152,0,0,0-2.092-2.659ZM92.208,3.516a1.051,1.051,0,0,1,1.049-1.049h8.853a.19.19,0,0,1,.185.185V4.565H92.208Zm4.207,3.516h1.675v.5H96.415ZM92.217,10h10.07v.339H92.217Zm13.892,25.182a1.525,1.525,0,0,1-1.5,1.816H89.891a1.525,1.525,0,0,1-1.5-1.816,54.043,54.043,0,0,0,.972-11.3A53.067,53.067,0,0,0,88.006,12.8H106.5a53.06,53.06,0,0,0-1.36,11.074,54.046,54.046,0,0,0,.972,11.3ZM97.252,17.315a7.582,7.582,0,1,0,7.582,7.582A7.582,7.582,0,0,0,97.252,17.315Zm0,12.7a5.115,5.115,0,1,1,5.116-5.116A5.115,5.115,0,0,1,97.252,30.012Z" transform="translate(218.73 2442)" fill="#fff"/>
  </g>
</svg>
