<svg xmlns="http://www.w3.org/2000/svg" xmlns:xlink="http://www.w3.org/1999/xlink" width="59" height="59" viewBox="0 0 59 59">
  <defs>
    <linearGradient id="linear-gradient" x1="0.5" y1="0.319" x2="0.5" y2="2.484" gradientUnits="objectBoundingBox">
      <stop offset="0" stop-color="#0273bc"/>
      <stop offset="1" stop-color="#050d13"/>
    </linearGradient>
  </defs>
  <g id="Grupo_878807" data-name="Grupo 878807" transform="translate(-285 -2123)">
    <circle id="Elipse_5220" data-name="Elipse 5220" cx="29.5" cy="29.5" r="29.5" transform="translate(285 2123)" fill="url(#linear-gradient)"/>
    <path id="persona-discapacitada" d="M74.947,29.863H71.559l-1.489-7.5A4.878,4.878,0,0,0,66.6,18.6l-3.4-.962V9.583a3.168,3.168,0,0,0-.636-1.908,4.263,4.263,0,1,0-5.718-.57,7.482,7.482,0,0,0-4.3,6.765V15.42a10.661,10.661,0,1,0,11.72,16.567h3.413a3.2,3.2,0,1,0,6.02,0h1.251ZM60.016,2.124a2.138,2.138,0,1,1-2.138,2.138A2.14,2.14,0,0,1,60.016,2.124ZM54.668,13.871a5.354,5.354,0,0,1,5.348-5.348,1.061,1.061,0,0,1,1.06,1.06v6.782a10.654,10.654,0,0,0-2.142-.946V12.835H56.81V21.76a1.071,1.071,0,0,1-2.142,0Zm-2,8.755a3.194,3.194,0,0,0,6.149,0,4.269,4.269,0,1,1-6.149,0Zm3.075,11.5A8.546,8.546,0,0,1,47.2,25.592,8.441,8.441,0,0,1,49.1,20.23a8.593,8.593,0,0,1,3.448-2.554v2.376a6.394,6.394,0,1,0,6.39,0V17.676a8.594,8.594,0,0,1,3.448,2.554,8.44,8.44,0,0,1,1.894,5.362,8.546,8.546,0,0,1-8.536,8.537ZM65.027,20.36l.993.281a2.763,2.763,0,0,1,1.966,2.13l1.407,7.091H65.506a10.653,10.653,0,0,0-.479-9.5Zm6.731,12.7a1.071,1.071,0,1,1-1.071-1.071A1.072,1.072,0,0,1,71.758,33.058Z" transform="translate(254.922 2134)" fill="#fff"/>
  </g>
</svg>
