<svg xmlns="http://www.w3.org/2000/svg" width="294.409" height="394.398" viewBox="0 0 294.409 394.398">
  <g id="Grupo_877735" data-name="Grupo 877735" transform="translate(-77.902 -35.509)">
    <g id="BACKGROUND" transform="translate(243.095 26.907)">
      <g id="Grupo_877673" data-name="Grupo 877673">
        <g id="Grupo_877664" data-name="Grupo 877664" transform="translate(-24.694)">
          <rect id="Rectángulo_48047" data-name="Rectángulo 48047" width="153.91" height="4.444" transform="translate(0 8.602)" fill="#fff"/>
          <rect id="Rectángulo_48048" data-name="Rectángulo 48048" width="153.91" height="4.444" transform="translate(0 17.205)" fill="#fff"/>
          <rect id="Rectángulo_48049" data-name="Rectángulo 48049" width="153.91" height="4.444" transform="translate(0 25.807)" fill="#fff"/>
          <rect id="Rectángulo_48050" data-name="Rectángulo 48050" width="153.91" height="4.444" transform="translate(0 34.409)" fill="#fff"/>
          <rect id="Rectángulo_48051" data-name="Rectángulo 48051" width="153.91" height="4.444" transform="translate(0 43.011)" fill="#fff"/>
          <rect id="Rectángulo_48052" data-name="Rectángulo 48052" width="153.91" height="4.444" transform="translate(0 51.614)" fill="#fff"/>
          <rect id="Rectángulo_48053" data-name="Rectángulo 48053" width="153.91" height="4.444" transform="translate(0 60.216)" fill="#fff"/>
          <rect id="Rectángulo_48054" data-name="Rectángulo 48054" width="153.91" height="4.444" transform="translate(0 68.818)" fill="#fff"/>
          <rect id="Rectángulo_48055" data-name="Rectángulo 48055" width="153.91" height="4.444" transform="translate(0 77.421)" fill="#fff"/>
          <rect id="Rectángulo_48056" data-name="Rectángulo 48056" width="153.91" height="4.444" transform="translate(0 86.023)" fill="#fff"/>
          <rect id="Rectángulo_48057" data-name="Rectángulo 48057" width="153.91" height="4.444" transform="translate(0 94.625)" fill="#fff"/>
          <rect id="Rectángulo_48058" data-name="Rectángulo 48058" width="153.91" height="4.444" transform="translate(0 103.227)" fill="#fff"/>
          <rect id="Rectángulo_48059" data-name="Rectángulo 48059" width="153.91" height="4.444" transform="translate(0 111.83)" fill="#fff"/>
          <rect id="Rectángulo_48060" data-name="Rectángulo 48060" width="153.91" height="4.444" transform="translate(0 120.432)" fill="#fff"/>
          <rect id="Rectángulo_48061" data-name="Rectángulo 48061" width="153.91" height="4.444" transform="translate(0 129.034)" fill="#fff"/>
          <rect id="Rectángulo_48062" data-name="Rectángulo 48062" width="153.91" height="4.444" transform="translate(0 137.636)" fill="#fff"/>
          <rect id="Rectángulo_48063" data-name="Rectángulo 48063" width="153.91" height="4.444" transform="translate(0 146.239)" fill="#fff"/>
          <rect id="Rectángulo_48064" data-name="Rectángulo 48064" width="153.91" height="4.444" transform="translate(0 154.841)" fill="#fff"/>
          <rect id="Rectángulo_48065" data-name="Rectángulo 48065" width="153.91" height="4.444" transform="translate(0 163.443)" fill="#fff"/>
          <rect id="Rectángulo_48066" data-name="Rectángulo 48066" width="153.91" height="4.444" transform="translate(0 172.046)" fill="#fff"/>
          <rect id="Rectángulo_48067" data-name="Rectángulo 48067" width="153.91" height="4.444" transform="translate(0 180.648)" fill="#fff"/>
          <rect id="Rectángulo_48068" data-name="Rectángulo 48068" width="153.91" height="4.444" transform="translate(0 189.25)" fill="#fff"/>
          <rect id="Rectángulo_48069" data-name="Rectángulo 48069" width="153.91" height="4.444" transform="translate(0 197.852)" fill="#fff"/>
          <rect id="Rectángulo_48070" data-name="Rectángulo 48070" width="153.91" height="4.444" transform="translate(0 206.455)" fill="#fff"/>
          <rect id="Rectángulo_48071" data-name="Rectángulo 48071" width="153.91" height="4.444" transform="translate(0 215.057)" fill="#fff"/>
        </g>
        <g id="Grupo_877668" data-name="Grupo 877668" transform="translate(0 206.98)">
          <rect id="Rectángulo_48072" data-name="Rectángulo 48072" width="120.227" height="191.736" transform="translate(0 0)" fill="#bfbfbf"/>
          <rect id="Rectángulo_48073" data-name="Rectángulo 48073" width="83.181" height="191.736" transform="translate(0 0)" fill="#d9d9d9"/>
          <g id="Grupo_877665" data-name="Grupo 877665" transform="translate(2.687 6.213)">
            <rect id="Rectángulo_48074" data-name="Rectángulo 48074" width="76.666" height="54.376" fill="none" stroke="#bfbfbf" stroke-miterlimit="10" stroke-width="1"/>
            <rect id="Rectángulo_48075" data-name="Rectángulo 48075" width="16.708" height="3.262" transform="translate(29.979 51.114)" fill="#bfbfbf"/>
          </g>
          <g id="Grupo_877666" data-name="Grupo 877666" transform="translate(2.687 64.759)">
            <rect id="Rectángulo_48076" data-name="Rectángulo 48076" width="76.666" height="54.376" fill="none" stroke="#bfbfbf" stroke-miterlimit="10" stroke-width="1"/>
            <rect id="Rectángulo_48077" data-name="Rectángulo 48077" width="16.708" height="3.262" transform="translate(29.979 51.114)" fill="#bfbfbf"/>
          </g>
          <g id="Grupo_877667" data-name="Grupo 877667" transform="translate(2.687 123.304)">
            <rect id="Rectángulo_48078" data-name="Rectángulo 48078" width="76.666" height="54.376" fill="none" stroke="#bfbfbf" stroke-miterlimit="10" stroke-width="1"/>
            <rect id="Rectángulo_48079" data-name="Rectángulo 48079" width="16.708" height="3.262" transform="translate(29.979 51.114)" fill="#bfbfbf"/>
          </g>
        </g>
        <g id="Grupo_877672" data-name="Grupo 877672" transform="translate(34.403 190.975)">
          <path id="Trazado_604668" data-name="Trazado 604668" d="M362.085,246.369a13.33,13.33,0,0,0,12.357,8.342h29.143a13.331,13.331,0,0,0,12.357-8.342Z" transform="translate(-346.55 -238.706)" fill="#bfbfbf"/>
          <g id="Grupo_877669" data-name="Grupo 877669" transform="translate(0 6.926)">
            <rect id="Rectángulo_48080" data-name="Rectángulo 48080" width="6.113" height="7.826" rx="2.054" transform="translate(0 1.252)" fill="#bfbfbf"/>
            <rect id="Rectángulo_48081" data-name="Rectángulo 48081" width="6.113" height="1.521" rx="0.421" fill="#bfbfbf"/>
          </g>
          <g id="Grupo_877670" data-name="Grupo 877670" transform="translate(7.854 6.926)">
            <rect id="Rectángulo_48082" data-name="Rectángulo 48082" width="6.114" height="7.826" rx="2.054" transform="translate(0 1.252)" fill="#bfbfbf"/>
            <path id="Rectángulo_48083" data-name="Rectángulo 48083" d="M.421,0h5.27a.422.422,0,0,1,.422.422V1.1a.421.421,0,0,1-.421.421H.421A.421.421,0,0,1,0,1.1V.421A.421.421,0,0,1,.421,0Z" fill="#bfbfbf"/>
          </g>
          <path id="Trazado_604669" data-name="Trazado 604669" d="M377.865,248.967q-4.432-4.4-8.865-8.8a.453.453,0,0,0-.64.64l8.865,8.8A.453.453,0,0,0,377.865,248.967Z" transform="translate(-347.133 -238.105)" fill="#bfbfbf"/>
          <path id="Trazado_604670" data-name="Trazado 604670" d="M386.166,248.174c-1.459-1.9-6.539-7.823-6.829-8.12-.807-.825-3.137.069-3.958.88.724-.237,2.113-.712,2.783-.349a51.616,51.616,0,0,1,7.2,8.867" transform="translate(-347.812 -238.076)" fill="#bfbfbf"/>
          <g id="Grupo_877671" data-name="Grupo 877671" transform="translate(35.168 0)">
            <path id="Trazado_604671" data-name="Trazado 604671" d="M396,249.416q-4.433-4.4-8.865-8.8a.453.453,0,0,0-.64.641l8.864,8.8A.453.453,0,0,0,396,249.416Z" transform="translate(-384.022 -238.148)" fill="#bfbfbf"/>
            <path id="Trazado_604672" data-name="Trazado 604672" d="M388.448,240.238a2.336,2.336,0,1,1-2.335-2.335A2.336,2.336,0,0,1,388.448,240.238Z" transform="translate(-383.777 -237.903)" fill="#bfbfbf"/>
          </g>
        </g>
      </g>
    </g>
    <g id="OBJECTS" transform="translate(77.902 48.541)">
      <g id="Grupo_877734" data-name="Grupo 877734" transform="translate(2.319)">
        <g id="Grupo_877674" data-name="Grupo 877674" transform="translate(96.046 2.129)">
          <path id="Trazado_604673" data-name="Trazado 604673" d="M207.249,231.322h-2.715V53.16h57.289l26.192,37.588L285.786,92.3,260.4,55.876H207.249Z" transform="translate(-204.533 -53.16)" fill="#bfbfbf"/>
        </g>
        <g id="Grupo_877681" data-name="Grupo 877681" transform="translate(0 165.982)">
          <g id="Grupo_877675" data-name="Grupo 877675" transform="translate(23.63 26.927)">
            <path id="Trazado_604674" data-name="Trazado 604674" d="M138.282,281.173q-.365,14.349-1.465,28.668-.547,7.1-1.275,14.184-.368,3.569-.781,7.134a22.569,22.569,0,0,1-1.011,5.218,5.367,5.367,0,0,1-2.626,3.3,3.8,3.8,0,0,1-4.462-1.69c-1.206-1.752-1.243-4-1.225-6.043.022-2.366.075-4.732.138-7.1q.386-14.234,1.624-28.428,1.241-14.235,3.338-28.381.263-1.766.539-3.533c.089-.569-.783-.815-.873-.241q-2.281,14.626-3.658,29.374t-1.826,29.534q-.115,3.74-.17,7.481c-.032,2.16-.148,4.434.652,6.485a5.737,5.737,0,0,0,3.64,3.541,4.2,4.2,0,0,0,4.087-1.174c2.511-2.561,2.567-6.812,2.942-10.132q.834-7.411,1.47-14.842,1.267-14.8,1.741-29.662.06-1.849.106-3.7A.453.453,0,0,0,138.282,281.173Z" transform="translate(-124.525 -263.941)" fill="#bfbfbf"/>
            <path id="Trazado_604675" data-name="Trazado 604675" d="M147.711,281.173q-.365,14.349-1.464,28.668-.547,7.1-1.275,14.184-.368,3.569-.78,7.134a22.616,22.616,0,0,1-1.012,5.218,5.369,5.369,0,0,1-2.625,3.3,3.8,3.8,0,0,1-4.463-1.69c-1.206-1.752-1.243-4-1.225-6.043.022-2.366.075-4.732.139-7.1q.384-14.234,1.623-28.428,1.241-14.235,3.339-28.381.262-1.766.538-3.533c.089-.569-.783-.815-.873-.241q-2.281,14.626-3.658,29.374t-1.826,29.534q-.114,3.74-.17,7.481c-.032,2.16-.148,4.434.653,6.485a5.736,5.736,0,0,0,3.639,3.541,4.2,4.2,0,0,0,4.087-1.174c2.511-2.561,2.567-6.812,2.942-10.132q.835-7.411,1.47-14.842,1.267-14.8,1.741-29.662.06-1.849.106-3.7A.453.453,0,0,0,147.711,281.173Z" transform="translate(-125.42 -263.941)" fill="#bfbfbf"/>
            <path id="Trazado_604676" data-name="Trazado 604676" d="M157.14,281.173q-.364,14.349-1.464,28.668-.547,7.1-1.275,14.184-.367,3.569-.78,7.134a22.664,22.664,0,0,1-1.011,5.218,5.37,5.37,0,0,1-2.626,3.3,3.8,3.8,0,0,1-4.463-1.69c-1.2-1.752-1.243-4-1.224-6.043.021-2.366.074-4.732.138-7.1q.386-14.234,1.623-28.428,1.241-14.235,3.339-28.381.262-1.766.538-3.533c.09-.569-.783-.815-.873-.241q-2.281,14.626-3.658,29.374t-1.826,29.534q-.114,3.74-.17,7.481c-.032,2.16-.148,4.434.653,6.485a5.738,5.738,0,0,0,3.639,3.541,4.2,4.2,0,0,0,4.087-1.174c2.511-2.561,2.568-6.812,2.942-10.132q.835-7.411,1.471-14.842,1.267-14.8,1.74-29.662.06-1.849.106-3.7A.453.453,0,0,0,157.14,281.173Z" transform="translate(-126.314 -263.941)" fill="#bfbfbf"/>
            <path id="Trazado_604677" data-name="Trazado 604677" d="M166.569,281.173q-.364,14.349-1.464,28.668-.547,7.1-1.275,14.184-.367,3.569-.78,7.134a22.663,22.663,0,0,1-1.011,5.218,5.37,5.37,0,0,1-2.626,3.3,3.8,3.8,0,0,1-4.463-1.69c-1.2-1.752-1.243-4-1.224-6.043.021-2.366.074-4.732.138-7.1q.386-14.234,1.623-28.428,1.242-14.235,3.339-28.381.262-1.766.539-3.533c.089-.569-.784-.815-.873-.241q-2.281,14.626-3.658,29.374t-1.826,29.534q-.114,3.74-.169,7.481c-.033,2.16-.148,4.434.652,6.485a5.737,5.737,0,0,0,3.64,3.541,4.2,4.2,0,0,0,4.087-1.174c2.511-2.561,2.568-6.812,2.942-10.132q.835-7.411,1.471-14.842,1.267-14.8,1.741-29.662.058-1.849.1-3.7A.453.453,0,0,0,166.569,281.173Z" transform="translate(-127.209 -263.941)" fill="#bfbfbf"/>
          </g>
          <g id="Grupo_877680" data-name="Grupo 877680">
            <path id="Trazado_604678" data-name="Trazado 604678" d="M98.418,240.974a8.2,8.2,0,0,0,8.429,7.951H244.416a8.2,8.2,0,0,0,8.428-7.951v-6.783H98.418Z" transform="translate(-98.418 -234.191)" fill="#d9d9d9"/>
            <g id="Grupo_877677" data-name="Grupo 877677" transform="translate(16.932 28.99)">
              <g id="Grupo_877676" data-name="Grupo 877676">
                <path id="Trazado_604679" data-name="Trazado 604679" d="M163.1,286.5H121.485c-4.15,0-4.36-9-4.36-10.8V266.22h50.338V275.7C167.463,277.5,167.253,286.5,163.1,286.5Zm-41.176-3.62h40.735c.476-.787,1.181-3.315,1.181-7.182V269.84h-43.1V275.7C120.745,279.569,121.451,282.1,121.927,282.883Z" transform="translate(-117.125 -266.22)" fill="#bfbfbf"/>
              </g>
            </g>
            <g id="Grupo_877679" data-name="Grupo 877679" transform="translate(24.679 41.592)">
              <g id="Grupo_877678" data-name="Grupo 877678">
                <path id="Rectángulo_48084" data-name="Rectángulo 48084" d="M5.871,0H29.394a5.871,5.871,0,0,1,5.871,5.871v0a5.871,5.871,0,0,1-5.871,5.871H5.871A5.871,5.871,0,0,1,0,5.871v0A5.871,5.871,0,0,1,5.871,0Z" fill="#bfbfbf"/>
              </g>
            </g>
            <rect id="Rectángulo_48085" data-name="Rectángulo 48085" width="145.685" height="3.92" transform="translate(8.742 14.735)" fill="#bfbfbf"/>
            <path id="Trazado_604680" data-name="Trazado 604680" d="M108.077,254.8v8.189a7.952,7.952,0,0,0,7.951,7.952H245.81a7.952,7.952,0,0,0,7.951-7.952V254.8Z" transform="translate(-99.335 -236.147)" fill="#d9d9d9"/>
          </g>
        </g>
        <g id="Grupo_877706" data-name="Grupo 877706" transform="translate(45.446 19.531)">
          <g id="Grupo_877686" data-name="Grupo 877686" transform="translate(85.042 57.044)">
            <g id="Grupo_877684" data-name="Grupo 877684" transform="translate(20.246 61.519)">
              <path id="Trazado_604681" data-name="Trazado 604681" d="M313.435,212.2c-17.17-5.234-31.042-9.833-43.537-8.62a29.712,29.712,0,0,0-4.934,13.018,1.757,1.757,0,0,0,1.15,1.862c13.257,4.642,31.872,7.163,46.548,4.786A14.332,14.332,0,0,0,313.435,212.2Z" transform="translate(-264.954 -203.379)" fill="#e09680"/>
              <path id="Trazado_604682" data-name="Trazado 604682" d="M317.665,224.166a50.93,50.93,0,0,0,6.8-1.552l1.588-7.211q-3.917-1.146-7.618-2.283A14.332,14.332,0,0,1,317.665,224.166Z" transform="translate(-269.955 -204.303)" fill="#eee"/>
              <g id="Grupo_877683" data-name="Grupo 877683" transform="translate(51.364 6.531)">
                <g id="Grupo_877682" data-name="Grupo 877682">
                  <path id="Trazado_604683" data-name="Trazado 604683" d="M348.862,214.74a4.293,4.293,0,0,1,1.34,1.076,1.6,1.6,0,0,1,.233,1.627,1.685,1.685,0,0,1-1.8.728,6.458,6.458,0,0,1-1.9-.835,14,14,0,0,0-6.85-1.688,24.9,24.9,0,0,1-3.673.034c-4.2-.561-4.116-5.48.381-5.061A30.182,30.182,0,0,1,348.862,214.74Z" transform="translate(-322.787 -210.595)" fill="#eee"/>
                  <path id="Trazado_604684" data-name="Trazado 604684" d="M348.436,219.349a4.29,4.29,0,0,1,1.34,1.075,1.6,1.6,0,0,1,.233,1.627,1.686,1.686,0,0,1-1.806.728,6.468,6.468,0,0,1-1.9-.835,14,14,0,0,0-6.849-1.688,24.9,24.9,0,0,1-3.673.034c-4.2-.561-4.116-5.48.38-5.061A30.17,30.17,0,0,1,348.436,219.349Z" transform="translate(-322.747 -211.032)" fill="#eee"/>
                  <path id="Trazado_604685" data-name="Trazado 604685" d="M345.186,222.473a4.307,4.307,0,0,1,1.34,1.076,1.605,1.605,0,0,1,.233,1.627,1.685,1.685,0,0,1-1.806.729,6.436,6.436,0,0,1-1.9-.836,14,14,0,0,0-6.85-1.688,25.017,25.017,0,0,1-3.673.035c-4.2-.562-4.116-5.48.381-5.061A30.16,30.16,0,0,1,345.186,222.473Z" transform="translate(-322.438 -211.329)" fill="#eee"/>
                  <path id="Trazado_604686" data-name="Trazado 604686" d="M341.06,224.909a3.508,3.508,0,0,1,1.093.878,1.31,1.31,0,0,1,.19,1.329,1.376,1.376,0,0,1-1.474.595,5.275,5.275,0,0,1-1.551-.682,11.426,11.426,0,0,0-5.592-1.378,20.5,20.5,0,0,1-3,.029c-3.428-.459-3.36-4.475.311-4.133A24.638,24.638,0,0,1,341.06,224.909Z" transform="translate(-322.321 -211.632)" fill="#eee"/>
                  <path id="Trazado_604687" data-name="Trazado 604687" d="M334.952,210.6a21.317,21.317,0,0,0-6.682,1.348,10.15,10.15,0,0,0-5.953,4.974,6.246,6.246,0,0,0,1.315,7.287,6.948,6.948,0,0,0,4.439,1.395,10.729,10.729,0,0,0,10.379-13.488Z" transform="translate(-321.702 -210.595)" fill="#eee"/>
                </g>
              </g>
              <path id="Trazado_604688" data-name="Trazado 604688" d="M341.4,214.1c-1.209,2.468-4.029,2.153-6.308,1.717a.458.458,0,0,0-.544.3,6.28,6.28,0,0,1-3.776,3.614,7.576,7.576,0,0,1-4.78-.185c-.2-.063-.3.211-.14.321a6.119,6.119,0,0,0,5.392.567,6.913,6.913,0,0,0,3.984-3.706c2.45.418,6.025.626,6.935-2.3C342.3,213.99,341.612,213.665,341.4,214.1Z" transform="translate(-270.725 -204.377)" fill="#d7ccc8"/>
            </g>
            <g id="Grupo_877685" data-name="Grupo 877685">
              <path id="Trazado_604689" data-name="Trazado 604689" d="M265.935,174.054c2.619,6.076,10.4,30.07,10.438,33.838s-9.953,9.18-12.691,7.268c-1.925-1.343-3.2-3.741-4.393-6.037-3.661-7.054-6.592-14.685-10.253-21.739Z" transform="translate(-243.197 -139.078)" fill="#e09680"/>
              <path id="Trazado_604690" data-name="Trazado 604690" d="M267.414,173.041c1.569-1.451-7.375-19.2-10.967-24.737-1.959-3.018-7.381-14.591-11.841-12.682a2.315,2.315,0,0,0-.765.541,263.7,263.7,0,0,1,20.051,40.289C264.479,175.942,266.843,173.571,267.414,173.041Z" transform="translate(-242.704 -135.411)" fill="#26a69a"/>
              <path id="Trazado_604691" data-name="Trazado 604691" d="M243.722,136.243c-2.856,2.985.58,14.051.491,17.469a99.531,99.531,0,0,0,1,16.919c.2,1.35,3.628,16.056,3.713,16.011a76.194,76.194,0,0,0,14.845-10.11A263.71,263.71,0,0,0,243.722,136.243Z" transform="translate(-242.585 -135.49)" fill="#00897b"/>
            </g>
          </g>
          <g id="Grupo_877691" data-name="Grupo 877691" transform="translate(0 162.81)">
            <g id="Grupo_877690" data-name="Grupo 877690">
              <g id="Grupo_877687" data-name="Grupo 877687" transform="translate(5.279)">
                <path id="Trazado_604692" data-name="Trazado 604692" d="M231.86,258.841c-32.24,3.546-31.766,21.993-31.766,21.993l13.02,76.888,6.835,67h21.692C248.193,336.659,231.86,258.841,231.86,258.841Z" transform="translate(-158.79 -252.889)" fill="#00897b"/>
                <path id="Trazado_604693" data-name="Trazado 604693" d="M204.428,280.166s14.341-9.189,16.02-17.229l-53.835,1.914s-12.379,103.836-12.149,160.256h22.175Z" transform="translate(-154.461 -253.278)" fill="#26a69a"/>
                <path id="Trazado_604694" data-name="Trazado 604694" d="M159.591,442.108c.005,2.1.019,4.137.045,6.1h12.169l.679-6.1Z" transform="translate(-154.947 -270.279)" fill="#ffab91"/>
                <path id="Trazado_604695" data-name="Trazado 604695" d="M226.159,442.108c0,2.1.019,4.137.044,6.1h12.169l.68-6.1Z" transform="translate(-161.264 -270.279)" fill="#ffab91"/>
                <path id="Trazado_604696" data-name="Trazado 604696" d="M216.774,270c2.847-2.858,5.338-6.12,5.985-9.214l-54.174-8.524s-.673,11.8-.881,14.23A149.3,149.3,0,0,0,216.774,270Z" transform="translate(-155.717 -252.265)" fill="#00897b"/>
              </g>
              <g id="Grupo_877688" data-name="Grupo 877688" transform="translate(0 176.622)">
                <path id="Trazado_604697" data-name="Trazado 604697" d="M171.5,447.794l-14.243-.391a33.119,33.119,0,0,0-8.182,14.883h25.716A60.563,60.563,0,0,0,171.5,447.794Z" transform="translate(-148.67 -447.403)" fill="#015369"/>
                <path id="Trazado_604698" data-name="Trazado 604698" d="M149.029,463.846c-.132.532-.269,1.064-.375,1.6a1.361,1.361,0,0,0,1.327,1.635h23.576a1.354,1.354,0,0,0,1.355-1.45c-.046-.6-.1-1.192-.167-1.787Z" transform="translate(-148.628 -448.963)" fill="#1b3f5e"/>
              </g>
              <g id="Grupo_877689" data-name="Grupo 877689" transform="translate(65.943 176.622)">
                <path id="Trazado_604699" data-name="Trazado 604699" d="M224.965,447.794l14.243-.391c3.969,4.13,27.869,9.326,29.253,14.883H221.674A60.607,60.607,0,0,1,224.965,447.794Z" transform="translate(-221.502 -447.403)" fill="#015369"/>
                <path id="Trazado_604700" data-name="Trazado 604700" d="M268.443,463.846c.133.532.27,1.064.375,1.6a1.361,1.361,0,0,1-1.326,1.635H222.844a1.354,1.354,0,0,1-1.355-1.45c.047-.6.1-1.192.167-1.787Z" transform="translate(-221.484 -448.963)" fill="#eee"/>
              </g>
            </g>
            <path id="Trazado_604701" data-name="Trazado 604701" d="M171.083,372.282c-1.766-3.035-3.612-5.991-5.076-9.191a86.4,86.4,0,0,1-3.605-9.985.334.334,0,0,0-.644.177,45.75,45.75,0,0,0,3.358,10.193,42.172,42.172,0,0,0,5.34,9.29C170.743,373.125,171.305,372.664,171.083,372.282Z" transform="translate(-149.873 -261.811)" fill="#00897b"/>
            <path id="Trazado_604702" data-name="Trazado 604702" d="M166.625,373.008c-.435-.713-.885-1.414-1.335-2.118a.123.123,0,0,0-.213.125c.363.739.721,1.475,1.1,2.206a14.989,14.989,0,0,0,1.2,2.149.26.26,0,0,0,.319.1.251.251,0,0,0,.148-.3A15.018,15.018,0,0,0,166.625,373.008Z" transform="translate(-150.187 -263.515)" fill="#00897b"/>
          </g>
          <path id="Trazado_604703" data-name="Trazado 604703" d="M246.75,146.177a11.653,11.653,0,0,0-5.391-11.19,63.143,63.143,0,0,0-27.051-8.962,106.882,106.882,0,0,0-26.265.826,11.6,11.6,0,0,0-9.992,11.356,506.925,506.925,0,0,1-11.495,102.1c21,11.283,42.76,17.431,65.025,13.015C237.81,219,242.662,180.954,246.75,146.177Z" transform="translate(-150.329 -77.432)" fill="#26a69a"/>
          <path id="Trazado_604704" data-name="Trazado 604704" d="M219.63,263.157c-3.457-.245-6.9-.374-10.336-.865a75.219,75.219,0,0,1-9.937-2.116,76.865,76.865,0,0,1-18.87-8.232,98.843,98.843,0,0,1-9.514-6.7.235.235,0,0,0-.3.359,65.46,65.46,0,0,0,17.376,11.46A75.449,75.449,0,0,0,208,263.145a52.214,52.214,0,0,0,11.6.786C220.033,263.9,220.077,263.188,219.63,263.157Z" transform="translate(-150.712 -88.784)" fill="#00897b"/>
          <path id="Trazado_604705" data-name="Trazado 604705" d="M228.836,134.377c-1.254,2.709-5.315,2.754-7.827,2.362a14.9,14.9,0,0,1-7.793-3.778,13.866,13.866,0,0,1-3-4.017c-.259-.522-1.04-.064-.782.457,2.837,5.726,9.685,9.4,16.035,8.181a5.487,5.487,0,0,0,4.149-2.749C229.86,134.309,229.081,133.849,228.836,134.377Z" transform="translate(-154.393 -77.732)" fill="#00897b"/>
          <g id="Grupo_877695" data-name="Grupo 877695" transform="translate(26.127 51.815)">
            <path id="Trazado_604706" data-name="Trazado 604706" d="M198.212,140.984a28.377,28.377,0,0,0-4.059-7.576,9.586,9.586,0,0,0-7.429-3.769c-3.353.134-6.243,2.7-7.642,5.753a13.576,13.576,0,0,0-.566,1.481c.986,13.359,5.186,26.59,11.119,38.853,5.5-4.673,11.852-7.874,18.309-11.077Z" transform="translate(-177.591 -129.634)" fill="#26a69a"/>
            <g id="Grupo_877692" data-name="Grupo 877692" transform="translate(0 7.239)">
              <path id="Trazado_604707" data-name="Trazado 604707" d="M187.615,182.061c.578,1.527,1.154,3.01,1.716,4.421,7.042-4.913,13.852-9.752,21.221-13.923q-.873-2.119-1.744-4.24C201.192,172.1,193.72,175.866,187.615,182.061Z" transform="translate(-178.454 -140.544)" fill="#42b2a7"/>
              <path id="Trazado_604708" data-name="Trazado 604708" d="M177.512,146.022c.186,7.188,4.744,21.507,9.143,33.128.93-.944,1.9-1.826,2.885-2.665-5.933-12.262-10.134-25.494-11.119-38.853A25.093,25.093,0,0,0,177.512,146.022Z" transform="translate(-177.494 -137.632)" fill="#208c82"/>
              <path id="Trazado_604709" data-name="Trazado 604709" d="M216.66,185.633,212.7,176c-5.585,4.667-10.938,9.582-16.535,14.436,2,4.224,4.21,8.306,6.429,12.48,2.153,4.049,4.94,6.047,9.56,6.055,4.394.007,34.059-14.438,48.165-28.168-2.218-3.306-4.211-6.72-5.013-10.439C240.567,174.962,230.767,176.762,216.66,185.633Z" transform="translate(-179.265 -140.738)" fill="#ffab91"/>
              <path id="Trazado_604710" data-name="Trazado 604710" d="M266.038,168.76c-1.572.522-3.068,1-4.533,1.454.8,3.718,2.8,7.132,5.013,10.439a41.9,41.9,0,0,0,3.825-4.211C268.955,173.973,267.425,171.229,266.038,168.76Z" transform="translate(-185.465 -140.586)" fill="#eee"/>
              <path id="Trazado_604711" data-name="Trazado 604711" d="M211.083,173a189.01,189.01,0,0,0-17.876,11.588c.83,2.083,1.733,4.1,2.677,6.1,5.6-4.853,10.949-9.769,16.535-14.436Z" transform="translate(-178.985 -140.988)" fill="#ff8a65"/>
            </g>
            <path id="Trazado_604712" data-name="Trazado 604712" d="M212.79,170.2q-4.247-10.168-7.506-20.706c-.172-.555-1.045-.319-.873.241q3.254,10.526,7.506,20.705C212.139,170.974,213.015,170.742,212.79,170.2Z" transform="translate(-180.046 -131.489)" fill="#00897b"/>
            <path id="Trazado_604713" data-name="Trazado 604713" d="M302.391,175.819l-25.829-13.159a1.487,1.487,0,0,1-.65-2h0a1.486,1.486,0,0,1,2-.649l25.829,13.159a1.487,1.487,0,0,1,.65,2h0A1.486,1.486,0,0,1,302.391,175.819Z" transform="translate(-186.817 -132.501)" fill="#015369"/>
            <g id="Grupo_877694" data-name="Grupo 877694" transform="translate(78.749 29.784)">
              <g id="Grupo_877693" data-name="Grupo 877693">
                <path id="Trazado_604714" data-name="Trazado 604714" d="M291.447,166.243a4.294,4.294,0,0,1,1.377,1.028,1.606,1.606,0,0,1,.289,1.618,1.685,1.685,0,0,1-1.779.79,6.46,6.46,0,0,1-1.928-.769,13.99,13.99,0,0,0-6.9-1.449,25.065,25.065,0,0,1-3.67.162c-4.216-.416-4.3-5.335.205-5.072A30.173,30.173,0,0,1,291.447,166.243Z" transform="translate(-265.558 -162.541)" fill="#eee"/>
                <path id="Trazado_604715" data-name="Trazado 604715" d="M291.181,170.864a4.3,4.3,0,0,1,1.377,1.028,1.607,1.607,0,0,1,.289,1.618,1.685,1.685,0,0,1-1.779.79,6.438,6.438,0,0,1-1.928-.769,13.99,13.99,0,0,0-6.9-1.449,24.939,24.939,0,0,1-3.67.162c-4.216-.415-4.3-5.335.205-5.072A30.172,30.172,0,0,1,291.181,170.864Z" transform="translate(-265.533 -162.979)" fill="#eee"/>
                <path id="Trazado_604716" data-name="Trazado 604716" d="M288.042,174.1a4.291,4.291,0,0,1,1.376,1.028,1.607,1.607,0,0,1,.289,1.618,1.684,1.684,0,0,1-1.779.79,6.427,6.427,0,0,1-1.928-.769,14,14,0,0,0-6.9-1.449,24.927,24.927,0,0,1-3.669.162c-4.216-.415-4.3-5.335.205-5.071A30.162,30.162,0,0,1,288.042,174.1Z" transform="translate(-265.235 -163.286)" fill="#eee"/>
                <path id="Trazado_604717" data-name="Trazado 604717" d="M284,176.678a3.509,3.509,0,0,1,1.124.84,1.31,1.31,0,0,1,.235,1.321,1.373,1.373,0,0,1-1.452.644,5.258,5.258,0,0,1-1.574-.628,11.423,11.423,0,0,0-5.636-1.183,20.4,20.4,0,0,1-3,.132c-3.442-.339-3.514-4.355.168-4.141A24.625,24.625,0,0,1,284,176.678Z" transform="translate(-265.126 -163.595)" fill="#eee"/>
                <path id="Trazado_604718" data-name="Trazado 604718" d="M277.427,162.547a21.287,21.287,0,0,0-6.631,1.579,10.147,10.147,0,0,0-5.777,5.176,6.249,6.249,0,0,0,1.567,7.237,6.957,6.957,0,0,0,4.485,1.24,10.728,10.728,0,0,0,9.9-13.839Z" transform="translate(-264.499 -162.541)" fill="#eee"/>
              </g>
            </g>
          </g>
          <g id="Grupo_877705" data-name="Grupo 877705" transform="translate(57.26)">
            <g id="Grupo_877699" data-name="Grupo 877699">
              <g id="Grupo_877698" data-name="Grupo 877698">
                <g id="Grupo_877696" data-name="Grupo 877696" transform="translate(0 27.028)">
                  <path id="Trazado_604719" data-name="Trazado 604719" d="M216.258,102.249a109.189,109.189,0,0,1-4.193,21.578,4,4,0,0,0,1,4.008,16.382,16.382,0,0,0,11.029,4.707,3.957,3.957,0,0,0,3.982-3.635,130.826,130.826,0,0,1,1.983-13.991C226.96,109.233,222,105.238,216.258,102.249Z" transform="translate(-211.89 -102.249)" fill="#ffab91"/>
                  <path id="Trazado_604720" data-name="Trazado 604720" d="M230.442,114.915c-3.1-5.683-8.058-9.677-13.8-12.666q-.263,2.885-.683,5.753c2.621,6.607,7.032,13.573,12.844,17.6C229.2,122.062,229.728,118.588,230.442,114.915Z" transform="translate(-212.277 -102.249)" fill="#ff8a65"/>
                </g>
                <path id="Trazado_604721" data-name="Trazado 604721" d="M215.409,97.4l-.9-9.83a11.427,11.427,0,0,1,.307-5.1c.611-1.607,3.136-5.5,4.835-5.234,5.62-5.841,13.464-5.649,21.232-3.336a11.883,11.883,0,0,1,6.808,4.545c1.737,2.709,1.684,6.192,1.121,9.362-.671,3.776-2.135,7.648-5.194,9.961-2.914,2.2-6.78,2.63-10.432,2.632A54.816,54.816,0,0,1,215.409,97.4Z" transform="translate(-212.126 -72.387)" fill="#873c26"/>
                <path id="Trazado_604722" data-name="Trazado 604722" d="M216.183,98.279q-.414-4.536-.827-9.071a10.553,10.553,0,0,1,.283-4.708c.564-1.483,2.895-5.075,4.461-4.83,5.186-5.39,12.424-5.213,19.593-3.079a10.965,10.965,0,0,1,6.282,4.193c1.6,2.5,1.555,5.715,1.035,8.639-.619,3.485-1.97,7.058-4.794,9.191-2.688,2.031-6.256,2.428-9.626,2.429A50.615,50.615,0,0,1,216.183,98.279Z" transform="translate(-212.207 -72.654)" fill="#6c301e"/>
                <g id="Grupo_877697" data-name="Grupo 877697" transform="translate(0.082 10.381)">
                  <path id="Trazado_604723" data-name="Trazado 604723" d="M243.8,93.1c-.376,10.3-7.731,28.236-13.163,26.681a20.87,20.87,0,0,1-13.972-17.165,2.213,2.213,0,0,1-1.783.261,4.267,4.267,0,0,1-2.171-2.192c-.677-1.518-1.241-3.8,0-5.192,1.5-1.674,4.17-1.612,4.895.778.634-4.287,2.931-7.91,5.089-11.666a28.192,28.192,0,0,1,20.563,3.12A22.577,22.577,0,0,1,243.8,93.1Z" transform="translate(-211.981 -83.856)" fill="#ffab91"/>
                  <path id="Trazado_604724" data-name="Trazado 604724" d="M234.209,92.564c-1.271-2.335-5.972-1.676-7.84-.634-.341.19-.756.437-.792.871a.518.518,0,0,0,.281.538c.479.231,1.03-.106,1.487-.253a7.2,7.2,0,0,1,4.2-.086,8.847,8.847,0,0,0,2.155.691C234.3,93.7,234.432,92.973,234.209,92.564Z" transform="translate(-213.27 -84.532)" fill="#6c301e"/>
                  <path id="Trazado_604725" data-name="Trazado 604725" d="M231.6,96.188a1.031,1.031,0,0,0-.8-.763l-.27-.009a1,1,0,0,0-.48.179c-.063.058-.127.116-.189.175a1,1,0,0,0-.221.476l-.018.106a.974.974,0,0,0,.454,1.009.765.765,0,0,0,.367.15l.27.009a.99.99,0,0,0,.48-.18l.189-.174a1.008,1.008,0,0,0,.221-.476l.018-.107A.752.752,0,0,0,231.6,96.188Z" transform="translate(-213.653 -84.953)" fill="#3b1411"/>
                  <path id="Trazado_604726" data-name="Trazado 604726" d="M243.458,98.908a1.038,1.038,0,0,0-.8-.763l-.269-.009a.993.993,0,0,0-.481.18l-.189.174a1,1,0,0,0-.22.476l-.018.107a1.03,1.03,0,0,0,.821,1.159l.269.01a1.015,1.015,0,0,0,.481-.18l.189-.175a1,1,0,0,0,.22-.476l.018-.106A.764.764,0,0,0,243.458,98.908Z" transform="translate(-214.778 -85.211)" fill="#3b1411"/>
                  <path id="Trazado_604727" data-name="Trazado 604727" d="M239.618,104.707a18.567,18.567,0,0,0-.135-4.933c-.134-.835-.666-2.011-.208-2.755a23.4,23.4,0,0,1,1.723-2c.231-.3-.153-.768-.465-.5a13.726,13.726,0,0,0-1.574,1.676,1.971,1.971,0,0,0-.6,1.445c.044.737.338,1.474.455,2.2a17.279,17.279,0,0,1,.213,2.358,15.339,15.339,0,0,1-.5,4.556c-.515,1.778-3.327.309-4.516.243-.319-.017-.595.385-.287.62a4.7,4.7,0,0,0,2.223.666,5.557,5.557,0,0,0,2.177-.022C239.453,107.855,239.5,105.832,239.618,104.707Z" transform="translate(-214.031 -84.86)" fill="#ff8a65"/>
                  <path id="Trazado_604728" data-name="Trazado 604728" d="M245.858,96.049a3.043,3.043,0,0,0-1.775-1.681,4.739,4.739,0,0,0-2.335-.444.751.751,0,0,0-.67.723c-.023.615.484.723.96.811a4.843,4.843,0,0,1,1.793.66c.372.239,2.293,1.647,2.1.247A1.961,1.961,0,0,0,245.858,96.049Z" transform="translate(-214.741 -84.81)" fill="#6c301e"/>
                  <path id="Trazado_604729" data-name="Trazado 604729" d="M234,114.089a7.3,7.3,0,0,0-2-.379,9.017,9.017,0,0,1-1.947-.615,8.836,8.836,0,0,1-1.731-.984c-.278-.205-.542-.429-.807-.651s-.512-.512-.853-.555a.327.327,0,0,0-.374.348c-.007.358.31.676.535.926a6.57,6.57,0,0,0,.813.749,9.224,9.224,0,0,0,4.174,1.889,3.248,3.248,0,0,0,2.243-.12A.357.357,0,0,0,234,114.089Z" transform="translate(-213.338 -86.423)" fill="#3b1411"/>
                  <path id="Trazado_604730" data-name="Trazado 604730" d="M232.233,116.413a3.476,3.476,0,0,0-.962-.166,6.7,6.7,0,0,1-.839-.2,8.271,8.271,0,0,1-.847-.328,2.843,2.843,0,0,0-.911-.353.393.393,0,0,0-.381.6,1.839,1.839,0,0,0,.829.66,5.637,5.637,0,0,0,.921.4,7.882,7.882,0,0,0,1.016.271,2.243,2.243,0,0,0,1.138.046A.514.514,0,0,0,232.233,116.413Z" transform="translate(-213.523 -86.846)" fill="#ff8a65"/>
                  <path id="Trazado_604731" data-name="Trazado 604731" d="M216.258,101.175a.641.641,0,0,1-.748-.555.6.6,0,0,1,.255-.452.587.587,0,0,1,.473-.148.406.406,0,0,0,.467-.436,2.466,2.466,0,0,0-2.019-2.422,1.551,1.551,0,0,0-1.409.649,1.123,1.123,0,0,0-.193.731c.012.15.13.553.366.4.14-.09.129-.259.195-.395a1.455,1.455,0,0,1,.267-.394.848.848,0,0,1,.856-.2,1.626,1.626,0,0,1,1.066,1.306,1.318,1.318,0,0,0-1,1.38,1.386,1.386,0,0,0,1.5,1.22C216.769,101.808,216.7,101.1,216.258,101.175Z" transform="translate(-212.085 -85.118)" fill="#ff8a65"/>
                </g>
              </g>
            </g>
            <g id="Grupo_877700" data-name="Grupo 877700" transform="translate(3.377 21.569)">
              <path id="Trazado_604732" data-name="Trazado 604732" d="M238.949,103.16l-.082-.021c-.111,5.2-1.165,11-5.42,14.406a13.637,13.637,0,0,1-7.85,2.011,26.433,26.433,0,0,0,4.972,2.059,7.387,7.387,0,0,0,4.167.373c2.241-.594,3.668-2.75,4.726-4.812a46.571,46.571,0,0,0,3.846-10.047C242.129,105.646,240.781,103.646,238.949,103.16Z" transform="translate(-216.568 -96.875)" fill="#e0e0e0"/>
              <path id="Trazado_604733" data-name="Trazado 604733" d="M221.912,103.268a72.75,72.75,0,0,0-3.82-6.8c-.311-.491-.792-.174-.479.32a72.41,72.41,0,0,1,3.719,7.343,15.645,15.645,0,0,0-1.036,7.152,43.934,43.934,0,0,1-3.846-6.567c-.249-.527-1.029-.068-.782.456a44.328,44.328,0,0,0,4.91,8,14.65,14.65,0,0,0,.447,1.658,7.583,7.583,0,0,0,3.624,4.075,13.637,13.637,0,0,0,7.85-2.011c4.255-3.4,5.308-9.21,5.42-14.406A24.71,24.71,0,0,0,221.912,103.268Z" transform="translate(-215.621 -96.218)" fill="#eee"/>
            </g>
            <g id="Grupo_877701" data-name="Grupo 877701" transform="translate(13.478 18.013)">
              <path id="Trazado_604734" data-name="Trazado 604734" d="M231.315,101.356a4.534,4.534,0,1,1,4.534-4.534A4.539,4.539,0,0,1,231.315,101.356Zm0-8.162a3.629,3.629,0,1,0,3.629,3.629A3.632,3.632,0,0,0,231.315,93.194Z" transform="translate(-226.781 -92.289)" fill="#212121"/>
            </g>
            <g id="Grupo_877702" data-name="Grupo 877702" transform="translate(25.223 20.877)">
              <path id="Trazado_604735" data-name="Trazado 604735" d="M244.292,104.52a4.533,4.533,0,1,1,4.532-4.533A4.538,4.538,0,0,1,244.292,104.52Zm0-8.161a3.628,3.628,0,1,0,3.627,3.629A3.632,3.632,0,0,0,244.292,96.358Z" transform="translate(-239.758 -95.453)" fill="#212121"/>
            </g>
            <g id="Grupo_877703" data-name="Grupo 877703" transform="translate(21.877 21.035)">
              <path id="Trazado_604736" data-name="Trazado 604736" d="M240.168,97.814a3.549,3.549,0,0,0-3.814-1.111l-.293-.856a4.483,4.483,0,0,1,4.814,1.4Z" transform="translate(-236.061 -95.627)" fill="#212121"/>
            </g>
            <g id="Grupo_877704" data-name="Grupo 877704" transform="translate(3.752 20.223)">
              <path id="Trazado_604737" data-name="Trazado 604737" d="M226.634,95.768l-8.994-.132-1.6-.905,10.611.132Z" transform="translate(-216.036 -94.731)" fill="#212121"/>
            </g>
          </g>
        </g>
        <g id="Grupo_877707" data-name="Grupo 877707" transform="translate(28.87 232.063)">
          <path id="Trazado_604738" data-name="Trazado 604738" d="M220.238,334.943H143.919a13.619,13.619,0,0,1-13.6-13.6V308.558a1.358,1.358,0,0,1,2.715,0v12.783a10.9,10.9,0,0,0,10.889,10.888h76.319a1.358,1.358,0,1,1,0,2.715Z" transform="translate(-130.315 -307.2)" fill="#546e7a"/>
        </g>
        <path id="Trazado_604739" data-name="Trazado 604739" d="M143.382,319.176,123.658,297c-1.163-1.307-3.012.683-1.858,1.98l19.725,22.174C142.687,322.463,144.536,320.474,143.382,319.176Z" transform="translate(-100.602 -74.128)" fill="#211714"/>
        <g id="Grupo_877722" data-name="Grupo 877722" transform="translate(21.118 96.93)">
          <g id="Grupo_877710" data-name="Grupo 877710" transform="translate(0 66.793)">
            <path id="Trazado_604740" data-name="Trazado 604740" d="M148.313,307.479c-1.37,1.195-2.708,2.352-4,3.457l-5.673-6.482,3.66-3.842Z" transform="translate(-123.353 -238.234)" fill="#ffab91"/>
            <g id="Grupo_877709" data-name="Grupo 877709">
              <g id="Grupo_877708" data-name="Grupo 877708" transform="translate(0 53.697)">
                <path id="Trazado_604741" data-name="Trazado 604741" d="M151.227,305.659l-5.847-7.371c-4.241.166-17.661-9.139-21.676-6.926l20,23.539A58.469,58.469,0,0,0,151.227,305.659Z" transform="translate(-121.936 -291.022)" fill="#015369"/>
                <path id="Trazado_604742" data-name="Trazado 604742" d="M123.519,291.4c-.385.212-.77.421-1.147.65a1.061,1.061,0,0,0-.441,1.523l19.085,22.464a1.027,1.027,0,0,0,1.473-.078c.348-.336.69-.677,1.029-1.02Z" transform="translate(-121.75 -291.058)" fill="#eee"/>
              </g>
              <path id="Trazado_604743" data-name="Trazado 604743" d="M259.54,238.649a13.317,13.317,0,0,0-16.713-5.974l-4.13,1.674c-14.342,5.816-31.026,4.09-46.625,5.47a11.055,11.055,0,0,0-7.878,4.367c-11.494,15.331-24.23,31.383-35.5,46.583,2.692,2.856,5.287,6.065,7.979,8.92A79.068,79.068,0,0,0,189.456,265.6a7.4,7.4,0,0,1,7.335-4.081c16.153,1.559,60.05,2.79,63.355-1.693,2.71-3.674,3.2-12.714,1.455-16.932A46.52,46.52,0,0,0,259.54,238.649Z" transform="translate(-124.307 -231.695)" fill="#353535"/>
              <path id="Trazado_604744" data-name="Trazado 604744" d="M189.945,260.486c-1.81-.905-4.526-1.81-6.336-2.715,19.913,4.526,39.825-1.81,59.738-2.715a160.468,160.468,0,0,0-8.1-19.071c-13.531,4.32-28.812,2.971-43.177,4.241a11.055,11.055,0,0,0-7.878,4.367c-11.494,15.331-24.23,31.383-35.5,46.583,1.442,1.529,2.856,3.158,4.271,4.781C168.8,289.9,179.938,274.068,189.945,260.486Z" transform="translate(-124.307 -232.102)" fill="#353535"/>
              <path id="Trazado_604745" data-name="Trazado 604745" d="M262.049,242.894a46.52,46.52,0,0,0-2.062-4.245,13.317,13.317,0,0,0-16.713-5.974l-4.13,1.674c-1.134.46-2.287.858-3.448,1.228a160.463,160.463,0,0,1,8.1,19.071c-19.912.905-39.825,7.241-59.738,2.715,1.81.905,4.526,1.81,6.336,2.715-10.008,13.581-21.148,29.412-36.98,35.471,1.228,1.408,2.457,2.813,3.708,4.139A79.068,79.068,0,0,0,189.9,265.6a7.4,7.4,0,0,1,7.335-4.081c16.153,1.559,60.05,2.79,63.355-1.693C263.3,256.152,263.8,247.112,262.049,242.894Z" transform="translate(-124.755 -231.695)" fill="#262626"/>
            </g>
            <path id="Trazado_604746" data-name="Trazado 604746" d="M147.652,298.917l1.516-1.274,6.451,7.274-2.121,1.371Z" transform="translate(-124.208 -237.953)" fill="#ffab91"/>
          </g>
          <path id="Trazado_604747" data-name="Trazado 604747" d="M312,201.172c-9.036-2.447-16.027,1.319-23.263,6.868-3.926,3.01-9.216,7.476-12.939,10.7-4.731,4.1-25.108,8.328-26.752,10.679-1.576,2.254.06,4.157,1.009,6.711,2.075,5.578,3.572,10.657,6.269,16.1,1.6,3.24,2.619,4.2,4.879,6.821,2.948.311,14.29,1.151,17,.041,13.884-5.691,21.677-16.22,32.355-26.248,4.546-4.27,13.043-15.329,14.549-21.19S318.22,202.858,312,201.172Z" transform="translate(-133.766 -161.934)" fill="#284b63"/>
          <path id="Trazado_604748" data-name="Trazado 604748" d="M253.712,237.2c.905,7.241,6.336,17.2,8.146,17.2,25.98-.7,49.229-22.106,63-46.035-1.659-3.733-7.936-5.855-12.862-7.188-9.036-2.447-16.027,1.319-23.263,6.868-3.926,3.01-9.216,7.476-12.939,10.7-4.731,4.1-25.108,8.328-26.752,10.679-1.576,2.254.06,4.157,1.009,6.711.966,2.6,1.808,5.083,2.7,7.55A15.225,15.225,0,0,1,253.712,237.2Z" transform="translate(-133.766 -161.934)" fill="#284b63"/>
          <path id="Trazado_604749" data-name="Trazado 604749" d="M262.313,255.229c-1.81,0-7.241-9.956-8.146-17.2a15.226,15.226,0,0,0-.957,6.484,81.129,81.129,0,0,0,3.566,8.553c1.6,3.24,2.619,4.2,4.879,6.821,2.948.311,14.29,1.151,17,.041,13.884-5.691,21.677-16.22,32.355-26.248,4.547-4.27,13.043-15.329,14.549-21.19a4.893,4.893,0,0,0-.244-3.3C311.542,233.123,288.292,254.527,262.313,255.229Z" transform="translate(-134.221 -162.767)" fill="#1d3647"/>
          <g id="Grupo_877716" data-name="Grupo 877716" transform="translate(177.716)">
            <g id="Grupo_877715" data-name="Grupo 877715">
              <path id="Trazado_604750" data-name="Trazado 604750" d="M329.252,169.785a8.12,8.12,0,0,1,2.5-5.274,3.626,3.626,0,0,1,2.386-1.147,5.171,5.171,0,0,1,1.48-2.821,3.524,3.524,0,0,1,2.617-1.176,2.085,2.085,0,0,1,2,1.814,6.317,6.317,0,0,1,4.605-3.227,4.043,4.043,0,0,1,2.711.458c1.4.874,1.814,2.682,2.11,4.3a4.492,4.492,0,0,1,5.5.476,4.367,4.367,0,0,1,.414,5.419,2.645,2.645,0,0,1,2.537.64,3.883,3.883,0,0,1,.713,2.538,5.422,5.422,0,0,1-2.307,4.167,3.794,3.794,0,0,1,1.2,4.178,6.4,6.4,0,0,1-3.349,2.957,1.632,1.632,0,0,1-.879.23.588.588,0,0,1-.545-.615,4.466,4.466,0,0,1-1.565,3.854,9.805,9.805,0,0,1-3.949,2.061,20.891,20.891,0,0,1-9.02.653Z" transform="translate(-319.155 -157.9)" fill="#382c28"/>
              <path id="Trazado_604751" data-name="Trazado 604751" d="M329.358,171.07a7.686,7.686,0,0,1,2.368-4.993,3.43,3.43,0,0,1,2.259-1.085,4.879,4.879,0,0,1,1.4-2.671,3.331,3.331,0,0,1,2.476-1.113,1.974,1.974,0,0,1,1.891,1.717,5.98,5.98,0,0,1,4.36-3.055,3.823,3.823,0,0,1,2.565.434c1.321.827,1.717,2.539,2,4.073a4.254,4.254,0,0,1,5.21.451,4.133,4.133,0,0,1,.391,5.13,2.5,2.5,0,0,1,2.4.606,3.672,3.672,0,0,1,.675,2.4,5.129,5.129,0,0,1-2.184,3.945,3.592,3.592,0,0,1,1.131,3.955,6.058,6.058,0,0,1-3.17,2.8,1.535,1.535,0,0,1-.832.216.555.555,0,0,1-.516-.581,4.227,4.227,0,0,1-1.482,3.649,9.27,9.27,0,0,1-3.738,1.951,19.771,19.771,0,0,1-8.539.619Z" transform="translate(-319.165 -158.082)" fill="#211714"/>
              <g id="Grupo_877713" data-name="Grupo 877713" transform="translate(0 7.789)">
                <g id="Grupo_877711" data-name="Grupo 877711" transform="translate(0 24.111)">
                  <path id="Trazado_604752" data-name="Trazado 604752" d="M338.664,195.292a23.045,23.045,0,0,0-13.5-1.779,95.251,95.251,0,0,1-6.872,7.64,2.655,2.655,0,0,0-.2.234c3.88,1.512,7.665,4.384,11.984,4.912C332.524,202.908,335.717,198.257,338.664,195.292Z" transform="translate(-318.097 -193.144)" fill="#ffab91"/>
                  <path id="Trazado_604753" data-name="Trazado 604753" d="M325.361,193.513a23.045,23.045,0,0,1,13.5,1.779q-1.485,1.495-2.887,3.067c-4.906,1.624-10.847,2.418-15.805,1.058C321.956,197.541,323.647,195.627,325.361,193.513Z" transform="translate(-318.294 -193.144)" fill="#ff8a65"/>
                </g>
                <g id="Grupo_877712" data-name="Grupo 877712" transform="translate(0.019)">
                  <path id="Trazado_604754" data-name="Trazado 604754" d="M328.991,169.145c-6.65,6-15.778,16.568-7.705,23.618,5.041,4.4,10.983,3.552,16.5-.231-.1.064.206.871.82,1.333a3.7,3.7,0,0,0,2.671.224c1.388-.4,3.222-1.293,3.455-2.9.28-1.932-1.252-3.677-3.247-2.827,2.5-2.814,3.631-6.366,4.929-9.9a24.494,24.494,0,0,0-13.546-11.958A19.592,19.592,0,0,0,328.991,169.145Z" transform="translate(-318.118 -166.505)" fill="#ffab91"/>
                  <path id="Trazado_604755" data-name="Trazado 604755" d="M338.761,175.824c2.2-.7,4.75,2.544,5.294,4.322a1.093,1.093,0,0,1-.027,1.022.453.453,0,0,1-.5.168c-.439-.144-.581-.687-.778-1.054a6.278,6.278,0,0,0-2.578-2.58,7.671,7.671,0,0,1-1.766-.864C338.021,176.484,338.375,175.947,338.761,175.824Z" transform="translate(-320.028 -167.38)" fill="#211714"/>
                  <path id="Trazado_604756" data-name="Trazado 604756" d="M330.132,170.1a2.641,2.641,0,0,1,2.106.264,4.119,4.119,0,0,1,1.585,1.323.653.653,0,0,1-.115.849c-.4.354-.753.073-1.074-.2a4.211,4.211,0,0,0-1.432-.84c-.365-.119-2.369-.631-1.322-1.272A1.646,1.646,0,0,1,330.132,170.1Z" transform="translate(-319.206 -166.834)" fill="#211714"/>
                  <path id="Trazado_604757" data-name="Trazado 604757" d="M323.194,191.6a2.971,2.971,0,0,1,.646.548,5.908,5.908,0,0,0,.6.449,7.444,7.444,0,0,0,.691.382,2.459,2.459,0,0,1,.743.409.342.342,0,0,1-.19.592,1.6,1.6,0,0,1-.9-.185A4.93,4.93,0,0,1,324,193.4a6.9,6.9,0,0,1-.746-.525,1.954,1.954,0,0,1-.665-.733A.446.446,0,0,1,323.194,191.6Z" transform="translate(-318.541 -168.883)" fill="#ff8a65"/>
                  <path id="Trazado_604758" data-name="Trazado 604758" d="M342.1,193.8a.556.556,0,0,0,.787.189.52.52,0,0,0,.158-.422.511.511,0,0,0-.166-.4.352.352,0,0,1,.029-.554,2.141,2.141,0,0,1,2.739-.006,1.349,1.349,0,0,1,.355,1.3.981.981,0,0,1-.379.537c-.107.076-.442.222-.472-.019-.018-.144.1-.232.155-.35a1.289,1.289,0,0,0,.113-.4.735.735,0,0,0-.344-.682,1.411,1.411,0,0,0-1.464.018,1.146,1.146,0,0,1-.359,1.439,1.2,1.2,0,0,1-1.647-.317C341.393,193.81,341.9,193.466,342.1,193.8Z" transform="translate(-320.342 -168.935)" fill="#ff8a65"/>
                </g>
              </g>
              <path id="Trazado_604759" data-name="Trazado 604759" d="M330.561,176.775a6.393,6.393,0,0,0-5.246,2.3,3.862,3.862,0,0,0,.181,4.965c.35.365.853-.241.505-.6a3.1,3.1,0,0,1,.084-4.074,5.784,5.784,0,0,1,4.545-1.8C331.135,177.555,331.064,176.771,330.561,176.775Z" transform="translate(-318.705 -159.691)" fill="#ff8a65"/>
              <g id="Grupo_877714" data-name="Grupo 877714" transform="translate(3.269 24.909)">
                <path id="Trazado_604760" data-name="Trazado 604760" d="M329.711,191.709a2.033,2.033,0,0,0,.118-.421,3.5,3.5,0,0,0-.339-1.9c-.033-.075-.067-.148-.1-.221a6.653,6.653,0,0,0-1.092-1.6,7.055,7.055,0,0,0-1.5-1.237,6.854,6.854,0,0,0-1.776-.772,1.9,1.9,0,0,0-.889-.114,4.354,4.354,0,0,0-.883.316,2.667,2.667,0,0,0-1.007,4.024C325.214,187.654,327.8,189.438,329.711,191.709Z" transform="translate(-321.709 -185.42)" fill="#610d25"/>
                <path id="Trazado_604761" data-name="Trazado 604761" d="M322.291,190.139c.035.048.067.1.107.145a5.4,5.4,0,0,0,1.843,1.227l2.473,1.191a2.864,2.864,0,0,0,2.029.409,1.693,1.693,0,0,0,1.024-1.045C327.86,189.8,325.269,188.011,322.291,190.139Z" transform="translate(-321.764 -185.778)" fill="#8c1335"/>
              </g>
            </g>
            <path id="Trazado_604762" data-name="Trazado 604762" d="M338.944,181.666l-.038,0-.024,0-.135-.024c-.074-.015-.148-.032-.222-.052-.089-.024-.176-.051-.262-.081l-.107-.039c-.021-.008-.1-.039-.04-.014a3.779,3.779,0,0,1-.447-.23c-.079-.047-.156-.1-.23-.149l-.093-.067c-.024-.018-.024-.018,0,0l-.053-.043a3.867,3.867,0,0,1-.646-.674,3.764,3.764,0,0,1-.262-.428c-.036-.07-.07-.14-.1-.212-.005-.015-.03-.076-.03-.076-.015-.043-.031-.086-.045-.129a.464.464,0,0,0-.557-.317.456.456,0,0,0-.316.557,4.321,4.321,0,0,0,3.607,2.891.456.456,0,0,0,.453-.453A.462.462,0,0,0,338.944,181.666Z" transform="translate(-319.731 -159.912)" fill="#3b1411"/>
            <path id="Trazado_604763" data-name="Trazado 604763" d="M330.012,176.106a.46.46,0,0,0-.557-.316c-.055.017-.11.033-.166.045l-.087.016a1.378,1.378,0,0,0-.182.013c-.057,0-.114,0-.17,0l-.082-.007h0c-.056-.012-.112-.021-.167-.034s-.122-.033-.181-.053c-.026-.009-.111-.046-.116-.047a2.755,2.755,0,0,1-.27-.145c-.038-.024-.074-.051-.111-.078,0,0-.078-.065-.094-.081-.042-.038-.082-.079-.12-.12-.023-.025-.045-.051-.068-.077l0,0a2.572,2.572,0,0,1-.183-.308.456.456,0,0,0-.619-.163.465.465,0,0,0-.163.619,2.6,2.6,0,0,0,3.024,1.3A.461.461,0,0,0,330.012,176.106Z" transform="translate(-318.905 -159.492)" fill="#3b1411"/>
          </g>
          <g id="Grupo_877721" data-name="Grupo 877721" transform="translate(102.439 40.912)">
            <g id="Grupo_877720" data-name="Grupo 877720">
              <g id="Grupo_877718" data-name="Grupo 877718" transform="translate(0 25.086)">
                <path id="Trazado_604764" data-name="Trazado 604764" d="M255.624,234.2c10.912-2.278,19.749-4.348,27.41-2.9a18.105,18.105,0,0,1,2.317,9.2c-8.513,2.305-20.633,2.936-29.865.573a31.712,31.712,0,0,1-4.121-1.34l-.58-4.549C252.442,234.858,254.054,234.526,255.624,234.2Z" transform="translate(-236.433 -230.817)" fill="#ffab91"/>
                <g id="Grupo_877717" data-name="Grupo 877717" transform="translate(0 1.053)">
                  <path id="Trazado_604765" data-name="Trazado 604765" d="M236.106,233.843a2.651,2.651,0,0,0-.889.59,1,1,0,0,0-.235.994,1.049,1.049,0,0,0,1.076.551,3.994,3.994,0,0,0,1.222-.412,8.691,8.691,0,0,1,4.331-.661,15.5,15.5,0,0,0,2.27.226c2.628-.113,2.851-3.16.047-3.152A18.724,18.724,0,0,0,236.106,233.843Z" transform="translate(-234.929 -231.98)" fill="#ffab91"/>
                  <path id="Trazado_604766" data-name="Trazado 604766" d="M236.112,236.717a2.667,2.667,0,0,0-.889.591,1,1,0,0,0-.235.993,1.046,1.046,0,0,0,1.076.551,3.993,3.993,0,0,0,1.222-.411,8.7,8.7,0,0,1,4.331-.662,15.493,15.493,0,0,0,2.27.227c2.628-.113,2.852-3.16.047-3.152A18.751,18.751,0,0,0,236.112,236.717Z" transform="translate(-234.929 -232.253)" fill="#ffab91"/>
                  <path id="Trazado_604767" data-name="Trazado 604767" d="M237.947,238.83a2.667,2.667,0,0,0-.889.591,1,1,0,0,0-.234.993,1.044,1.044,0,0,0,1.076.551,4,4,0,0,0,1.221-.411,8.7,8.7,0,0,1,4.331-.661,15.642,15.642,0,0,0,2.27.226c2.628-.113,2.852-3.16.047-3.152A18.739,18.739,0,0,0,237.947,238.83Z" transform="translate(-235.103 -232.453)" fill="#ffab91"/>
                  <path id="Trazado_604768" data-name="Trazado 604768" d="M240.577,240.572a2.174,2.174,0,0,0-.726.482.813.813,0,0,0-.191.811.853.853,0,0,0,.878.45,3.259,3.259,0,0,0,1-.335,7.1,7.1,0,0,1,3.536-.54,12.692,12.692,0,0,0,1.853.186c2.146-.092,2.329-2.581.039-2.573A15.278,15.278,0,0,0,240.577,240.572Z" transform="translate(-235.373 -232.651)" fill="#ffab91"/>
                  <path id="Trazado_604769" data-name="Trazado 604769" d="M244.972,232a13.244,13.244,0,0,1,4.057,1.207,6.3,6.3,0,0,1,3.405,3.409,3.88,3.88,0,0,1-1.221,4.433,4.311,4.311,0,0,1-2.823.615,6.663,6.663,0,0,1-5.667-8.922Z" transform="translate(-235.631 -231.982)" fill="#ffab91"/>
                </g>
              </g>
              <g id="Grupo_877719" data-name="Grupo 877719" transform="translate(42.641)">
                <path id="Trazado_604770" data-name="Trazado 604770" d="M297.1,215.6c-3.093,2.705-13.871,14.073-14.9,16.176s3.124,7.807,5.17,7.467c1.438-.239,2.622-1.527,4.077-2.21,4.465-2.1,9.167-5.864,13.105-8.839Z" transform="translate(-282.039 -204.287)" fill="#ffab91"/>
                <path id="Trazado_604771" data-name="Trazado 604771" d="M303.35,225.687c7.157-2.386,12.3-7.287,16.493-13.245a9.026,9.026,0,0,0-1.635-6.5l-.049-.066a6.8,6.8,0,0,0-2.932-2.335,6.57,6.57,0,0,0-3.64-.317,10.5,10.5,0,0,0-1.183.293c-1.481,1.042-2.813,2.147-3.532,2.637-3.386,2.308-6.17,5.233-9.525,7.588a8.125,8.125,0,0,0-2.547,2.806c-.479,1.237-.122,1.426.428,2.633.2.44.409.876.623,1.311a22.323,22.323,0,0,0,1.872,2.99,5.469,5.469,0,0,1-.71-2.316C298.825,223.877,300.635,226.592,303.35,225.687Z" transform="translate(-283.229 -203.101)" fill="#284b63"/>
                <path id="Trazado_604772" data-name="Trazado 604772" d="M303.606,226.667c-2.715.905-4.526-1.81-6.336-4.526a5.469,5.469,0,0,0,.71,2.316c2.2,3.049,5.29,6.339,6.434,6.577.039.008,7.809-6.638,13.137-12.242a9.552,9.552,0,0,0,2.548-5.37C315.905,219.379,310.763,224.281,303.606,226.667Z" transform="translate(-283.485 -204.08)" fill="#1d3647"/>
              </g>
            </g>
            <path id="Trazado_604773" data-name="Trazado 604773" d="M303.675,207.852a66.952,66.952,0,0,0-9.386,9.317c-.367.445.269,1.09.64.64a66.958,66.958,0,0,1,9.387-9.317C304.768,208.124,304.124,207.487,303.675,207.852Z" transform="translate(-240.551 -203.542)" fill="#1d3647"/>
          </g>
        </g>
        <g id="Grupo_877729" data-name="Grupo 877729" transform="translate(87.212 116.215)">
          <path id="Trazado_604774" data-name="Trazado 604774" d="M388.708,436.2c-2.794-2.359-5.877-2.257-8.847-.913-3.562,1.612-6.777,4.734-10.256,6.718-3.438,1.961-7.349,2.936-10.671-.124-2.678-2.467-4.536-6.691-6.738-10.106-2.279-3.534-4.968-5.772-8.089-6.312-6.887-1.19-13.129,4.8-18.661,10.832-5.51,6-11.214,12.564-18.064,12.639a10.183,10.183,0,0,1-8.039-3.74c-2.64-3.079-4.051-7.987-4.562-13.168a114.856,114.856,0,0,1,.069-16.845q.506-10.241,1.013-20.483l2.008-40.622q1.009-20.4,2.017-40.793c.522-10.547,1.563-22.212-1.067-32.247a28.991,28.991,0,0,0-2.339-6.135c-.231-.439-.615.2-.385.64,4.31,8.19,4.085,20.01,3.618,30.19-.612,13.332-1.315,26.656-1.974,39.983q-1,20.311-2.008,40.622-.5,10.155-1,20.312c-.3,6.072-.74,12.18-.772,18.279-.028,5.184.325,10.6,1.9,15.179,1.388,4.042,3.646,6.931,6.285,8.418a10.866,10.866,0,0,0,8.3.887c3.144-.832,6.062-2.962,8.818-5.55,6.056-5.684,11.451-13.657,18.33-16.555,3.172-1.337,6.6-1.615,9.717.284,3.028,1.846,5.119,5.815,7.309,9.548,2.165,3.689,4.548,6.841,7.726,7.49,3.528.721,7.039-1.3,10.231-3.583,3.4-2.437,6.845-5.392,10.61-5.8,2.853-.311,5.891,1.341,7.815,4.967.9,1.7,3.469,7.888,3.523,10.155.014.581.559.584.545,0C394.95,445.85,391.051,438.179,388.708,436.2Z" transform="translate(-204.184 -188.273)" fill="#a3a3a3"/>
          <g id="Grupo_877725" data-name="Grupo 877725" transform="translate(8.703 87.934)">
            <g id="Grupo_877723" data-name="Grupo 877723" transform="translate(37.721 81.699)">
              <rect id="Rectángulo_48086" data-name="Rectángulo 48086" width="12.526" height="51.889" transform="translate(0 20.611)" fill="#bfbfbf"/>
              <path id="Trazado_604775" data-name="Trazado 604775" d="M258.59,367.163a.541.541,0,0,0-.541-.54H246.605a.541.541,0,0,0-.541.54v20.071H258.59Z" transform="translate(-246.064 -366.623)" fill="#a3a3a3"/>
            </g>
            <path id="Trazado_604776" data-name="Trazado 604776" d="M262.682,347.6a5.978,5.978,0,0,0-5.978-5.978h-9.713a5.978,5.978,0,0,0-5.978,5.978v6.189h21.669Z" transform="translate(-207.864 -282.552)" fill="#a3a3a3"/>
            <path id="Trazado_604777" data-name="Trazado 604777" d="M241.013,355.069v19.143a5.979,5.979,0,0,0,5.978,5.979H256.7a5.979,5.979,0,0,0,5.978-5.979V355.069Z" transform="translate(-207.864 -283.828)" fill="#bfbfbf"/>
            <path id="Trazado_604778" data-name="Trazado 604778" d="M282.073,461.755l-25.785-14.77a1.983,1.983,0,0,0-.986-.262H243.832a1.983,1.983,0,0,0-.986.262l-25.785,14.77c-.028.016-.051.036-.078.053H282.15C282.124,461.791,282.1,461.771,282.073,461.755Z" transform="translate(-205.584 -292.525)" fill="#d9d9d9"/>
            <path id="Trazado_604779" data-name="Trazado 604779" d="M282.054,463.39H216.888a1.98,1.98,0,0,0,1.064,3.649h63.04A1.979,1.979,0,0,0,282.054,463.39Z" transform="translate(-205.487 -294.106)" fill="#bfbfbf"/>
            <g id="Grupo_877724" data-name="Grupo 877724">
              <path id="Trazado_604780" data-name="Trazado 604780" d="M204.389,284.041l17,47.154a15.917,15.917,0,0,0,14.972,10.517h23.867a15.916,15.916,0,0,0,15.2-11.191l16.841-54.16Z" transform="translate(-204.389 -276.36)" fill="#d9d9d9"/>
              <path id="Trazado_604781" data-name="Trazado 604781" d="M207.191,292.617l14.468,40.12a15.917,15.917,0,0,0,14.972,10.517H260.5a15.916,15.916,0,0,0,15.2-11.191l12.265-39.446Z" transform="translate(-204.655 -277.902)" fill="#d9d9d9"/>
              <path id="Trazado_604782" data-name="Trazado 604782" d="M214.433,282.922,227.919,323.2a12.711,12.711,0,0,0,11.875,8.984h18.929a12.767,12.767,0,0,0,12.054-9.56l13.356-46.269Z" transform="translate(-205.342 -276.36)" fill="#bfbfbf"/>
              <path id="Trazado_604783" data-name="Trazado 604783" d="M292.271,276.36l-87.882,7.681,2.537,7.034H287.7Z" transform="translate(-204.389 -276.36)" fill="#a3a3a3" opacity="0.57" style="mix-blend-mode: multiply;isolation: isolate"/>
            </g>
          </g>
          <g id="Grupo_877726" data-name="Grupo 877726">
            <path id="Trazado_604784" data-name="Trazado 604784" d="M371.627,194.624l-8.37,12.784a9.96,9.96,0,0,1-13.789,2.876h0a9.96,9.96,0,0,1-2.876-13.789l8.371-12.784a9.96,9.96,0,0,1,13.788-2.876h0A9.96,9.96,0,0,1,371.627,194.624Z" transform="translate(-209.024 -179.207)" fill="#211714"/>
            <path id="Trazado_604785" data-name="Trazado 604785" d="M277.991,285.275H204.733a9.96,9.96,0,0,1-9.96-9.959h0a9.96,9.96,0,0,1,9.96-9.96h73.258a9.96,9.96,0,0,1,9.96,9.96h0A9.96,9.96,0,0,1,277.991,285.275Z" transform="translate(-194.773 -187.381)" fill="#211714"/>
            <path id="Trazado_604786" data-name="Trazado 604786" d="M350.46,219.331l-49,54.462a9.96,9.96,0,0,1-14.065.743h0a9.959,9.959,0,0,1-.743-14.065l49-54.462a9.959,9.959,0,0,1,14.065-.743h0A9.959,9.959,0,0,1,350.46,219.331Z" transform="translate(-203.249 -181.437)" fill="#211714"/>
          </g>
          <g id="Grupo_877728" data-name="Grupo 877728" transform="translate(29.5 55.799)">
            <g id="Grupo_877727" data-name="Grupo 877727" transform="translate(6.512 4.535)">
              <path id="Trazado_604787" data-name="Trazado 604787" d="M280.626,259.106v12.218a8.373,8.373,0,0,1-8.364,8.364H245.64a8.373,8.373,0,0,1-8.364-8.364V259.106h-2.715v12.218A11.092,11.092,0,0,0,245.64,282.4h26.621a11.092,11.092,0,0,0,11.079-11.079V259.106Z" transform="translate(-234.561 -247.121)" fill="#d9d9d9"/>
              <path id="Trazado_604788" data-name="Trazado 604788" d="M237.276,256.945a8.374,8.374,0,0,1,8.364-8.365h26.621a8.374,8.374,0,0,1,8.364,8.365v.9h2.715v-.9a11.092,11.092,0,0,0-11.079-11.08H245.64a11.092,11.092,0,0,0-11.079,11.08v.9h2.715Z" transform="translate(-234.561 -245.865)" fill="#bfbfbf"/>
            </g>
            <path id="Trazado_604789" data-name="Trazado 604789" d="M286.339,250.265H232.071a4.705,4.705,0,0,1-4.7-4.7h0a4.705,4.705,0,0,1,4.7-4.7h54.268a4.7,4.7,0,0,1,4.7,4.7h0A4.7,4.7,0,0,1,286.339,250.265Z" transform="translate(-227.366 -240.855)" fill="#211714"/>
          </g>
        </g>
        <g id="Grupo_877731" data-name="Grupo 877731" transform="translate(162.377 39.42)">
          <path id="Trazado_604790" data-name="Trazado 604790" d="M300.284,98.188a3.826,3.826,0,1,1-3.827-3.827A3.827,3.827,0,0,1,300.284,98.188Z" transform="translate(-279.224 -94.361)" fill="#d9d9d9"/>
          <path id="Trazado_604791" data-name="Trazado 604791" d="M299.846,98.634a3.088,3.088,0,1,1-3.088-3.088A3.087,3.087,0,0,1,299.846,98.634Z" transform="translate(-279.322 -94.473)" fill="#bfbfbf"/>
          <g id="Grupo_877730" data-name="Grupo 877730" transform="translate(0 1.477)">
            <path id="Trazado_604792" data-name="Trazado 604792" d="M317.06,103.68l-.093-.408-39.149,8.953.094.408a3.53,3.53,0,0,0,.612,1.321l38.6-9.19A3.5,3.5,0,0,0,317.06,103.68Z" transform="translate(-277.818 -96.684)" fill="#d9d9d9"/>
            <path id="Trazado_604793" data-name="Trazado 604793" d="M278.6,114.112a3.547,3.547,0,0,0,3.639,1.348l32.228-7.37a3.538,3.538,0,0,0,2.729-3.167Z" transform="translate(-277.892 -96.84)" fill="#ffe082"/>
            <path id="Trazado_604794" data-name="Trazado 604794" d="M313.374,102.876c-1.044-4.564-4.868-7.583-8.542-6.743L286.626,100.3c-3.674.84-5.805,5.222-4.762,9.786l.132.578,31.51-7.207Z" transform="translate(-278.177 -95.993)" fill="#bfbfbf"/>
            <path id="Trazado_604795" data-name="Trazado 604795" d="M310.416,104.011c-.822-3.6-3.834-5.973-6.728-5.311l-14.341,3.279c-2.894.662-4.573,4.113-3.751,7.708l.1.455,24.819-5.676Z" transform="translate(-278.536 -96.239)" fill="#d9d9d9"/>
          </g>
        </g>
        <g id="Grupo_877732" data-name="Grupo 877732" transform="translate(148.592)">
          <circle id="Elipse_5224" data-name="Elipse 5224" cx="3.826" cy="3.826" r="3.826" fill="#d9d9d9"/>
          <circle id="Elipse_5225" data-name="Elipse 5225" cx="3.088" cy="3.088" r="3.088" transform="translate(0.941 1.073)" fill="#bfbfbf"/>
        </g>
        <g id="Grupo_877733" data-name="Grupo 877733" transform="translate(93.578 0)">
          <path id="Trazado_604796" data-name="Trazado 604796" d="M209.459,54.635a3.826,3.826,0,1,1-3.827-3.826A3.827,3.827,0,0,1,209.459,54.635Z" transform="translate(-201.806 -50.809)" fill="#d9d9d9"/>
          <circle id="Elipse_5226" data-name="Elipse 5226" cx="3.088" cy="3.088" r="3.088" transform="translate(0.94 1.072)" fill="#bfbfbf"/>
        </g>
      </g>
      <path id="Trazado_604797" data-name="Trazado 604797" d="M310.452,471.706H19.065c-.835,0-1.511-.959-1.511-2.141h0c0-1.183.676-2.142,1.511-2.142H310.452c.835,0,1.511.959,1.511,2.142h0C311.963,470.746,311.287,471.706,310.452,471.706Z" transform="translate(-17.554 -90.34)" fill="#0273bc"/>
    </g>
  </g>
</svg>
