<svg xmlns="http://www.w3.org/2000/svg" width="167" height="167" viewBox="0 0 167 167">
  <g id="Grupo_878670" data-name="Grupo 878670" transform="translate(-405.83 -1259)">
    <circle id="Elipse_5247" data-name="Elipse 5247" cx="83.5" cy="83.5" r="83.5" transform="translate(405.83 1259)" fill="#fff"/>
    <g id="Grupo_878667" data-name="Grupo 878667">
      <g id="dentista" transform="translate(431.83 1275.002)">
        <g id="Grupo_878546" data-name="Grupo 878546" transform="translate(1.82 2.811)">
          <path id="Trazado_607392" data-name="Trazado 607392" d="M142.491,274.749a.514.514,0,0,1-.32-.475V251.885H118.734v22.389a.514.514,0,0,1-.32.475l-6.611,6.019,20.627,9.722,13.39-13.383Z" transform="translate(-86.501 -192.835)" fill="#ffdfcf"/>
          <g id="Grupo_878539" data-name="Grupo 878539" transform="translate(15.181)">
            <path id="Trazado_607393" data-name="Trazado 607393" d="M70.878,29.546l-.8,21.237,1.978,3.667,55.407-1.44-.138-4.031V39.455l.782-3.783-1.066-4.825-.5-1.3-.24-4.4a12.743,12.743,0,0,0-7.932-11.114l-.509-.5A12.743,12.743,0,0,0,107.74,9.96l-2.4.231L103.731,9.5A12.744,12.744,0,0,0,93.7,9.5l-1.609.689-2.4-.231A12.742,12.742,0,0,0,79.56,13.532l-.509.5a12.743,12.743,0,0,0-7.932,11.114Z" transform="translate(-70.083 -8.473)" fill="#b5adb6"/>
          </g>
          <path id="Trazado_607394" data-name="Trazado 607394" d="M240.4,174.872a6.542,6.542,0,0,0,0-13.085H227v12.777Z" transform="translate(-173.749 -124.594)" fill="#ffdfcf"/>
          <path id="Trazado_607395" data-name="Trazado 607395" d="M73.547,174.872a6.542,6.542,0,1,1,0-13.085H84.8v13.085H73.547Z" transform="translate(-52.571 -124.594)" fill="#ffcebf"/>
          <g id="Grupo_878545" data-name="Grupo 878545" transform="translate(0 13.903)">
            <path id="Trazado_607396" data-name="Trazado 607396" d="M118.735,251.885v22.389a.514.514,0,0,1-.32.475l-6.611,6.019,9.373,4.418,2.755-2.509a.514.514,0,0,0,.32-.476v-7.26a2.421,2.421,0,0,1,2.8-2.384,20.751,20.751,0,0,0,10.093-.95l.189-.066a27.159,27.159,0,0,0,4.834-2.272V251.885Z" transform="translate(-86.502 -206.739)" fill="#ffcebf"/>
            <g id="Grupo_878540" data-name="Grupo 878540" transform="translate(0 68.01)">
              <path id="Trazado_607397" data-name="Trazado 607397" d="M95.407,377.691v2.582a3.956,3.956,0,0,1-3.956,3.956H11.46A3.956,3.956,0,0,1,7.5,380.273v-2.582a27.579,27.579,0,0,1,17.161-25.538l14.752-6.019,8.139,7.1a5.832,5.832,0,0,0,7.637.029l8.3-7.132,14.752,6.019a27.579,27.579,0,0,1,17.161,25.538Z" transform="translate(-7.504 -346.135)" fill="#faf7f7"/>
            </g>
            <g id="Grupo_878541" data-name="Grupo 878541" transform="translate(0 68.01)">
              <path id="Trazado_607398" data-name="Trazado 607398" d="M17.209,383.521v-2.582A27.579,27.579,0,0,1,34.37,355.4l10.675-4.355-5.628-4.911-14.752,6.019A27.579,27.579,0,0,0,7.5,377.691v2.582a3.956,3.956,0,0,0,3.956,3.956h5.816a3.943,3.943,0,0,1-.067-.709Z" transform="translate(-7.504 -346.135)" fill="#f9f3f1"/>
            </g>
            <g id="Grupo_878543" data-name="Grupo 878543" transform="translate(29.155 68.01)">
              <g id="XMLID_285_">
                <g id="Grupo_878542" data-name="Grupo 878542">
                  <path id="Trazado_607399" data-name="Trazado 607399" d="M157.278,347.261,142.5,384.229h-.039l-14.776-36.968,2.758-1.126,8.139,7.1a5.832,5.832,0,0,0,7.637.029l8.3-7.132Z" transform="translate(-127.684 -346.135)" fill="#c8effe"/>
                </g>
              </g>
            </g>
            <path id="Trazado_607400" data-name="Trazado 607400" d="M69.5,461.236H54.513a1.267,1.267,0,0,1-1.267-1.267V454.38a1.267,1.267,0,0,1,1.267-1.267H69.5a1.267,1.267,0,0,1,1.267,1.267v5.589A1.267,1.267,0,0,1,69.5,461.236Z" transform="translate(-42.149 -359.151)" fill="#c8effe"/>
            <path id="Trazado_607401" data-name="Trazado 607401" d="M136.384,123.59l.684-11.684H99.345V115.5l5.2-.28-2.85,23.277,5.173,13.565,5.753,6.862,12.14,3.281,4.5-1.2a23.638,23.638,0,0,0,13.167-21.192l-.015-15.219Z" transform="translate(-77.065 -100.717)" fill="#ffeee6"/>
            <path id="Trazado_607402" data-name="Trazado 607402" d="M142.366,111.915H99.313V139.9a23.63,23.63,0,0,0,15.642,22.241,17.138,17.138,0,0,0,11.526.024l.18-.063a23.679,23.679,0,0,0,2.573-1.085,17.129,17.129,0,0,1-4.843-.981,23.63,23.63,0,0,1-15.642-22.241V122.849a2.1,2.1,0,0,1,2.1-2.1h3.659a1.742,1.742,0,0,1,1.508.891,16.4,16.4,0,0,0,26.37,2.965Z" transform="translate(-77.041 -100.724)" fill="#ffdfcf"/>
            <path id="Trazado_607403" data-name="Trazado 607403" d="M120.7,110.87a2.529,2.529,0,0,0,2.529-2.529v-2.131a2.529,2.529,0,0,0-2.529-2.529H62.864a2.529,2.529,0,0,0-2.529,2.529v2.131a2.529,2.529,0,0,0,2.529,2.529Z" transform="translate(-47.519 -94.487)" fill="#faf7f7"/>
            <circle id="Elipse_5237" data-name="Elipse 5237" cx="12.788" cy="12.788" r="12.788" transform="translate(40.459)" fill="#c9bfc8"/>
            <path id="Trazado_607404" data-name="Trazado 607404" d="M209.793,106.805a5.51,5.51,0,1,1,5.51-5.51A5.516,5.516,0,0,1,209.793,106.805Z" transform="translate(-156.546 -88.508)" fill="#fee97d"/>
            <g id="Grupo_878544" data-name="Grupo 878544" transform="translate(62.146 47.766)">
              <circle id="Elipse_5238" data-name="Elipse 5238" cx="29.192" cy="29.192" r="29.192" transform="translate(0)" fill="#c8effe"/>
              <path id="Trazado_607405" data-name="Trazado 607405" d="M275.669,291.877a29.207,29.207,0,0,1,23.2-28.576,29.193,29.193,0,1,0,0,57.151,29.208,29.208,0,0,1-23.2-28.575Z" transform="translate(-263.681 -262.685)" fill="#99e6fc"/>
            </g>
          </g>
          <path id="Trazado_607408" data-name="Trazado 607408" d="M136.07,351.046l-5.628-4.911-2.758,1.126,2.477,6.2Z" transform="translate(-98.529 -264.221)" fill="#99e6fc"/>
        </g>
        <g id="Grupo_878547" data-name="Grupo 878547" transform="translate(0 0.997)">
          <path id="Trazado_607409" data-name="Trazado 607409" d="M7.336,406.679a1.819,1.819,0,0,0-2.519.524A29.322,29.322,0,0,0,0,423.321v6.538a1.819,1.819,0,0,0,3.639,0v-6.538A25.693,25.693,0,0,1,7.86,409.2a1.82,1.82,0,0,0-.524-2.519Z" transform="translate(0 -308.039)"/>
          <path id="Trazado_607410" data-name="Trazado 607410" d="M63.819,445.613H48.832a3.09,3.09,0,0,0-3.086,3.087v5.589a3.09,3.09,0,0,0,3.086,3.086H63.819a3.09,3.09,0,0,0,3.086-3.086V448.7A3.09,3.09,0,0,0,63.819,445.613Zm-.552,8.123H49.385v-4.484H63.267Z" transform="translate(-34.648 -337.753)"/>
          <path id="Trazado_607411" data-name="Trazado 607411" d="M204.112,88.286a7.329,7.329,0,1,0,7.329,7.329A7.337,7.337,0,0,0,204.112,88.286Zm0,11.019a3.69,3.69,0,1,1,3.691-3.69A3.694,3.694,0,0,1,204.112,99.305Z" transform="translate(-149.045 -67.111)"/>
          <path id="Trazado_607412" data-name="Trazado 607412" d="M139.51,67.249a1.819,1.819,0,0,0-1.908,3.1,27.257,27.257,0,1,1-6.681-2.963,1.819,1.819,0,0,0,1.015-3.495A31.037,31.037,0,0,0,93.489,85.03l-4.064-1.658V75.779a25.5,25.5,0,0,0,9.681-19.966V54.89a8.355,8.355,0,0,0,7.077-11.823V34.78a4.352,4.352,0,0,0,3.286-4.212V28.437a4.351,4.351,0,0,0-4.083-4.335l.007-.407-.235-4.312A14.625,14.625,0,0,0,96.435,6.825l-.262-.257A14.534,14.534,0,0,0,84.6,2.487l-1.937.187L81.48,2.168a14.625,14.625,0,0,0-11.467,0l-1.181.506L66.9,2.487A14.532,14.532,0,0,0,55.321,6.569l-.262.257a14.624,14.624,0,0,0-8.724,12.557l-.241,4.411-.023.469a4.354,4.354,0,0,0-3.139,4.174v2.131a4.349,4.349,0,0,0,2.432,3.9v8.485A8.358,8.358,0,0,0,52.388,54.89v1a25.525,25.525,0,0,0,9.96,20.187v7.3l-13.94,5.688A29.33,29.33,0,0,0,40.4,93.95a1.819,1.819,0,1,0,2.367,2.764,25.7,25.7,0,0,1,7.02-4.286l10.3-4.2L74.2,123.539a1.819,1.819,0,0,0,3.379,0L91.692,88.226l.982.4A31.011,31.011,0,1,0,139.51,67.249ZM99.106,38.2V34.916h3.439v4.268A8.3,8.3,0,0,0,99.106,38.2ZM85.182,40.47A10.968,10.968,0,1,1,96.15,29.5,10.981,10.981,0,0,1,85.182,40.47ZM99.106,51.238V41.854a4.721,4.721,0,0,1,0,9.384Zm6.725-22.8v2.131a.711.711,0,0,1-.71.71H99.677a14.151,14.151,0,0,0,0-3.551h5.444a.711.711,0,0,1,.71.71ZM49.968,19.581a10.967,10.967,0,0,1,6.8-9.527,1.819,1.819,0,0,0,.588-.385l.509-.5a10.9,10.9,0,0,1,8.682-3.062l2.4.231a1.817,1.817,0,0,0,.891-.139l1.609-.689a10.973,10.973,0,0,1,8.6,0l1.609.689a1.816,1.816,0,0,0,.891.139l2.4-.231a10.9,10.9,0,0,1,8.682,3.061l.509.5a1.823,1.823,0,0,0,.588.385,10.967,10.967,0,0,1,6.8,9.527l.24,4.4c0,.008,0,.045-.005.105H98.744a14.6,14.6,0,0,0-27.125,0H61.631a1.819,1.819,0,1,0,0,3.639h9.055a14.151,14.151,0,0,0,0,3.551H47.28a.711.711,0,0,1-.71-.71V28.437a.711.711,0,0,1,.71-.71h6.6a1.819,1.819,0,1,0,0-3.639H49.723l.005-.105ZM52.388,38.2A8.3,8.3,0,0,0,49,39.157V34.916h3.385Zm-4.2,8.344a4.729,4.729,0,0,1,4.2-4.692v9.384A4.729,4.729,0,0,1,48.189,46.546Zm7.838,9.339V34.916H71.619a14.593,14.593,0,0,0,23.847,4.947v15.95a21.855,21.855,0,0,1-14.522,20.56l-.179.064a15.358,15.358,0,0,1-10.3-.021A21.869,21.869,0,0,1,56.027,55.885ZM69.233,79.839a19.008,19.008,0,0,0,12.75.026l.179-.064a25.334,25.334,0,0,0,3.624-1.615v5.976l-7.348,6.315a4.035,4.035,0,0,1-5.256-.02l-7.2-6.281V78.4A25.346,25.346,0,0,0,69.233,79.839Zm6.653,38.124L63.45,86.852l.047-.019L70.789,93.2a7.693,7.693,0,0,0,10.021.039l7.457-6.409.056.023Z" transform="translate(-30.114 -0.997)"/>
        </g>
      </g>
      <g id="searching" transform="translate(506.029 1327.279)">
        <g id="Grupo_878666" data-name="Grupo 878666" transform="translate(1 1.895)">
          <g id="Grupo_878654" data-name="Grupo 878654" transform="translate(1.061 1.061)">
            <path id="Trazado_607748" data-name="Trazado 607748" d="M2,5.046V50.653A2.158,2.158,0,0,0,4.151,52.8h3.31V10.315A2.158,2.158,0,0,1,9.612,8.163H41.454V5.046A2.158,2.158,0,0,0,39.3,2.895H4.151A2.158,2.158,0,0,0,2,5.046Z" transform="translate(-2 -2.895)" fill="#d6d6d6" fill-rule="evenodd"/>
          </g>
          <g id="Grupo_878655" data-name="Grupo 878655" transform="translate(6.522 6.33)">
            <path id="Trazado_607749" data-name="Trazado 607749" d="M7.145,10.01V55.62A2.155,2.155,0,0,0,9.3,57.768H44.448A2.155,2.155,0,0,0,46.6,55.62V10.01a2.158,2.158,0,0,0-2.152-2.152H9.3A2.158,2.158,0,0,0,7.145,10.01Z" transform="translate(-7.145 -7.859)" fill="#f7fdff" fill-rule="evenodd"/>
          </g>
          <g id="Grupo_878656" data-name="Grupo 878656" transform="translate(11.991 15.63)">
            <path id="Trazado_607750" data-name="Trazado 607750" d="M12.3,18.376v9.75a1.76,1.76,0,0,0,1.755,1.755H22.87a1.76,1.76,0,0,0,1.755-1.755v-9.75a1.76,1.76,0,0,0-1.755-1.755H14.053A1.76,1.76,0,0,0,12.3,18.376Z" transform="translate(-12.298 -16.622)" fill="#ffe366" fill-rule="evenodd"/>
          </g>
          <g id="Grupo_878657" data-name="Grupo 878657" transform="translate(23.399 1.061)">
            <path id="Trazado_607751" data-name="Trazado 607751" d="M38.012,2.895H23.047A35.357,35.357,0,0,1,25.6,8.163H40.164V5.046A2.159,2.159,0,0,0,38.012,2.895Z" transform="translate(-23.047 -2.895)" fill="#b3b3b3" fill-rule="evenodd"/>
          </g>
          <g id="Grupo_878658" data-name="Grupo 878658" transform="translate(19.178 6.33)">
            <path id="Trazado_607752" data-name="Trazado 607752" d="M40.407,7.859H25.843c5.6,14.34,4.921,39.416-6.773,49.91H43.717a2.155,2.155,0,0,0,2.152-2.148V53.89a13,13,0,1,1,0-25.841V10.01a2.158,2.158,0,0,0-2.152-2.152h-3.31Z" transform="translate(-19.07 -7.859)" fill="#dbf4fc" fill-rule="evenodd"/>
          </g>
          <g id="Grupo_878659" data-name="Grupo 878659" transform="translate(53.668 50.785)">
            <path id="Trazado_607753" data-name="Trazado 607753" d="M53.573,51.254l-1.758,1.376a.642.642,0,0,0-.111.9l6.276,8.024a.642.642,0,0,0,.9.111l2.112-1.651,1.4-1.1a.642.642,0,0,0,.111-.9l-1.512-1.934-4.761-6.09a.647.647,0,0,0-.9-.111Z" transform="translate(-51.567 -49.746)" fill="#ffe366" fill-rule="evenodd"/>
          </g>
          <g id="Grupo_878660" data-name="Grupo 878660" transform="translate(31.54 26.441)">
            <path id="Trazado_607754" data-name="Trazado 607754" d="M31.4,35.644A13,13,0,0,0,52.377,49.5c.079-.068.157-.139.232-.211A13,13,0,1,0,31.4,35.644Zm6.14,9.958a8.468,8.468,0,1,1,7.613,2.552A8.467,8.467,0,0,1,37.542,45.6Z" transform="translate(-30.718 -26.808)" fill="#69d5ff" fill-rule="evenodd"/>
          </g>
          <g id="Grupo_878661" data-name="Grupo 878661" transform="translate(36.073 30.973)">
            <path id="Trazado_607755" data-name="Trazado 607755" d="M37.666,33.37a8.464,8.464,0,1,0,7.227-2.17,8.467,8.467,0,0,0-7.227,2.17Z" transform="translate(-34.989 -31.078)" fill="#f7fdff" fill-rule="evenodd"/>
          </g>
          <g id="Grupo_878662" data-name="Grupo 878662" transform="translate(41.188 30.973)">
            <path id="Trazado_607756" data-name="Trazado 607756" d="M48.954,45.722A8.47,8.47,0,0,0,39.976,31.7,8.474,8.474,0,0,1,44.6,36.619a8.493,8.493,0,0,1,0,5.712,8.49,8.49,0,0,1-4.789,4.993,8.469,8.469,0,0,0,9.146-1.6Z" transform="translate(-39.808 -31.078)" fill="#dbf4fc" fill-rule="evenodd"/>
          </g>
          <g id="Grupo_878663" data-name="Grupo 878663" transform="translate(41.202 26.441)">
            <path id="Trazado_607757" data-name="Trazado 607757" d="M52.641,30.915a13.01,13.01,0,0,0-12.82-3.674A12.942,12.942,0,0,1,44.6,29.346a13.1,13.1,0,0,1,1.955,1.708,13.43,13.43,0,0,1,1.39,1.762,8.613,8.613,0,0,1,1.394,1.2,8.47,8.47,0,0,1-.382,11.97,8.1,8.1,0,0,1-.693.583,12.925,12.925,0,0,1-2.3,2.863A13.343,13.343,0,0,1,44.6,50.548a12.891,12.891,0,0,1-4.189,1.966,13.092,13.092,0,0,0,4.189.214A12.909,12.909,0,0,0,51.819,49.5c.079-.068.157-.139.232-.211a13,13,0,0,0,.59-18.375Z" transform="translate(-39.821 -26.808)" fill="#4ac1f0" fill-rule="evenodd"/>
          </g>
          <g id="Grupo_878664" data-name="Grupo 878664" transform="translate(55.673 50.785)">
            <path id="Trazado_607758" data-name="Trazado 607758" d="M60.876,56.083l-4.761-6.09a.647.647,0,0,0-.9-.111l-1.755,1.372a.643.643,0,0,1,.9.111l6.276,8.024a.646.646,0,0,1-.111.9l.354-.275,1.4-1.1a.642.642,0,0,0,.111-.9Z" transform="translate(-53.457 -49.746)" fill="#fac852" fill-rule="evenodd"/>
          </g>
          <g id="Grupo_878665" data-name="Grupo 878665">
            <path id="Trazado_607759" data-name="Trazado 607759" d="M14.114,31h8.818a2.819,2.819,0,0,0,2.816-2.816v-9.75a2.819,2.819,0,0,0-2.816-2.816H14.114A2.819,2.819,0,0,0,11.3,18.437v9.75A2.819,2.819,0,0,0,14.114,31ZM13.42,18.437a.7.7,0,0,1,.693-.693h8.818a.7.7,0,0,1,.693.693v9.75a.7.7,0,0,1-.693.694H14.114a.7.7,0,0,1-.693-.694Z" transform="translate(-0.368 -1.053)"/>
            <path id="Trazado_607760" data-name="Trazado 607760" d="M28.406,18.2H40.221a1.061,1.061,0,1,0,0-2.123H28.406a1.061,1.061,0,1,0,0,2.123Z" transform="translate(0.615 -1.025)"/>
            <path id="Trazado_607761" data-name="Trazado 607761" d="M28.406,24.22H40.221a1.061,1.061,0,1,0,0-2.123H28.406a1.061,1.061,0,1,0,0,2.123Z" transform="translate(0.615 -0.656)"/>
            <path id="Trazado_607762" data-name="Trazado 607762" d="M48.738,38.12a5.656,5.656,0,0,0-6.723-4.313,1.061,1.061,0,1,0,.452,2.074,3.528,3.528,0,0,1,4.2,2.692,1.061,1.061,0,1,0,2.073-.453Z" transform="translate(1.464 0.054)"/>
            <path id="Trazado_607763" data-name="Trazado 607763" d="M50.467,33.088a9.523,9.523,0,1,0-.43,13.47,9.539,9.539,0,0,0,.43-13.47ZM48.585,45.009a7.406,7.406,0,1,1-10.133-10.8h0a7.406,7.406,0,0,1,10.132,10.8Z" transform="translate(1.023 -0.167)"/>
            <path id="Trazado_607764" data-name="Trazado 607764" d="M66.441,60.3l-6.273-8.023a1.707,1.707,0,0,0-2.394-.294l-.92.719-1.238-1.582A14.03,14.03,0,0,0,48.037,27.51h0l0-17.129a3.22,3.22,0,0,0-3.216-3.216H42.577V5.108a3.217,3.217,0,0,0-3.213-3.213H4.213A3.217,3.217,0,0,0,1,5.108V50.714a3.217,3.217,0,0,0,3.213,3.213H6.466v2.058A3.2,3.2,0,0,0,9.671,59.19H44.822a3.211,3.211,0,0,0,3.216-3.205v-.807a13.867,13.867,0,0,0,5.993-2.645l1.153,1.473-.923.722a1.706,1.706,0,0,0-.293,2.391l6.277,8.025a1.706,1.706,0,0,0,2.39.292l3.513-2.748a1.705,1.705,0,0,0,.294-2.391ZM4.213,51.8a1.092,1.092,0,0,1-1.09-1.09V5.108a1.092,1.092,0,0,1,1.09-1.09H39.364a1.092,1.092,0,0,1,1.09,1.09V7.164H9.671A3.211,3.211,0,0,0,6.466,10.38V51.8Zm41.7,4.181a1.083,1.083,0,0,1-1.093,1.083H9.671a1.08,1.08,0,0,1-1.083-1.083V10.38A1.089,1.089,0,0,1,9.671,9.287H44.822a1.092,1.092,0,0,1,1.093,1.093L45.92,27.3h-.005a13.973,13.973,0,0,0-8.281,2.426H30.021a1.061,1.061,0,1,0,0,2.123h5.155A13.948,13.948,0,0,0,32.5,36.11H12.99a1.061,1.061,0,0,0,0,2.123H31.833a14.192,14.192,0,0,0-.288,4.264H12.99a1.061,1.061,0,1,0,0,2.123H31.884a13.959,13.959,0,0,0,1.8,4.264H12.99a1.061,1.061,0,1,0,0,2.123H35.335a14,14,0,0,0,9.752,4.384c.276,0,.552.025.828,0Zm7.79-5.943a11.732,11.732,0,0,1-5.667,2.972,11.472,11.472,0,0,1-2.876.255A11.937,11.937,0,0,1,45.533,29.4h.393a10.748,10.748,0,0,1,2.112.265,11.792,11.792,0,0,1,6.209,3.5A11.959,11.959,0,0,1,53.7,50.041ZM61.657,63.5,55.9,56.142l2.854-2.233,5.757,7.364Z" transform="translate(-1 -1.895)"/>
          </g>
        </g>
      </g>
      <path id="Trazado_607785" data-name="Trazado 607785" d="M7732.712-10347.232l1.777,3.11,7-8.33" transform="translate(-7210.074 11698.143)" fill="none" stroke="#000" stroke-width="2"/>
    </g>
  </g>
</svg>
