<svg xmlns="http://www.w3.org/2000/svg" width="167" height="167" viewBox="0 0 167 167">
  <g id="Grupo_878669" data-name="Grupo 878669" transform="translate(-1026.83 -1259)">
    <circle id="Elipse_5246" data-name="Elipse 5246" cx="83.5" cy="83.5" r="83.5" transform="translate(1026.83 1259)" fill="#fff"/>
    <g id="Grupo_878668" data-name="Grupo 878668">
      <g id="Grupo_878579" data-name="Grupo 878579" transform="translate(-126.297 -1182.277)">
        <g id="oftalmologo" transform="translate(1182.127 2458.277)">
          <g id="Grupo_878553" data-name="Grupo 878553" transform="translate(1.799 1.815)">
            <g id="Grupo_878548" data-name="Grupo 878548" transform="translate(11.514)">
              <path id="Trazado_607415" data-name="Trazado 607415" d="M119,98.437V54.067l.25-10.3.493-5.573C121.2,21.714,108.626,7.5,92.586,7.5h-.877c-16.04,0-28.616,14.214-27.157,30.7l.493,5.573.25,10.3v59.376H118.3Z" transform="translate(-64.437 -7.5)" fill="#a79ba7"/>
            </g>
            <path id="Trazado_607416" data-name="Trazado 607416" d="M137.388,254.695v37.78h18.834l1.005-14.442V254.695Z" transform="translate(-108.22 -194.875)" fill="#fed2a4"/>
            <path id="Trazado_607417" data-name="Trazado 607417" d="M141.3,296.511v.85h-3.911v26.81h6.138V308.936a2.366,2.366,0,0,1,2.543-2.361q.728.055,1.463.055h0a19.874,19.874,0,0,0,6.72-1.171l.849-.305c.726-.261,1.434-.555,2.125-.874v-7.769Z" transform="translate(-108.221 -226.572)" fill="#ffbd86"/>
            <path id="Trazado_607418" data-name="Trazado 607418" d="M102.178,387.449l7.215-6.776-8.136-28.326-2.793-1.213-8.146,5.472a3.213,3.213,0,0,1-3.577,0l-8.117-5.47-2.591,1.126L59.865,369.674l1.249,9.115,18.929,8.717Z" transform="translate(-49.457 -267.976)" fill="#c8effe"/>
            <g id="Grupo_878549" data-name="Grupo 878549" transform="translate(0 20.407)">
              <path id="Trazado_607419" data-name="Trazado 607419" d="M66.817,165.422a6.885,6.885,0,0,1,0-13.769h11.86v14.315Z" transform="translate(-49.508 -137.175)" fill="#ffbd86"/>
              <path id="Trazado_607420" data-name="Trazado 607420" d="M234.592,165.422a6.885,6.885,0,0,0,0-13.769H223.764v14.109Z" transform="translate(-173.694 -137.175)" fill="#fed2a4"/>
              <path id="Trazado_607421" data-name="Trazado 607421" d="M125.4,115.25,113.839,106.9l-4.726,4.578-7.748,11.787L104,144.088l8.926,10.528,8.583,3.412,8.5-1.519a22.728,22.728,0,0,0,11.627-19.83v-14.5l-1.784-2.578Z" transform="translate(-80.915 -103.249)" fill="#ffe5c2"/>
              <path id="Trazado_607422" data-name="Trazado 607422" d="M131.648,103.549l-6.578-.93a31.632,31.632,0,0,1-19.636-10.793,3.274,3.274,0,0,0-2.4,1.257l-2.675,3.869a19.736,19.736,0,0,1-9.389,6.993,1.213,1.213,0,0,0-.778,1.132v20.11a22.728,22.728,0,0,0,15.128,21.419l1.03.365a16.247,16.247,0,0,0,10.928-.022l.847-.3a20.87,20.87,0,0,0,3.423-1.56,15.693,15.693,0,0,1-7.615-.851l-1.03-.365a22.728,22.728,0,0,1-15.128-21.419V111.707a6.005,6.005,0,0,1,1.955-4.437,19,19,0,0,0,2.822-3.23l3.355-4.853a1,1,0,0,1,1.589-.073,31.632,31.632,0,0,0,19.63,10.786l6.04.854V105.3A1.768,1.768,0,0,0,131.648,103.549Z" transform="translate(-72.448 -91.826)" fill="#fed2a4"/>
              <path id="Trazado_607423" data-name="Trazado 607423" d="M56.066,405.011,47.3,391.054l-6.535-16.507-7.581-.131a27.292,27.292,0,0,0-16.327,24.993v4.154a1.92,1.92,0,0,0,1.932,1.92l37.279-.23Z" transform="translate(-16.858 -306.03)" fill="#f9f3f1"/>
            </g>
            <path id="Trazado_607424" data-name="Trazado 607424" d="M201.81,374.955l-4.853.627-13.521,21.332-4.557,8.505,0,.242,37.384-.232a1.589,1.589,0,0,0,1.579-1.589v-4.023a27.291,27.291,0,0,0-16.035-24.863Z" transform="translate(-139.67 -286.032)" fill="#f9f3f1"/>
            <path id="Trazado_607425" data-name="Trazado 607425" d="M197.371,388.555V386.7l7.677-10.007a27.3,27.3,0,0,0-3.239-1.741l-4.853.627-13.521,21.332-4.557,8.505,0,.242,4.621-.029,13.142-15.13a2.975,2.975,0,0,0,.728-1.949Z" transform="translate(-139.67 -286.033)" fill="#f3eae6"/>
            <path id="Trazado_607426" data-name="Trazado 607426" d="M201.517,360.6l.293.131-8.068,10.517v2.836L178.878,391.2l12.516-34.835.075-.169Z" transform="translate(-139.67 -271.812)" fill="#faf7f7"/>
            <path id="Trazado_607427" data-name="Trazado 607427" d="M56.066,405.011,41.2,387.9v-2.836l-8.017-10.648a27.292,27.292,0,0,0-16.327,24.993v4.154a1.92,1.92,0,0,0,1.932,1.92l6.745-.042v-3.008a27.271,27.271,0,0,1,6.523-17.7,2.859,2.859,0,0,1,4.456.14l1.058,1.4v2.979l13.92,16.025,4.576-.028Z" transform="translate(-16.858 -285.623)" fill="#f3eae6"/>
            <g id="Grupo_878551" data-name="Grupo 878551" transform="translate(16.327 84.293)">
              <g id="XMLID_653_">
                <g id="Grupo_878550" data-name="Grupo 878550">
                  <path id="Trazado_607428" data-name="Trazado 607428" d="M94.693,356.084l12.516,34.835L92.345,373.808v-2.836l-8.017-10.648,10.251-4.5Z" transform="translate(-84.328 -355.825)" fill="#faf7f7"/>
                </g>
              </g>
            </g>
            <g id="Grupo_878552" data-name="Grupo 878552" transform="translate(57.272 61.817)">
              <circle id="Elipse_5239" data-name="Elipse 5239" cx="29.12" cy="29.12" r="29.12" transform="translate(0)" fill="#c8effe"/>
              <path id="Trazado_607429" data-name="Trazado 607429" d="M264.2,292.066a29.134,29.134,0,0,1,23.786-28.633,29.121,29.121,0,1,0,0,57.264A29.133,29.133,0,0,1,264.2,292.066Z" transform="translate(-253.522 -262.946)" fill="#99e6fc"/>
            </g>
            <path id="Trazado_607432" data-name="Trazado 607432" d="M66.371,480.819H51.421a1.264,1.264,0,0,1-1.264-1.264v-3.864a1.264,1.264,0,0,1,1.264-1.264h14.95a1.264,1.264,0,0,1,1.264,1.264v3.864A1.264,1.264,0,0,1,66.371,480.819Z" transform="translate(-42.099 -361.433)" fill="#c8effe"/>
          </g>
          <g id="Grupo_878554" data-name="Grupo 878554" transform="translate(0)">
            <path id="Trazado_607433" data-name="Trazado 607433" d="M60.753,467.178H45.8a3.082,3.082,0,0,0-3.079,3.079v3.864A3.082,3.082,0,0,0,45.8,477.2h14.95a3.082,3.082,0,0,0,3.079-3.079v-3.865A3.083,3.083,0,0,0,60.753,467.178ZM60.2,473.57H46.354v-2.762H60.2Z" transform="translate(-34.665 -354.123)"/>
            <path id="Trazado_607434" data-name="Trazado 607434" d="M118.159,69.626a1.815,1.815,0,1,0-2.411,2.713,27.3,27.3,0,1,1-18.133-6.893,27.039,27.039,0,0,1,11.949,2.747,1.815,1.815,0,1,0,1.591-3.263,30.922,30.922,0,0,0-32.041,3.042V48.75a8.672,8.672,0,0,0,.161-10.109,1.8,1.8,0,0,0,.082-.4l.493-5.573A30.521,30.521,0,0,0,72.047,9.4,28.419,28.419,0,0,0,50.885,0h-.877A28.8,28.8,0,0,0,25.5,13.815a1.815,1.815,0,0,0,3.082,1.918A25.186,25.186,0,0,1,50.008,3.63h.877a24.829,24.829,0,0,1,18.484,8.224,26.884,26.884,0,0,1,6.865,20.5l-.3,3.415a8.632,8.632,0,0,0-2.248-.738,3.6,3.6,0,0,0-3.016-2.878l-6.578-.93A29.793,29.793,0,0,1,45.58,21.045a2.815,2.815,0,0,0-4.457.226l-3.355,4.853a17.286,17.286,0,0,1-8.574,6.485h0a3.027,3.027,0,0,0-2.009,2.379,8.615,8.615,0,0,0-2.232.669l-.293-3.307a27.05,27.05,0,0,1,.91-9.8,1.815,1.815,0,1,0-3.492-.989,30.675,30.675,0,0,0-1.033,11.105l.493,5.573c0,.049.012.1.02.145a8.68,8.68,0,0,0,.225,10.678c0,.014,0,.027,0,.041V76.151a1.815,1.815,0,1,0,3.63,0V51.7a8.624,8.624,0,0,0,1.735.469v3.413A24.6,24.6,0,0,0,38.59,76.333v7.515L26.837,89c-.484.212-.959.441-1.427.678v-5.8a1.815,1.815,0,0,0-3.63,0V91.86a29.113,29.113,0,0,0-12.357,23.8v6.085a1.815,1.815,0,0,0,3.63,0v-6.085A25.48,25.48,0,0,1,27.007,92.942l6.76,8.979v2.23a1.816,1.816,0,0,0,.445,1.19l14.865,17.112a1.81,1.81,0,0,0,2.716.026c.008-.008,14.89-17.137,14.89-17.137a1.816,1.816,0,0,0,.445-1.19v-2.23l.677-.9a30.936,30.936,0,1,0,50.355-31.4ZM73.748,38.79a5.057,5.057,0,0,1,0,9.585Zm0,16.864V52.129a8.621,8.621,0,0,0,1.735-.526V71.161a30.9,30.9,0,0,0-8.1,15.022l-5.322-2.335v-7.3a24.614,24.614,0,0,0,11.687-20.9ZM23.461,43.584a5.075,5.075,0,0,1,3.684-4.872v9.745A5.076,5.076,0,0,1,23.461,43.584Zm7.314,12V35.9a20.949,20.949,0,0,0,9.979-7.712l2.761-3.995a33.42,33.42,0,0,0,20.066,10.62l6.537.925V55.654a20.964,20.964,0,0,1-13.84,19.68l-.847.3a14.469,14.469,0,0,1-9.706.02L44.7,75.293A20.95,20.95,0,0,1,30.775,55.584Zm12.707,23.13,1.029.365a18.109,18.109,0,0,0,12.148-.025l.847-.3q.468-.168.925-.354v5.676l-7.352,4.987a1.359,1.359,0,0,1-1.536,0L42.22,84.073V78.222c.415.174.834.341,1.262.493ZM37.4,103.472v-2.158a1.815,1.815,0,0,0-.365-1.092L30.4,91.407l6.388-2.8,8.678,24.151Zm13.05,12.422L40.116,87.143l.1-.043L47.5,92.058a4.969,4.969,0,0,0,5.616,0L60.435,87.1l.309.136Zm13.415-15.672a1.815,1.815,0,0,0-.365,1.092v2.158l-8.065,9.284L64.076,88.7l2.736,1.2c-.086.941-.133,1.893-.133,2.856a31.081,31.081,0,0,0,.2,3.468Z" transform="translate(-9.423)"/>
          </g>
        </g>
      </g>
      <g id="investigacion" transform="translate(1113.929 1312.174)">
        <path id="Trazado_607765" data-name="Trazado 607765" d="M80,24h33.016v6.39H80Z" transform="translate(-55.48 -6.935)" fill="#d7e6eb"/>
        <path id="Trazado_607766" data-name="Trazado 607766" d="M112,24l4.26,4.26h11.715L123.715,24Z" transform="translate(-83.22 -6.935)" fill="#ccdce4"/>
        <path id="Trazado_607767" data-name="Trazado 607767" d="M56,24l4.26,4.26H71.975L67.715,24Z" transform="translate(-34.675 -6.935)" fill="#b4c2c9"/>
        <path id="Trazado_607768" data-name="Trazado 607768" d="M24,81.511V24h7.455l4.26,4.26H64.471V81.511Z" transform="translate(-6.935 -6.935)" fill="#ecae49"/>
        <path id="Trazado_607769" data-name="Trazado 607769" d="M0,0H31.951V43.666H0Z" transform="translate(22.808 35.272) rotate(-13.3)" fill="#ccdce4"/>
        <path id="Trazado_607770" data-name="Trazado 607770" d="M0,0H21.3V8.52H0Z" transform="translate(29.214 39.228) rotate(-13.3)" fill="#7a8a9a"/>
        <circle id="Elipse_5252" data-name="Elipse 5252" cx="14.934" cy="14.934" r="14.934" transform="translate(48.813 27.582)" fill="#0093ba"/>
        <path id="Trazado_607771" data-name="Trazado 607771" d="M364.26,352v15.975a2.13,2.13,0,0,1-4.26,0V352Z" transform="translate(-298.204 -291.269)" fill="#ecae49"/>
        <path id="Trazado_607772" data-name="Trazado 607772" d="M360,352h4.26v3.2H360Z" transform="translate(-298.204 -291.269)" fill="#d7a145"/>
        <rect id="Rectángulo_48339" data-name="Rectángulo 48339" width="8.534" height="4.267" rx="2.133" transform="translate(59.785 57.451)" fill="#d08b29"/>
        <circle id="Elipse_5253" data-name="Elipse 5253" cx="10.667" cy="10.667" r="10.667" transform="translate(53.08 31.849)" fill="#7fcbe5"/>
        <path id="Trazado_607773" data-name="Trazado 607773" d="M360,456h4.26v2.13a2.13,2.13,0,1,1-4.26,0Z" transform="translate(-298.204 -381.424)" fill="#d08b29"/>
        <path id="Trazado_607774" data-name="Trazado 607774" d="M299.715,128a11.715,11.715,0,1,0,11.715,11.715A11.715,11.715,0,0,0,299.715,128Zm0,21.3a9.585,9.585,0,1,1,9.585-9.585A9.585,9.585,0,0,1,299.715,149.3Z" transform="translate(-235.789 -97.09)"/>
        <path id="Trazado_607775" data-name="Trazado 607775" d="M287.936,111.978a15.975,15.975,0,1,0-20.748,15.247,3.192,3.192,0,0,0,1.578,4.805v14.028a3.2,3.2,0,1,0,6.39,0V132.031a3.192,3.192,0,0,0,1.578-4.806A16,16,0,0,0,287.936,111.978Zm-14.91,20.235v10.65H270.9v-10.65Zm-1.065,14.91a1.066,1.066,0,0,1-1.065-1.065v-1.065h2.13v1.065A1.066,1.066,0,0,1,271.961,147.124Zm2.13-19.17a1.065,1.065,0,0,1,0,2.13h-4.26a1.065,1.065,0,0,1,0-2.13Zm-2.13-2.13a13.845,13.845,0,1,1,13.845-13.845A13.845,13.845,0,0,1,271.961,125.824Z" transform="translate(-208.035 -69.353)"/>
        <path id="Trazado_607776" data-name="Trazado 607776" d="M18.13,18.13h5.949l3.948,3.948a1.065,1.065,0,0,0,.753.312H56.471v3.2H58.6v-8.52A1.065,1.065,0,0,0,57.536,16H17.065A1.065,1.065,0,0,0,16,17.065V74.576a1.065,1.065,0,0,0,1.065,1.065H28.78v-2.13H18.13Zm8.961,0H32.6l2.13,2.13H29.221Zm8.52,0h4.443l2.13,2.13H37.742Zm20.859,2.13H45.2l-2.13-2.13h13.4Z"/>
        <path id="Trazado_607777" data-name="Trazado 607777" d="M71.049,147.411,61.5,106.989l30.058-7.1-.49-2.073-31.094,7.348a1.065,1.065,0,0,0-.791,1.281l10.042,42.5a1.065,1.065,0,0,0,1.281.791l25.749-6.085-.49-2.073Z" transform="translate(-37.406 -70.921)"/>
        <path id="Trazado_607778" data-name="Trazado 607778" d="M0,0H2.13V2.13H0Z" transform="translate(33.189 51.419) rotate(-13.3)"/>
        <path id="Trazado_607779" data-name="Trazado 607779" d="M0,0H9.559V2.13H0Z" transform="translate(37.334 50.44) rotate(-13.3)"/>
        <path id="Trazado_607780" data-name="Trazado 607780" d="M0,0H17.131V2.13H0Z" transform="translate(32.096 56.054) rotate(-13.3)"/>
        <path id="Trazado_607781" data-name="Trazado 607781" d="M0,0H19.407V2.13H0Z" transform="translate(33.075 60.2) rotate(-13.3)"/>
        <path id="Trazado_607782" data-name="Trazado 607782" d="M0,0H23.43V2.13H0Z" transform="translate(34.056 64.344) rotate(-13.3)"/>
        <path id="Trazado_607783" data-name="Trazado 607783" d="M0,0H19.17V2.13H0Z" transform="translate(35.036 68.489) rotate(-13.3)"/>
        <path id="Trazado_607784" data-name="Trazado 607784" d="M125.295,152.215,108.1,156.278a1.065,1.065,0,0,0-.791,1.281l1.959,8.292a1.063,1.063,0,0,0,1.281.791l14.644-3.46-.49-2.073L111.1,164.325l-1.47-6.219,16.158-3.818Z" transform="translate(-79.128 -118.081)"/>
      </g>
    </g>
  </g>
</svg>
