<svg xmlns="http://www.w3.org/2000/svg" width="85" height="85" viewBox="0 0 85 85">
  <g id="Grupo_878809" data-name="Grupo 878809" transform="translate(-1223.83 -5464)">
    <circle id="Elipse_5244" data-name="Elipse 5244" cx="42.5" cy="42.5" r="42.5" transform="translate(1223.83 5464)" fill="#0273bc"/>
    <g id="durable" transform="translate(1240.83 5480.834)">
      <path id="Trazado_607476" data-name="Trazado 607476" d="M50.439,407.971H1.523A1.523,1.523,0,0,0,0,409.494v7.489a1.523,1.523,0,0,0,1.523,1.523H50.439a1.523,1.523,0,0,0,1.523-1.523v-7.489A1.523,1.523,0,0,0,50.439,407.971ZM3.045,415.46v-4.444H7.086l1.867,4.444Zm9.211,0-1.867-4.444h4.85l1.867,4.444Zm8.153,0-1.867-4.444h4.85l1.867,4.444Zm8.153,0-1.867-4.444h4.85l1.867,4.444Zm8.153,0-1.867-4.444H39.7l1.867,4.444Zm12.2,0H44.867L43,411.016h5.916Z" transform="translate(0 -366.412)" fill="#fff"/>
      <path id="Trazado_607477" data-name="Trazado 607477" d="M94.27,37.841h26.159a3.732,3.732,0,0,0,3.559-4.781l-6.111-20.41A3.692,3.692,0,0,0,114.317,10H113.8V6.584c-.326-8.562-12.6-8.555-12.922,0V10h-.61a3.736,3.736,0,0,0-3.565,2.667l-6,20.41a3.715,3.715,0,0,0,3.564,4.763Zm9.655-31.257a3.416,3.416,0,0,1,6.832,0V10h-6.832Zm-10.3,27.352,6-20.41a.674.674,0,0,1,.643-.481h14.047a.666.666,0,0,1,.642.478l6.111,20.41a.67.67,0,0,1-.642.862H94.27A.664.664,0,0,1,93.627,33.936Z" transform="translate(-81.36 0)" fill="#fff"/>
      <path id="Trazado_607478" data-name="Trazado 607478" d="M210.551,174.671a1.534,1.534,0,0,0,2.033.021l3.555-3.122a1.522,1.522,0,1,0-2.009-2.288l-1.027.9v-8.652a1.523,1.523,0,0,0-3.045,0v8.558l-.861-.788a1.523,1.523,0,0,0-2.056,2.246Z" transform="translate(-185.669 -143.62)" fill="#fff"/>
    </g>
  </g>
</svg>
